<svg version="1.1" viewBox="0.0 0.0 600.0 371.0" fill="none" stroke="none" stroke-linecap="square" stroke-miterlimit="10" width="600" height="371" xmlns:xlink="http://www.w3.org/1999/xlink" xmlns="http://www.w3.org/2000/svg"><path fill="#ffffff" d="M0 0L600.0 0L600.0 371.0L0 371.0L0 0Z" fill-rule="nonzero"/><path fill="#ffffff" d="M151.48502 212.33334C149.10358 171.44551 163.68456 131.38458 191.79105 101.59345C219.89754 71.802315 259.04288 54.916668 300.0 54.916668L300.0 203.68333Z" fill-rule="nonzero"/><path fill="#2e2e2e" d="M300.0 54.916668C381.03717 54.916668 447.16727 119.77663 448.7387 200.79855C450.31012 281.82047 386.7447 349.19586 305.7685 352.33813C224.79227 355.48038 156.19691 293.2334 151.48502 212.33334L300.0 203.68333Z" fill-rule="nonzero"/><path stroke="#2e2e2e" stroke-width="1.0" stroke-linejoin="round" stroke-linecap="round" d="M300.0 203.68333L300.0 54.916668C381.03717 54.916668 447.16727 119.77663 448.7387 200.79855C450.31012 281.82047 386.7447 349.19586 305.7685 352.33813C224.79227 355.48038 156.19691 293.2334 151.48502 212.33334" fill-rule="nonzero"/><path stroke="#2e2e2e" stroke-width="1.0" stroke-linejoin="round" stroke-linecap="round" d="M300.0 203.68333L151.48502 212.33334C149.10358 171.44551 163.68456 131.38458 191.79105 101.59345C219.89754 71.802315 259.04288 54.916668 300.0 54.916668" fill-rule="nonzero"/><path fill="#434343" d="M20.659374 98.854195L20.659374 102.197945L19.534374 102.197945L19.534374 93.666695L22.690624 93.666695Q24.08125 93.666695 24.878124 94.385445Q25.675 95.08857 25.675 96.27607Q25.675 97.510445 24.89375 98.18232Q24.128124 98.854195 22.675 98.854195L20.659374 98.854195ZM20.659374 97.93232L22.690624 97.93232Q23.596874 97.93232 24.065624 97.510445Q24.55 97.08857 24.55 96.291695Q24.55 95.52607 24.065624 95.072945Q23.596874 94.604195 22.753124 94.58857L20.659374 94.58857L20.659374 97.93232ZM27.08125 98.96357Q27.08125 98.041695 27.440624 97.291695Q27.815624 96.541695 28.471874 96.15107Q29.128124 95.74482 29.95625 95.74482Q31.253124 95.74482 32.05 96.635445Q32.8625 97.52607 32.8625 99.02607L32.8625 99.104195Q32.8625 100.02607 32.503124 100.760445Q32.14375 101.49482 31.4875 101.916695Q30.83125 102.322945 29.971874 102.322945Q28.690624 102.322945 27.878124 101.43232Q27.08125 100.52607 27.08125 99.041695L27.08125 98.96357ZM28.175 99.104195Q28.175 100.15107 28.659374 100.791695Q29.159374 101.43232 29.971874 101.43232Q30.8 101.43232 31.284374 100.791695Q31.76875 100.135445 31.76875 98.96357Q31.76875 97.93232 31.26875 97.291695Q30.784374 96.635445 29.95625 96.635445Q29.159374 96.635445 28.659374 97.27607Q28.175 97.90107 28.175 99.104195ZM38.065624 100.510445Q38.065624 100.072945 37.721874 99.83857Q37.39375 99.58857 36.565624 99.416695Q35.753124 99.24482 35.26875 98.99482Q34.784374 98.74482 34.55 98.416695Q34.33125 98.072945 34.33125 97.604195Q34.33125 96.822945 34.9875 96.291695Q35.64375 95.74482 36.675 95.74482Q37.753124 95.74482 38.409374 96.30732Q39.08125 96.854195 39.08125 97.71357L38.003124 97.71357Q38.003124 97.27607 37.6125 96.96357Q37.2375 96.635445 36.675 96.635445Q36.08125 96.635445 35.7375 96.90107Q35.409374 97.15107 35.409374 97.55732Q35.409374 97.947945 35.721874 98.15107Q36.034374 98.354195 36.846874 98.541695Q37.659374 98.71357 38.159374 98.96357Q38.659374 99.21357 38.89375 99.572945Q39.14375 99.93232 39.14375 100.43232Q39.14375 101.291695 38.45625 101.80732Q37.784374 102.322945 36.70625 102.322945Q35.940624 102.322945 35.346874 102.05732Q34.76875 101.77607 34.440624 101.291695Q34.1125 100.80732 34.1125 100.24482L35.190624 100.24482Q35.221874 100.791695 35.628124 101.11982Q36.034374 101.43232 36.70625 101.43232Q37.315624 101.43232 37.690624 101.18232Q38.065624 100.93232 38.065624 100.510445ZM44.065624 100.510445Q44.065624 100.072945 43.721874 99.83857Q43.39375 99.58857 42.565624 99.416695Q41.753124 99.24482 41.26875 98.99482Q40.784374 98.74482 40.55 98.416695Q40.33125 98.072945 40.33125 97.604195Q40.33125 96.822945 40.9875 96.291695Q41.64375 95.74482 42.675 95.74482Q43.753124 95.74482 44.409374 96.30732Q45.08125 96.854195 45.08125 97.71357L44.003124 97.71357Q44.003124 97.27607 43.6125 96.96357Q43.2375 96.635445 42.675 96.635445Q42.08125 96.635445 41.7375 96.90107Q41.409374 97.15107 41.409374 97.55732Q41.409374 97.947945 41.721874 98.15107Q42.034374 98.354195 42.846874 98.541695Q43.659374 98.71357 44.159374 98.96357Q44.659374 99.21357 44.89375 99.572945Q45.14375 99.93232 45.14375 100.43232Q45.14375 101.291695 44.45625 101.80732Q43.784374 102.322945 42.70625 102.322945Q41.940624 102.322945 41.346874 102.05732Q40.76875 101.77607 40.440624 101.291695Q40.1125 100.80732 40.1125 100.24482L41.190624 100.24482Q41.221874 100.791695 41.628124 101.11982Q42.034374 101.43232 42.70625 101.43232Q43.315624 101.43232 43.690624 101.18232Q44.065624 100.93232 44.065624 100.510445ZM50.284374 101.572945Q49.659374 102.322945 48.425 102.322945Q47.409374 102.322945 46.878124 101.729195Q46.346874 101.135445 46.346874 99.979195L46.346874 95.854195L47.425 95.854195L47.425 99.947945Q47.425 101.40107 48.596874 101.40107Q49.846874 101.40107 50.253124 100.46357L50.253124 95.854195L51.346874 95.854195L51.346874 102.197945L50.315624 102.197945L50.284374 101.572945ZM54.55 102.197945L53.471874 102.197945L53.471874 95.854195L54.55 95.854195L54.55 102.197945ZM53.378124 94.18232Q53.378124 93.916695 53.534374 93.729195Q53.70625 93.541695 54.01875 93.541695Q54.33125 93.541695 54.4875 93.729195Q54.659374 93.916695 54.659374 94.18232Q54.659374 94.43232 54.4875 94.61982Q54.33125 94.791695 54.01875 94.791695Q53.70625 94.791695 53.534374 94.61982Q53.378124 94.43232 53.378124 94.18232Z" fill-rule="nonzero"/><path fill="#9e9e9e" d="M24.846874 120.197945L19.253124 120.197945L19.253124 119.416695L22.20625 116.135445Q22.8625 115.385445 23.1125 114.93232Q23.3625 114.46357 23.3625 113.96357Q23.3625 113.291695 22.95625 112.86982Q22.565624 112.43232 21.878124 112.43232Q21.08125 112.43232 20.628124 112.90107Q20.175 113.354195 20.175 114.18232L19.096874 114.18232Q19.096874 112.99482 19.846874 112.27607Q20.6125 111.541695 21.878124 111.541695Q23.08125 111.541695 23.76875 112.166695Q24.45625 112.791695 24.45625 113.83857Q24.45625 115.08857 22.846874 116.83857L20.565624 119.30732L24.846874 119.30732L24.846874 120.197945ZM26.753124 115.916695L27.190624 111.666695L31.565624 111.666695L31.565624 112.666695L28.1125 112.666695L27.846874 114.99482Q28.4875 114.61982 29.284374 114.61982Q30.440624 114.61982 31.128124 115.40107Q31.815624 116.166695 31.815624 117.479195Q31.815624 118.791695 31.096874 119.55732Q30.39375 120.322945 29.1125 120.322945Q27.9875 120.322945 27.26875 119.697945Q26.55 119.05732 26.45625 117.947945L27.471874 117.947945Q27.58125 118.68232 28.003124 119.05732Q28.425 119.43232 29.1125 119.43232Q29.8625 119.43232 30.3 118.916695Q30.7375 118.40107 30.7375 117.49482Q30.7375 116.635445 30.26875 116.11982Q29.8 115.604195 29.01875 115.604195Q28.315624 115.604195 27.909374 115.90107L27.628124 116.135445L26.753124 115.916695ZM33.33125 121.90107L32.721874 121.479195Q33.26875 120.71357 33.3 119.885445L33.3 118.916695L34.3625 118.916695L34.3625 119.760445Q34.3625 120.354195 34.065624 120.947945Q33.76875 121.541695 33.33125 121.90107ZM39.409374 116.447945Q39.08125 116.854195 38.596874 117.104195Q38.128124 117.33857 37.565624 117.33857Q36.83125 117.33857 36.284374 116.979195Q35.7375 116.61982 35.440624 115.96357Q35.14375 115.291695 35.14375 114.49482Q35.14375 113.65107 35.45625 112.96357Q35.784374 112.27607 36.378124 111.916695Q36.9875 111.541695 37.784374 111.541695Q39.05 111.541695 39.76875 112.49482Q40.503124 113.447945 40.503124 115.072945L40.503124 115.385445Q40.503124 117.885445 39.51875 119.02607Q38.534374 120.166695 36.55 120.197945L36.33125 120.197945L36.33125 119.291695L36.565624 119.291695Q37.909374 119.260445 38.628124 118.58857Q39.346874 117.916695 39.409374 116.447945ZM37.7375 116.447945Q38.284374 116.447945 38.7375 116.11982Q39.20625 115.77607 39.425 115.291695L39.425 114.854195Q39.425 113.791695 38.95625 113.11982Q38.4875 112.447945 37.784374 112.447945Q37.065624 112.447945 36.628124 112.99482Q36.20625 113.541695 36.20625 114.447945Q36.20625 115.322945 36.6125 115.885445Q37.034374 116.447945 37.7375 116.447945ZM42.159374 113.30732Q42.159374 112.541695 42.64375 112.041695Q43.14375 111.541695 43.909374 111.541695Q44.690624 111.541695 45.175 112.041695Q45.659374 112.541695 45.659374 113.33857L45.659374 113.760445Q45.659374 114.52607 45.159374 115.02607Q44.675 115.510445 43.925 115.510445Q43.159374 115.510445 42.659374 115.02607Q42.159374 114.52607 42.159374 113.71357L42.159374 113.30732ZM42.971874 113.760445Q42.971874 114.21357 43.221874 114.510445Q43.4875 114.80732 43.925 114.80732Q44.346874 114.80732 44.596874 114.52607Q44.846874 114.229195 44.846874 113.729195L44.846874 113.30732Q44.846874 112.854195 44.596874 112.55732Q44.346874 112.24482 43.909374 112.24482Q43.471874 112.24482 43.221874 112.55732Q42.971874 112.854195 42.971874 113.322945L42.971874 113.760445ZM46.315624 118.104195Q46.315624 117.33857 46.8 116.854195Q47.3 116.354195 48.065624 116.354195Q48.83125 116.354195 49.315624 116.854195Q49.815624 117.33857 49.815624 118.15107L49.815624 118.55732Q49.815624 119.322945 49.33125 119.822945Q48.846874 120.322945 48.08125 120.322945Q47.315624 120.322945 46.815624 119.83857Q46.315624 119.33857 46.315624 118.52607L46.315624 118.104195ZM47.128124 118.55732Q47.128124 119.02607 47.378124 119.322945Q47.64375 119.61982 48.08125 119.61982Q48.503124 119.61982 48.753124 119.33857Q49.003124 119.041695 49.003124 118.541695L49.003124 118.104195Q49.003124 117.635445 48.7375 117.354195Q48.4875 117.05732 48.065624 117.05732Q47.64375 117.05732 47.378124 117.354195Q47.128124 117.635445 47.128124 118.135445L47.128124 118.55732ZM44.175 119.55732L43.55 119.166695L47.721874 112.49482L48.33125 112.885445L44.175 119.55732Z" fill-rule="nonzero"/><path stroke="#757575" stroke-width="1.0" stroke-linecap="butt" d="M18.55 106.697945L145.23334 106.697945L197.20149 106.697945" fill-rule="nonzero"/><path fill="#9e9e9e" d="M199.20149 106.697945C199.20149 105.593376 198.30606 104.697945 197.20149 104.697945C196.09692 104.697945 195.20149 105.593376 195.20149 106.697945C195.20149 107.80251 196.09692 108.697945 197.20149 108.697945C198.30606 108.697945 199.20149 107.80251 199.20149 106.697945" fill-rule="nonzero"/><path fill="#434343" d="M526.9969 296.16873L525.8719 296.16873L521.575 289.5906L521.575 296.16873L520.4344 296.16873L520.4344 287.63748L521.575 287.63748L525.8719 294.24686L525.8719 287.63748L526.9969 287.63748L526.9969 296.16873ZM533.1844 296.16873Q533.09064 295.98123 533.02814 295.49686Q532.27814 296.29373 531.23126 296.29373Q530.29376 296.29373 529.6844 295.76248Q529.09064 295.23123 529.09064 294.4031Q529.09064 293.41873 529.84064 292.87186Q530.59064 292.32498 531.96564 292.32498L533.0125 292.32498L533.0125 291.82498Q533.0125 291.26248 532.66876 290.93436Q532.34064 290.5906 531.66876 290.5906Q531.09064 290.5906 530.7 290.88748Q530.3094 291.16873 530.3094 291.5906L529.21564 291.5906Q529.21564 291.10623 529.54376 290.66873Q529.8875 290.23123 530.46564 289.98123Q531.04376 289.7156 531.73126 289.7156Q532.84064 289.7156 533.45 290.26248Q534.075 290.80936 534.10626 291.76248L534.10626 294.68436Q534.10626 295.55936 534.325 296.07498L534.325 296.16873L533.1844 296.16873ZM531.3875 295.3406Q531.90314 295.3406 532.35626 295.07498Q532.8094 294.80936 533.0125 294.38748L533.0125 293.0906L532.16876 293.0906Q530.16876 293.0906 530.16876 294.26248Q530.16876 294.76248 530.5125 295.05936Q530.85626 295.3406 531.3875 295.3406ZM533.9344 287.3406Q533.9344 287.98123 533.575 288.37186Q533.21564 288.76248 532.6844 288.76248Q532.4344 288.76248 532.2625 288.7156Q532.09064 288.6531 531.79376 288.4656Q531.5125 288.2781 531.3875 288.24686Q531.2625 288.2156 531.10626 288.2156Q530.85626 288.2156 530.6844 288.4031Q530.52814 288.57498 530.52814 288.87186L529.79376 288.82498Q529.79376 288.19998 530.15314 287.79373Q530.5125 287.37186 531.04376 287.37186Q531.2625 287.37186 531.41876 287.43436Q531.59064 287.49686 531.8719 287.66873Q532.15314 287.8406 532.29376 287.88748Q532.45 287.93436 532.6219 287.93436Q532.8719 287.93436 533.04376 287.74686Q533.21564 287.54373 533.21564 287.2781L533.9344 287.3406ZM535.98126 292.93436Q535.98126 292.01248 536.34064 291.26248Q536.71564 290.51248 537.3719 290.12186Q538.02814 289.7156 538.85626 289.7156Q540.15314 289.7156 540.95 290.60623Q541.7625 291.49686 541.7625 292.99686L541.7625 293.07498Q541.7625 293.99686 541.40314 294.73123Q541.04376 295.4656 540.3875 295.88748Q539.73126 296.29373 538.8719 296.29373Q537.59064 296.29373 536.77814 295.4031Q535.98126 294.49686 535.98126 293.01248L535.98126 292.93436ZM537.075 293.07498Q537.075 294.12186 537.5594 294.76248Q538.0594 295.4031 538.8719 295.4031Q539.7 295.4031 540.1844 294.76248Q540.66876 294.10623 540.66876 292.93436Q540.66876 291.9031 540.16876 291.26248Q539.6844 290.60623 538.85626 290.60623Q538.0594 290.60623 537.5594 291.24686Q537.075 291.87186 537.075 293.07498ZM551.6219 293.07498Q551.6219 294.51248 550.96564 295.4031Q550.3094 296.29373 549.16876 296.29373Q548.0125 296.29373 547.35626 295.55936L547.35626 298.60623L546.27814 298.60623L546.27814 289.82498L547.2625 289.82498L547.3094 290.5281Q547.98126 289.7156 549.15314 289.7156Q550.29376 289.7156 550.95 290.57498Q551.6219 291.43436 551.6219 292.9656L551.6219 293.07498ZM550.54376 292.94998Q550.54376 291.87186 550.075 291.26248Q549.6219 290.63748 548.825 290.63748Q547.84064 290.63748 547.35626 291.49686L547.35626 294.5281Q547.84064 295.4031 548.84064 295.4031Q549.6219 295.4031 550.075 294.79373Q550.54376 294.16873 550.54376 292.94998ZM552.98126 292.93436Q552.98126 292.01248 553.34064 291.26248Q553.71564 290.51248 554.3719 290.12186Q555.02814 289.7156 555.85626 289.7156Q557.15314 289.7156 557.95 290.60623Q558.7625 291.49686 558.7625 292.99686L558.7625 293.07498Q558.7625 293.99686 558.40314 294.73123Q558.04376 295.4656 557.3875 295.88748Q556.73126 296.29373 555.8719 296.29373Q554.59064 296.29373 553.77814 295.4031Q552.98126 294.49686 552.98126 293.01248L552.98126 292.93436ZM554.075 293.07498Q554.075 294.12186 554.5594 294.76248Q555.0594 295.4031 555.8719 295.4031Q556.7 295.4031 557.1844 294.76248Q557.66876 294.10623 557.66876 292.93436Q557.66876 291.9031 557.16876 291.26248Q556.6844 290.60623 555.85626 290.60623Q555.0594 290.60623 554.5594 291.24686Q554.075 291.87186 554.075 293.07498ZM563.96564 294.48123Q563.96564 294.04373 563.6219 293.80936Q563.29376 293.55936 562.46564 293.38748Q561.65314 293.2156 561.16876 292.9656Q560.6844 292.7156 560.45 292.38748Q560.23126 292.04373 560.23126 291.57498Q560.23126 290.79373 560.8875 290.26248Q561.54376 289.7156 562.575 289.7156Q563.65314 289.7156 564.3094 290.2781Q564.98126 290.82498 564.98126 291.68436L563.90314 291.68436Q563.90314 291.24686 563.5125 290.93436Q563.1375 290.60623 562.575 290.60623Q561.98126 290.60623 561.6375 290.87186Q561.3094 291.12186 561.3094 291.5281Q561.3094 291.91873 561.6219 292.12186Q561.9344 292.32498 562.7469 292.51248Q563.5594 292.68436 564.0594 292.93436Q564.5594 293.18436 564.79376 293.54373Q565.04376 293.9031 565.04376 294.4031Q565.04376 295.26248 564.35626 295.7781Q563.6844 296.29373 562.60626 296.29373Q561.84064 296.29373 561.2469 296.0281Q560.66876 295.74686 560.34064 295.26248Q560.0125 294.7781 560.0125 294.2156L561.09064 294.2156Q561.1219 294.76248 561.52814 295.0906Q561.9344 295.4031 562.60626 295.4031Q563.21564 295.4031 563.59064 295.1531Q563.96564 294.9031 563.96564 294.48123ZM569.96564 294.48123Q569.96564 294.04373 569.6219 293.80936Q569.29376 293.55936 568.46564 293.38748Q567.65314 293.2156 567.16876 292.9656Q566.6844 292.7156 566.45 292.38748Q566.23126 292.04373 566.23126 291.57498Q566.23126 290.79373 566.8875 290.26248Q567.54376 289.7156 568.575 289.7156Q569.65314 289.7156 570.3094 290.2781Q570.98126 290.82498 570.98126 291.68436L569.90314 291.68436Q569.90314 291.24686 569.5125 290.93436Q569.1375 290.60623 568.575 290.60623Q567.98126 290.60623 567.6375 290.87186Q567.3094 291.12186 567.3094 291.5281Q567.3094 291.91873 567.6219 292.12186Q567.9344 292.32498 568.7469 292.51248Q569.5594 292.68436 570.0594 292.93436Q570.5594 293.18436 570.79376 293.54373Q571.04376 293.9031 571.04376 294.4031Q571.04376 295.26248 570.35626 295.7781Q569.6844 296.29373 568.60626 296.29373Q567.84064 296.29373 567.2469 296.0281Q566.66876 295.74686 566.34064 295.26248Q566.0125 294.7781 566.0125 294.2156L567.09064 294.2156Q567.1219 294.76248 567.52814 295.0906Q567.9344 295.4031 568.60626 295.4031Q569.21564 295.4031 569.59064 295.1531Q569.96564 294.9031 569.96564 294.48123ZM576.1844 295.54373Q575.5594 296.29373 574.325 296.29373Q573.3094 296.29373 572.77814 295.69998Q572.2469 295.10623 572.2469 293.94998L572.2469 289.82498L573.325 289.82498L573.325 293.91873Q573.325 295.37186 574.4969 295.37186Q575.7469 295.37186 576.15314 294.43436L576.15314 289.82498L577.2469 289.82498L577.2469 296.16873L576.21564 296.16873L576.1844 295.54373ZM580.45 296.16873L579.3719 296.16873L579.3719 289.82498L580.45 289.82498L580.45 296.16873ZM579.27814 288.1531Q579.27814 287.88748 579.4344 287.69998Q579.60626 287.51248 579.91876 287.51248Q580.23126 287.51248 580.3875 287.69998Q580.5594 287.88748 580.5594 288.1531Q580.5594 288.4031 580.3875 288.5906Q580.23126 288.76248 579.91876 288.76248Q579.60626 288.76248 579.4344 288.5906Q579.27814 288.4031 579.27814 288.1531Z" fill-rule="nonzero"/><path fill="#9e9e9e" d="M555.66876 306.24686L552.1375 314.16873L550.9969 314.16873L554.5125 306.5281L549.90314 306.5281L549.90314 305.63748L555.66876 305.63748L555.66876 306.24686ZM561.73126 311.30936L562.91876 311.30936L562.91876 312.18436L561.73126 312.18436L561.73126 314.16873L560.65314 314.16873L560.65314 312.18436L556.7625 312.18436L556.7625 311.54373L560.575 305.63748L561.73126 305.63748L561.73126 311.30936ZM557.9969 311.30936L560.65314 311.30936L560.65314 307.12186L560.5125 307.35623L557.9969 311.30936ZM564.23126 315.87186L563.6219 315.44998Q564.16876 314.68436 564.2 313.85623L564.2 312.88748L565.2625 312.88748L565.2625 313.73123Q565.2625 314.32498 564.96564 314.91873Q564.66876 315.51248 564.23126 315.87186ZM569.71564 314.16873L568.6375 314.16873L568.6375 306.94998L566.45 307.74686L566.45 306.76248L569.5594 305.5906L569.71564 305.5906L569.71564 314.16873ZM573.0594 307.2781Q573.0594 306.51248 573.54376 306.01248Q574.04376 305.51248 574.8094 305.51248Q575.59064 305.51248 576.075 306.01248Q576.5594 306.51248 576.5594 307.30936L576.5594 307.73123Q576.5594 308.49686 576.0594 308.99686Q575.575 309.48123 574.825 309.48123Q574.0594 309.48123 573.5594 308.99686Q573.0594 308.49686 573.0594 307.68436L573.0594 307.2781ZM573.8719 307.73123Q573.8719 308.18436 574.1219 308.48123Q574.3875 308.7781 574.825 308.7781Q575.2469 308.7781 575.4969 308.49686Q575.7469 308.19998 575.7469 307.69998L575.7469 307.2781Q575.7469 306.82498 575.4969 306.5281Q575.2469 306.2156 574.8094 306.2156Q574.3719 306.2156 574.1219 306.5281Q573.8719 306.82498 573.8719 307.29373L573.8719 307.73123ZM577.21564 312.07498Q577.21564 311.30936 577.7 310.82498Q578.2 310.32498 578.96564 310.32498Q579.73126 310.32498 580.21564 310.82498Q580.71564 311.30936 580.71564 312.12186L580.71564 312.5281Q580.71564 313.29373 580.23126 313.79373Q579.7469 314.29373 578.98126 314.29373Q578.21564 314.29373 577.71564 313.80936Q577.21564 313.30936 577.21564 312.49686L577.21564 312.07498ZM578.02814 312.5281Q578.02814 312.99686 578.27814 313.29373Q578.54376 313.5906 578.98126 313.5906Q579.40314 313.5906 579.65314 313.30936Q579.90314 313.01248 579.90314 312.51248L579.90314 312.07498Q579.90314 311.60623 579.6375 311.32498Q579.3875 311.0281 578.96564 311.0281Q578.54376 311.0281 578.27814 311.32498Q578.02814 311.60623 578.02814 312.10623L578.02814 312.5281ZM575.075 313.5281L574.45 313.13748L578.6219 306.4656L579.23126 306.85623L575.075 313.5281Z" fill-rule="nonzero"/><path stroke="#757575" stroke-width="1.0" stroke-linecap="butt" d="M581.45 300.66873L454.76666 300.66873L402.7985 300.66873" fill-rule="nonzero"/><path fill="#9e9e9e" d="M404.7985 300.66873C404.7985 299.56415 403.90308 298.66873 402.7985 298.66873C401.69394 298.66873 400.7985 299.56415 400.7985 300.66873C400.7985 301.7733 401.69394 302.66873 402.7985 302.66873C403.90308 302.66873 404.7985 301.7733 404.7985 300.66873" fill-rule="nonzero"/><path fill="#2e2e2e" d="M20.20625 37.55L20.20625 23.33125L24.221874 23.33125Q26.065624 23.33125 27.4875 24.159374Q28.925 24.971874 29.690624 26.4875Q30.471874 28.003124 30.4875 29.95625L30.4875 30.8625Q30.4875 32.878124 29.70625 34.39375Q28.925 35.909374 27.4875 36.721874Q26.05 37.534374 24.14375 37.55L20.20625 37.55ZM22.08125 24.878124L22.08125 36.01875L24.05 36.01875Q26.221874 36.01875 27.425 34.675Q28.628124 33.315624 28.628124 30.83125L28.628124 30.003124Q28.628124 27.58125 27.4875 26.2375Q26.346874 24.89375 24.26875 24.878124L22.08125 24.878124ZM37.3 37.753124Q35.159374 37.753124 33.8 36.346874Q32.45625 34.925 32.45625 32.565624L32.45625 32.221874Q32.45625 30.659374 33.05 29.425Q33.659374 28.190624 34.7375 27.4875Q35.815624 26.784374 37.08125 26.784374Q39.14375 26.784374 40.284374 28.14375Q41.425 29.503124 41.425 32.034374L41.425 32.784374L34.26875 32.784374Q34.3 34.346874 35.175 35.315624Q36.05 36.26875 37.39375 36.26875Q38.3625 36.26875 39.01875 35.878124Q39.690624 35.4875 40.190624 34.846874L41.284374 35.70625Q39.95625 37.753124 37.3 37.753124ZM37.08125 28.26875Q35.9875 28.26875 35.2375 29.065624Q34.503124 29.8625 34.33125 31.3L39.6125 31.3L39.6125 31.159374Q39.534374 29.784374 38.8625 29.034374Q38.20625 28.26875 37.08125 28.26875ZM50.065624 34.753124Q50.065624 34.01875 49.51875 33.6125Q48.971874 33.20625 47.596874 32.909374Q46.221874 32.6125 45.409374 32.20625Q44.6125 31.8 44.221874 31.2375Q43.846874 30.659374 43.846874 29.878124Q43.846874 28.58125 44.940624 27.690624Q46.034374 26.784374 47.753124 26.784374Q49.55 26.784374 50.659374 27.721874Q51.784374 28.64375 51.784374 30.08125L49.95625 30.08125Q49.95625 29.346874 49.33125 28.815624Q48.70625 28.26875 47.753124 28.26875Q46.753124 28.26875 46.190624 28.70625Q45.64375 29.128124 45.64375 29.83125Q45.64375 30.471874 46.159374 30.815624Q46.675 31.14375 48.034374 31.45625Q49.39375 31.753124 50.221874 32.175Q51.065624 32.58125 51.471874 33.175Q51.878124 33.76875 51.878124 34.6125Q51.878124 36.034374 50.7375 36.89375Q49.6125 37.753124 47.8 37.753124Q46.534374 37.753124 45.55 37.3Q44.58125 36.846874 44.01875 36.05Q43.471874 35.2375 43.471874 34.3L45.284374 34.3Q45.33125 35.20625 46.003124 35.7375Q46.690624 36.26875 47.8 36.26875Q48.83125 36.26875 49.440624 35.8625Q50.065624 35.440624 50.065624 34.753124ZM58.159374 36.26875Q59.128124 36.26875 59.846874 35.690624Q60.565624 35.096874 60.64375 34.221874L62.3625 34.221874Q62.3 35.128124 61.721874 35.95625Q61.159374 36.76875 60.190624 37.26875Q59.2375 37.753124 58.159374 37.753124Q56.003124 37.753124 54.721874 36.315624Q53.45625 34.8625 53.45625 32.3625L53.45625 32.065624Q53.45625 30.51875 54.01875 29.315624Q54.58125 28.1125 55.64375 27.45625Q56.70625 26.784374 58.14375 26.784374Q59.925 26.784374 61.096874 27.846874Q62.284374 28.909374 62.3625 30.6125L60.64375 30.6125Q60.565624 29.596874 59.8625 28.940624Q59.175 28.26875 58.14375 28.26875Q56.76875 28.26875 56.003124 29.26875Q55.253124 30.253124 55.253124 32.128124L55.253124 32.471874Q55.253124 34.3 56.003124 35.284374Q56.753124 36.26875 58.159374 36.26875ZM69.01875 28.596874Q68.6125 28.534374 68.14375 28.534374Q66.3625 28.534374 65.72188 30.05L65.72188 37.55L63.925 37.55L63.925 26.9875L65.675 26.9875L65.70625 28.20625Q66.59688 26.784374 68.22188 26.784374Q68.75313 26.784374 69.01875 26.925L69.01875 28.596874ZM72.87813 37.55L71.08125 37.55L71.08125 26.9875L72.87813 26.9875L72.87813 37.55ZM70.925 24.175Q70.925 23.7375 71.19063 23.440624Q71.47188 23.128124 71.9875 23.128124Q72.51875 23.128124 72.78438 23.440624Q73.06563 23.7375 73.06563 24.175Q73.06563 24.6125 72.78438 24.909374Q72.51875 25.20625 71.9875 25.20625Q71.47188 25.20625 71.19063 24.909374Q70.925 24.6125 70.925 24.175ZM80.15938 36.26875Q81.12813 36.26875 81.84688 35.690624Q82.56563 35.096874 82.64375 34.221874L84.3625 34.221874Q84.3 35.128124 83.72188 35.95625Q83.15938 36.76875 82.19063 37.26875Q81.2375 37.753124 80.15938 37.753124Q78.00313 37.753124 76.72188 36.315624Q75.45625 34.8625 75.45625 32.3625L75.45625 32.065624Q75.45625 30.51875 76.01875 29.315624Q76.58125 28.1125 77.64375 27.45625Q78.70625 26.784374 80.14375 26.784374Q81.925 26.784374 83.09688 27.846874Q84.28438 28.909374 84.3625 30.6125L82.64375 30.6125Q82.56563 29.596874 81.8625 28.940624Q81.175 28.26875 80.14375 28.26875Q78.76875 28.26875 78.00313 29.26875Q77.25313 30.253124 77.25313 32.128124L77.25313 32.471874Q77.25313 34.3 78.00313 35.284374Q78.75313 36.26875 80.15938 36.26875ZM80.44063 37.64375L80.33125 38.159374Q81.81563 38.409374 81.81563 39.846874Q81.81563 40.784374 81.03438 41.33125Q80.25313 41.89375 78.8625 41.89375L78.8 40.846874Q79.56563 40.846874 79.9875 40.596874Q80.40938 40.346874 80.40938 39.878124Q80.40938 39.45625 80.09688 39.2375Q79.78438 39.034374 78.83125 38.95625L79.14375 37.64375L80.44063 37.64375ZM92.44063 37.55Q92.28438 37.2375 92.19063 36.440624Q90.925 37.753124 89.175 37.753124Q87.6125 37.753124 86.6125 36.8625Q85.6125 35.971874 85.6125 34.6125Q85.6125 32.971874 86.8625 32.065624Q88.12813 31.14375 90.39375 31.14375L92.15938 31.14375L92.15938 30.315624Q92.15938 29.3625 91.58125 28.8Q91.01875 28.2375 89.925 28.2375Q88.95625 28.2375 88.3 28.7375Q87.64375 29.221874 87.64375 29.909374L85.83125 29.909374Q85.83125 29.128124 86.39375 28.39375Q86.95625 27.64375 87.90938 27.221874Q88.87813 26.784374 90.03438 26.784374Q91.8625 26.784374 92.89375 27.70625Q93.925 28.6125 93.97188 30.221874L93.97188 35.08125Q93.97188 36.534374 94.33125 37.39375L94.33125 37.55L92.44063 37.55ZM89.44063 36.175Q90.3 36.175 91.05 35.7375Q91.81563 35.3 92.15938 34.596874L92.15938 32.425L90.7375 32.425Q87.425 32.425 87.425 34.3625Q87.425 35.221874 87.9875 35.70625Q88.55 36.175 89.44063 36.175ZM93.69063 22.846874Q93.69063 23.909374 93.08125 24.565624Q92.4875 25.221874 91.58125 25.221874Q91.19063 25.221874 90.89375 25.128124Q90.59688 25.01875 90.12813 24.721874Q89.65938 24.409374 89.44063 24.346874Q89.2375 24.284374 88.95625 24.284374Q88.56563 24.284374 88.26875 24.596874Q87.9875 24.909374 87.9875 25.378124L86.78438 25.315624Q86.78438 24.26875 87.37813 23.596874Q87.97188 22.909374 88.87813 22.909374Q89.22188 22.909374 89.4875 23.003124Q89.76875 23.096874 90.2375 23.378124Q90.70625 23.659374 90.94063 23.753124Q91.19063 23.846874 91.50313 23.846874Q91.925 23.846874 92.19063 23.51875Q92.47188 23.175 92.47188 22.7375L93.69063 22.846874ZM96.44063 32.175Q96.44063 30.6125 97.05 29.378124Q97.65938 28.128124 98.7375 27.45625Q99.83125 26.784374 101.2375 26.784374Q103.39375 26.784374 104.72188 28.284374Q106.06563 29.76875 106.06563 32.253124L106.06563 32.378124Q106.06563 33.925 105.47188 35.159374Q104.87813 36.378124 103.76875 37.065624Q102.675 37.753124 101.25313 37.753124Q99.1125 37.753124 97.76875 36.253124Q96.44063 34.753124 96.44063 32.3L96.44063 32.175ZM98.25313 32.378124Q98.25313 34.14375 99.06563 35.20625Q99.89375 36.26875 101.25313 36.26875Q102.62813 36.26875 103.44063 35.190624Q104.25313 34.1125 104.25313 32.175Q104.25313 30.425 103.425 29.346874Q102.59688 28.26875 101.2375 28.26875Q99.89375 28.26875 99.06563 29.33125Q98.25313 30.39375 98.25313 32.378124ZM112.47188 32.175Q112.47188 29.753124 113.62813 28.26875Q114.78438 26.784374 116.64375 26.784374Q118.50313 26.784374 119.58125 28.05L119.58125 22.55L121.39375 22.55L121.39375 37.55L119.7375 37.55L119.64375 36.409374Q118.56563 37.753124 116.62813 37.753124Q114.8 37.753124 113.62813 36.253124Q112.47188 34.7375 112.47188 32.315624L112.47188 32.175ZM114.28438 32.378124Q114.28438 34.175 115.01875 35.190624Q115.76875 36.20625 117.08125 36.20625Q118.8 36.20625 119.58125 34.675L119.58125 29.815624Q118.78438 28.315624 117.09688 28.315624Q115.76875 28.315624 115.01875 29.346874Q114.28438 30.378124 114.28438 32.378124ZM123.44063 32.175Q123.44063 30.6125 124.05 29.378124Q124.65938 28.128124 125.7375 27.45625Q126.83125 26.784374 128.2375 26.784374Q130.39375 26.784374 131.72188 28.284374Q133.06563 29.76875 133.06563 32.253124L133.06563 32.378124Q133.06563 33.925 132.47188 35.159374Q131.87813 36.378124 130.76875 37.065624Q129.675 37.753124 128.25313 37.753124Q126.1125 37.753124 124.76875 36.253124Q123.44063 34.753124 123.44063 32.3L123.44063 32.175ZM125.25313 32.378124Q125.25313 34.14375 126.06563 35.20625Q126.89375 36.26875 128.25313 36.26875Q129.62813 36.26875 130.44063 35.190624Q131.25313 34.1125 131.25313 32.175Q131.25313 30.425 130.425 29.346874Q129.59688 28.26875 128.2375 28.26875Q126.89375 28.26875 126.06563 29.33125Q125.25313 30.39375 125.25313 32.378124ZM148.8625 32.378124Q148.8625 34.8 147.75313 36.284374Q146.64375 37.753124 144.76875 37.753124Q142.75313 37.753124 141.65938 36.33125L141.58125 37.55L139.925 37.55L139.925 22.55L141.72188 22.55L141.72188 28.14375Q142.81563 26.784374 144.7375 26.784374Q146.65938 26.784374 147.75313 28.2375Q148.8625 29.690624 148.8625 32.221874L148.8625 32.378124ZM147.05 32.175Q147.05 30.33125 146.33125 29.33125Q145.62813 28.315624 144.3 28.315624Q142.50313 28.315624 141.72188 29.9875L141.72188 34.55Q142.55 36.20625 144.31563 36.20625Q145.6125 36.20625 146.33125 35.20625Q147.05 34.20625 147.05 32.175ZM155.3 37.753124Q153.15938 37.753124 151.8 36.346874Q150.45625 34.925 150.45625 32.565624L150.45625 32.221874Q150.45625 30.659374 151.05 29.425Q151.65938 28.190624 152.7375 27.4875Q153.81563 26.784374 155.08125 26.784374Q157.14375 26.784374 158.28438 28.14375Q159.425 29.503124 159.425 32.034374L159.425 32.784374L152.26875 32.784374Q152.3 34.346874 153.175 35.315624Q154.05 36.26875 155.39375 36.26875Q156.3625 36.26875 157.01875 35.878124Q157.69063 35.4875 158.19063 34.846874L159.28438 35.70625Q157.95625 37.753124 155.3 37.753124ZM155.08125 28.26875Q153.9875 28.26875 153.2375 29.065624Q152.50313 29.8625 152.33125 31.3L157.6125 31.3L157.6125 31.159374Q157.53438 29.784374 156.8625 29.034374Q156.20625 28.26875 155.08125 28.26875ZM163.6125 26.9875L163.65938 28.159374Q164.83125 26.784374 166.8 26.784374Q169.01875 26.784374 169.81563 28.4875Q170.34688 27.721874 171.19063 27.253124Q172.03438 26.784374 173.19063 26.784374Q176.65938 26.784374 176.72188 30.471874L176.72188 37.55L174.90938 37.55L174.90938 30.58125Q174.90938 29.440624 174.39375 28.878124Q173.87813 28.315624 172.65938 28.315624Q171.65938 28.315624 170.9875 28.925Q170.33125 29.51875 170.22188 30.534374L170.22188 37.55L168.40938 37.55L168.40938 30.628124Q168.40938 28.315624 166.14375 28.315624Q164.3625 28.315624 163.72188 29.83125L163.72188 37.55L161.90938 37.55L161.90938 26.9875L163.6125 26.9875ZM185.8 37.55L185.8 28.378124L184.14375 28.378124L184.14375 26.9875L185.8 26.9875L185.8 25.89375Q185.8 24.20625 186.70625 23.284374Q187.62813 22.346874 189.28438 22.346874Q189.90938 22.346874 190.51875 22.503124L190.425 23.971874Q189.97188 23.89375 189.45625 23.89375Q188.56563 23.89375 188.08125 24.409374Q187.6125 24.909374 187.6125 25.8625L187.6125 26.9875L189.8625 26.9875L189.8625 28.378124L187.6125 28.378124L187.6125 37.55L185.8 37.55ZM191.44063 32.175Q191.44063 30.6125 192.05 29.378124Q192.65938 28.128124 193.7375 27.45625Q194.83125 26.784374 196.2375 26.784374Q198.39375 26.784374 199.72188 28.284374Q201.06563 29.76875 201.06563 32.253124L201.06563 32.378124Q201.06563 33.925 200.47188 35.159374Q199.87813 36.378124 198.76875 37.065624Q197.675 37.753124 196.25313 37.753124Q194.1125 37.753124 192.76875 36.253124Q191.44063 34.753124 191.44063 32.3L191.44063 32.175ZM193.25313 32.378124Q193.25313 34.14375 194.06563 35.20625Q194.89375 36.26875 196.25313 36.26875Q197.62813 36.26875 198.44063 35.190624Q199.25313 34.1125 199.25313 32.175Q199.25313 30.425 198.425 29.346874Q197.59688 28.26875 196.2375 28.26875Q194.89375 28.26875 194.06563 29.33125Q193.25313 30.39375 193.25313 32.378124ZM208.01875 28.596874Q207.6125 28.534374 207.14375 28.534374Q205.3625 28.534374 204.72188 30.05L204.72188 37.55L202.925 37.55L202.925 26.9875L204.675 26.9875L204.70625 28.20625Q205.59688 26.784374 207.22188 26.784374Q207.75313 26.784374 208.01875 26.925L208.01875 28.596874ZM211.62813 26.9875L211.69063 28.315624Q212.89375 26.784374 214.84688 26.784374Q218.20625 26.784374 218.22188 30.565624L218.22188 37.55L216.425 37.55L216.425 30.55Q216.40938 29.409374 215.89375 28.8625Q215.39375 28.315624 214.3 28.315624Q213.425 28.315624 212.75313 28.784374Q212.09688 29.253124 211.72188 30.01875L211.72188 37.55L209.925 37.55L209.925 26.9875L211.62813 26.9875ZM225.3 37.753124Q223.15938 37.753124 221.8 36.346874Q220.45625 34.925 220.45625 32.565624L220.45625 32.221874Q220.45625 30.659374 221.05 29.425Q221.65938 28.190624 222.7375 27.4875Q223.81563 26.784374 225.08125 26.784374Q227.14375 26.784374 228.28438 28.14375Q229.425 29.503124 229.425 32.034374L229.425 32.784374L222.26875 32.784374Q222.3 34.346874 223.175 35.315624Q224.05 36.26875 225.39375 36.26875Q226.3625 36.26875 227.01875 35.878124Q227.69063 35.4875 228.19063 34.846874L229.28438 35.70625Q227.95625 37.753124 225.3 37.753124ZM225.08125 28.26875Q223.9875 28.26875 223.2375 29.065624Q222.50313 29.8625 222.33125 31.3L227.6125 31.3L227.6125 31.159374Q227.53438 29.784374 226.8625 29.034374Q226.20625 28.26875 225.08125 28.26875ZM236.15938 36.26875Q237.12813 36.26875 237.84688 35.690624Q238.56563 35.096874 238.64375 34.221874L240.3625 34.221874Q240.3 35.128124 239.72188 35.95625Q239.15938 36.76875 238.19063 37.26875Q237.2375 37.753124 236.15938 37.753124Q234.00313 37.753124 232.72188 36.315624Q231.45625 34.8625 231.45625 32.3625L231.45625 32.065624Q231.45625 30.51875 232.01875 29.315624Q232.58125 28.1125 233.64375 27.45625Q234.70625 26.784374 236.14375 26.784374Q237.925 26.784374 239.09688 27.846874Q240.28438 28.909374 240.3625 30.6125L238.64375 30.6125Q238.56563 29.596874 237.8625 28.940624Q237.175 28.26875 236.14375 28.26875Q234.76875 28.26875 234.00313 29.26875Q233.25313 30.253124 233.25313 32.128124L233.25313 32.471874Q233.25313 34.3 234.00313 35.284374Q234.75313 36.26875 236.15938 36.26875ZM243.87813 37.55L242.08125 37.55L242.08125 26.9875L243.87813 26.9875L243.87813 37.55ZM241.925 24.175Q241.925 23.7375 242.19063 23.440624Q242.47188 23.128124 242.9875 23.128124Q243.51875 23.128124 243.78438 23.440624Q244.06563 23.7375 244.06563 24.175Q244.06563 24.6125 243.78438 24.909374Q243.51875 25.20625 242.9875 25.20625Q242.47188 25.20625 242.19063 24.909374Q241.925 24.6125 241.925 24.175ZM246.47188 32.175Q246.47188 29.753124 247.62813 28.26875Q248.78438 26.784374 250.64375 26.784374Q252.50313 26.784374 253.58125 28.05L253.58125 22.55L255.39375 22.55L255.39375 37.55L253.7375 37.55L253.64375 36.409374Q252.56563 37.753124 250.62813 37.753124Q248.8 37.753124 247.62813 36.253124Q246.47188 34.7375 246.47188 32.315624L246.47188 32.175ZM248.28438 32.378124Q248.28438 34.175 249.01875 35.190624Q249.76875 36.20625 251.08125 36.20625Q252.8 36.20625 253.58125 34.675L253.58125 29.815624Q252.78438 28.315624 251.09688 28.315624Q249.76875 28.315624 249.01875 29.346874Q248.28438 30.378124 248.28438 32.378124ZM257.4406 32.175Q257.4406 30.6125 258.05 29.378124Q258.65936 28.128124 259.7375 27.45625Q260.83124 26.784374 262.2375 26.784374Q264.39374 26.784374 265.72186 28.284374Q267.0656 29.76875 267.0656 32.253124L267.0656 32.378124Q267.0656 33.925 266.47186 35.159374Q265.8781 36.378124 264.76874 37.065624Q263.675 37.753124 262.2531 37.753124Q260.1125 37.753124 258.76874 36.253124Q257.4406 34.753124 257.4406 32.3L257.4406 32.175ZM259.2531 32.378124Q259.2531 34.14375 260.0656 35.20625Q260.89374 36.26875 262.2531 36.26875Q263.6281 36.26875 264.4406 35.190624Q265.2531 34.1125 265.2531 32.175Q265.2531 30.425 264.425 29.346874Q263.59686 28.26875 262.2375 28.26875Q260.89374 28.26875 260.0656 29.33125Q259.2531 30.39375 259.2531 32.378124ZM273.4406 32.175Q273.4406 30.6125 274.05 29.378124Q274.65936 28.128124 275.7375 27.45625Q276.83124 26.784374 278.2375 26.784374Q280.39374 26.784374 281.72186 28.284374Q283.0656 29.76875 283.0656 32.253124L283.0656 32.378124Q283.0656 33.925 282.47186 35.159374Q281.8781 36.378124 280.76874 37.065624Q279.675 37.753124 278.2531 37.753124Q276.1125 37.753124 274.76874 36.253124Q273.4406 34.753124 273.4406 32.3L273.4406 32.175ZM275.2531 32.378124Q275.2531 34.14375 276.0656 35.20625Q276.89374 36.26875 278.2531 36.26875Q279.6281 36.26875 280.4406 35.190624Q281.2531 34.1125 281.2531 32.175Q281.2531 30.425 280.425 29.346874Q279.59686 28.26875 278.2375 28.26875Q276.89374 28.26875 276.0656 29.33125Q275.2531 30.39375 275.2531 32.378124ZM291.4406 36.503124Q290.39374 37.753124 288.34686 37.753124Q286.65936 37.753124 285.76874 36.76875Q284.89374 35.784374 284.8781 33.8625L284.8781 26.9875L286.6906 26.9875L286.6906 33.815624Q286.6906 36.20625 288.64374 36.20625Q290.70624 36.20625 291.39374 34.675L291.39374 26.9875L293.20624 26.9875L293.20624 37.55L291.4875 37.55L291.4406 36.503124ZM307.0656 34.753124Q307.0656 34.01875 306.51874 33.6125Q305.97186 33.20625 304.59686 32.909374Q303.22186 32.6125 302.40936 32.20625Q301.6125 31.8 301.22186 31.2375Q300.84686 30.659374 300.84686 29.878124Q300.84686 28.58125 301.9406 27.690624Q303.03436 26.784374 304.7531 26.784374Q306.55 26.784374 307.65936 27.721874Q308.78436 28.64375 308.78436 30.08125L306.95624 30.08125Q306.95624 29.346874 306.33124 28.815624Q305.70624 28.26875 304.7531 28.26875Q303.7531 28.26875 303.1906 28.70625Q302.64374 29.128124 302.64374 29.83125Q302.64374 30.471874 303.15936 30.815624Q303.675 31.14375 305.03436 31.45625Q306.39374 31.753124 307.22186 32.175Q308.0656 32.58125 308.47186 33.175Q308.8781 33.76875 308.8781 34.6125Q308.8781 36.034374 307.7375 36.89375Q306.6125 37.753124 304.8 37.753124Q303.53436 37.753124 302.55 37.3Q301.58124 36.846874 301.01874 36.05Q300.47186 35.2375 300.47186 34.3L302.28436 34.3Q302.33124 35.20625 303.0031 35.7375Q303.6906 36.26875 304.8 36.26875Q305.83124 36.26875 306.4406 35.8625Q307.0656 35.440624 307.0656 34.753124ZM315.3 37.753124Q313.15936 37.753124 311.8 36.346874Q310.45624 34.925 310.45624 32.565624L310.45624 32.221874Q310.45624 30.659374 311.05 29.425Q311.65936 28.190624 312.7375 27.4875Q313.8156 26.784374 315.08124 26.784374Q317.14374 26.784374 318.28436 28.14375Q319.425 29.503124 319.425 32.034374L319.425 32.784374L312.26874 32.784374Q312.3 34.346874 313.175 35.315624Q314.05 36.26875 315.39374 36.26875Q316.3625 36.26875 317.01874 35.878124Q317.6906 35.4875 318.1906 34.846874L319.28436 35.70625Q317.95624 37.753124 315.3 37.753124ZM315.08124 28.26875Q313.9875 28.26875 313.2375 29.065624Q312.5031 29.8625 312.33124 31.3L317.6125 31.3L317.6125 31.159374Q317.53436 29.784374 316.8625 29.034374Q316.20624 28.26875 315.08124 28.26875ZM327.01874 28.596874Q326.6125 28.534374 326.14374 28.534374Q324.3625 28.534374 323.72186 30.05L323.72186 37.55L321.925 37.55L321.925 26.9875L323.675 26.9875L323.70624 28.20625Q324.59686 26.784374 326.22186 26.784374Q326.7531 26.784374 327.01874 26.925L327.01874 28.596874ZM332.40936 35.096874L335.01874 26.9875L336.8625 26.9875L333.08124 37.55L331.70624 37.55L327.8781 26.9875L329.72186 26.9875L332.40936 35.096874ZM340.8781 37.55L339.08124 37.55L339.08124 26.9875L340.8781 26.9875L340.8781 37.55ZM338.925 24.175Q338.925 23.7375 339.1906 23.440624Q339.47186 23.128124 339.9875 23.128124Q340.51874 23.128124 340.78436 23.440624Q341.0656 23.7375 341.0656 24.175Q341.0656 24.6125 340.78436 24.909374Q340.51874 25.20625 339.9875 25.20625Q339.47186 25.20625 339.1906 24.909374Q338.925 24.6125 338.925 24.175ZM348.15936 36.26875Q349.1281 36.26875 349.84686 35.690624Q350.5656 35.096874 350.64374 34.221874L352.3625 34.221874Q352.3 35.128124 351.72186 35.95625Q351.15936 36.76875 350.1906 37.26875Q349.2375 37.753124 348.15936 37.753124Q346.0031 37.753124 344.72186 36.315624Q343.45624 34.8625 343.45624 32.3625L343.45624 32.065624Q343.45624 30.51875 344.01874 29.315624Q344.58124 28.1125 345.64374 27.45625Q346.70624 26.784374 348.14374 26.784374Q349.925 26.784374 351.09686 27.846874Q352.28436 28.909374 352.3625 30.6125L350.64374 30.6125Q350.5656 29.596874 349.8625 28.940624Q349.175 28.26875 348.14374 28.26875Q346.76874 28.26875 346.0031 29.26875Q345.2531 30.253124 345.2531 32.128124L345.2531 32.471874Q345.2531 34.3 346.0031 35.284374Q346.7531 36.26875 348.15936 36.26875ZM348.4406 37.64375L348.33124 38.159374Q349.8156 38.409374 349.8156 39.846874Q349.8156 40.784374 349.03436 41.33125Q348.2531 41.89375 346.8625 41.89375L346.8 40.846874Q347.5656 40.846874 347.9875 40.596874Q348.40936 40.346874 348.40936 39.878124Q348.40936 39.45625 348.09686 39.2375Q347.78436 39.034374 346.83124 38.95625L347.14374 37.64375L348.4406 37.64375ZM353.4406 32.175Q353.4406 30.6125 354.05 29.378124Q354.65936 28.128124 355.7375 27.45625Q356.83124 26.784374 358.2375 26.784374Q360.39374 26.784374 361.72186 28.284374Q363.0656 29.76875 363.0656 32.253124L363.0656 32.378124Q363.0656 33.925 362.47186 35.159374Q361.8781 36.378124 360.76874 37.065624Q359.675 37.753124 358.2531 37.753124Q356.1125 37.753124 354.76874 36.253124Q353.4406 34.753124 353.4406 32.3L353.4406 32.175ZM355.2531 32.378124Q355.2531 34.14375 356.0656 35.20625Q356.89374 36.26875 358.2531 36.26875Q359.6281 36.26875 360.4406 35.190624Q361.2531 34.1125 361.2531 32.175Q361.2531 30.425 360.425 29.346874Q359.59686 28.26875 358.2375 28.26875Q356.89374 28.26875 356.0656 29.33125Q355.2531 30.39375 355.2531 32.378124ZM378.84686 32.378124Q378.84686 34.8 377.7375 36.284374Q376.64374 37.753124 374.7531 37.753124Q372.83124 37.753124 371.72186 36.51875L371.72186 41.6125L369.925 41.6125L369.925 26.9875L371.5656 26.9875L371.65936 28.159374Q372.7531 26.784374 374.72186 26.784374Q376.6281 26.784374 377.7375 28.221874Q378.84686 29.659374 378.84686 32.221874L378.84686 32.378124ZM377.03436 32.175Q377.03436 30.39375 376.26874 29.3625Q375.51874 28.315624 374.1906 28.315624Q372.55 28.315624 371.72186 29.76875L371.72186 34.83125Q372.53436 36.26875 374.20624 36.26875Q375.5031 36.26875 376.26874 35.2375Q377.03436 34.20625 377.03436 32.175ZM386.01874 28.596874Q385.6125 28.534374 385.14374 28.534374Q383.3625 28.534374 382.72186 30.05L382.72186 37.55L380.925 37.55L380.925 26.9875L382.675 26.9875L382.70624 28.20625Q383.59686 26.784374 385.22186 26.784374Q385.7531 26.784374 386.01874 26.925L386.01874 28.596874ZM392.3 37.753124Q390.15936 37.753124 388.8 36.346874Q387.45624 34.925 387.45624 32.565624L387.45624 32.221874Q387.45624 30.659374 388.05 29.425Q388.65936 28.190624 389.7375 27.4875Q390.8156 26.784374 392.08124 26.784374Q394.14374 26.784374 395.28436 28.14375Q396.425 29.503124 396.425 32.034374L396.425 32.784374L389.26874 32.784374Q389.3 34.346874 390.175 35.315624Q391.05 36.26875 392.39374 36.26875Q393.3625 36.26875 394.01874 35.878124Q394.6906 35.4875 395.1906 34.846874L396.28436 35.70625Q394.95624 37.753124 392.3 37.753124ZM392.08124 28.26875Q390.9875 28.26875 390.2375 29.065624Q389.5031 29.8625 389.33124 31.3L394.6125 31.3L394.6125 31.159374Q394.53436 29.784374 393.8625 29.034374Q393.20624 28.26875 392.08124 28.26875ZM405.0656 34.753124Q405.0656 34.01875 404.51874 33.6125Q403.97186 33.20625 402.59686 32.909374Q401.22186 32.6125 400.40936 32.20625Q399.6125 31.8 399.22186 31.2375Q398.84686 30.659374 398.84686 29.878124Q398.84686 28.58125 399.9406 27.690624Q401.03436 26.784374 402.7531 26.784374Q404.55 26.784374 405.65936 27.721874Q406.78436 28.64375 406.78436 30.08125L404.95624 30.08125Q404.95624 29.346874 404.33124 28.815624Q403.70624 28.26875 402.7531 28.26875Q401.7531 28.26875 401.1906 28.70625Q400.64374 29.128124 400.64374 29.83125Q400.64374 30.471874 401.15936 30.815624Q401.675 31.14375 403.03436 31.45625Q404.39374 31.753124 405.22186 32.175Q406.0656 32.58125 406.47186 33.175Q406.8781 33.76875 406.8781 34.6125Q406.8781 36.034374 405.7375 36.89375Q404.6125 37.753124 402.8 37.753124Q401.53436 37.753124 400.55 37.3Q399.58124 36.846874 399.01874 36.05Q398.47186 35.2375 398.47186 34.3L400.28436 34.3Q400.33124 35.20625 401.0031 35.7375Q401.6906 36.26875 402.8 36.26875Q403.83124 36.26875 404.4406 35.8625Q405.0656 35.440624 405.0656 34.753124ZM411.3625 24.425L411.3625 26.9875L413.34686 26.9875L413.34686 28.378124L411.3625 28.378124L411.3625 34.925Q411.3625 35.565624 411.6281 35.89375Q411.89374 36.20625 412.53436 36.20625Q412.84686 36.20625 413.39374 36.08125L413.39374 37.55Q412.675 37.753124 412.0031 37.753124Q410.8 37.753124 410.175 37.01875Q409.5656 36.284374 409.5656 34.925L409.5656 28.378124L407.64374 28.378124L407.64374 26.9875L409.5656 26.9875L409.5656 24.425L411.3625 24.425ZM422.4406 37.55Q422.28436 37.2375 422.1906 36.440624Q420.925 37.753124 419.175 37.753124Q417.6125 37.753124 416.6125 36.8625Q415.6125 35.971874 415.6125 34.6125Q415.6125 32.971874 416.8625 32.065624Q418.1281 31.14375 420.39374 31.14375L422.15936 31.14375L422.15936 30.315624Q422.15936 29.3625 421.58124 28.8Q421.01874 28.2375 419.925 28.2375Q418.95624 28.2375 418.3 28.7375Q417.64374 29.221874 417.64374 29.909374L415.83124 29.909374Q415.83124 29.128124 416.39374 28.39375Q416.95624 27.64375 417.90936 27.221874Q418.8781 26.784374 420.03436 26.784374Q421.8625 26.784374 422.89374 27.70625Q423.925 28.6125 423.97186 30.221874L423.97186 35.08125Q423.97186 36.534374 424.33124 37.39375L424.33124 37.55L422.4406 37.55ZM419.4406 36.175Q420.3 36.175 421.05 35.7375Q421.8156 35.3 422.15936 34.596874L422.15936 32.425L420.7375 32.425Q417.425 32.425 417.425 34.3625Q417.425 35.221874 417.9875 35.70625Q418.55 36.175 419.4406 36.175ZM426.47186 32.175Q426.47186 29.753124 427.6281 28.26875Q428.78436 26.784374 430.64374 26.784374Q432.5031 26.784374 433.58124 28.05L433.58124 22.55L435.39374 22.55L435.39374 37.55L433.7375 37.55L433.64374 36.409374Q432.5656 37.753124 430.6281 37.753124Q428.8 37.753124 427.6281 36.253124Q426.47186 34.7375 426.47186 32.315624L426.47186 32.175ZM428.28436 32.378124Q428.28436 34.175 429.01874 35.190624Q429.76874 36.20625 431.08124 36.20625Q432.8 36.20625 433.58124 34.675L433.58124 29.815624Q432.78436 28.315624 431.09686 28.315624Q429.76874 28.315624 429.01874 29.346874Q428.28436 30.378124 428.28436 32.378124ZM437.4406 32.175Q437.4406 30.6125 438.05 29.378124Q438.65936 28.128124 439.7375 27.45625Q440.83124 26.784374 442.2375 26.784374Q444.39374 26.784374 445.72186 28.284374Q447.0656 29.76875 447.0656 32.253124L447.0656 32.378124Q447.0656 33.925 446.47186 35.159374Q445.8781 36.378124 444.76874 37.065624Q443.675 37.753124 442.2531 37.753124Q440.1125 37.753124 438.76874 36.253124Q437.4406 34.753124 437.4406 32.3L437.4406 32.175ZM439.2531 32.378124Q439.2531 34.14375 440.0656 35.20625Q440.89374 36.26875 442.2531 36.26875Q443.6281 36.26875 444.4406 35.190624Q445.2531 34.1125 445.2531 32.175Q445.2531 30.425 444.425 29.346874Q443.59686 28.26875 442.2375 28.26875Q440.89374 28.26875 440.0656 29.33125Q439.2531 30.39375 439.2531 32.378124Z" fill-rule="nonzero"/></svg>