<svg version="1.1" viewBox="0.0 0.0 654.0 404.0" fill="none" stroke="none" stroke-linecap="square" stroke-miterlimit="10" width="654" height="404" xmlns:xlink="http://www.w3.org/1999/xlink" xmlns="http://www.w3.org/2000/svg"><path fill="#ffffff" d="M0 0L654.0 0L654.0 404.0L0 404.0L0 0Z" fill-rule="nonzero"/><path fill="#ffffff" d="M205.82593 142.52258C234.33305 104.230865 279.26205 81.666664 327.0 81.666664L327.0 232.73334Z" fill-rule="nonzero"/><path fill="#2e2e2e" d="M327.0 81.666664C397.01126 81.666664 457.84894 129.77086 473.99466 197.89496C490.14035 266.01907 457.36295 336.31042 394.79858 367.73145C332.23425 399.15244 256.2786 383.46887 211.27621 329.83713C166.27383 276.20538 164.0181 198.68024 205.82593 142.52258L327.0 232.73334Z" fill-rule="nonzero"/><path stroke="#2e2e2e" stroke-width="1.0" stroke-linejoin="round" stroke-linecap="round" d="M327.0 232.73334L327.0 81.666664C397.01126 81.666664 457.84894 129.77086 473.99466 197.89496C490.14035 266.01907 457.36295 336.31042 394.79858 367.73145C332.23425 399.15244 256.2786 383.46887 211.27621 329.83713C166.27383 276.20538 164.0181 198.68024 205.82593 142.52258" fill-rule="nonzero"/><path stroke="#2e2e2e" stroke-width="1.0" stroke-linejoin="round" stroke-linecap="round" d="M327.0 232.73334L205.82593 142.52258C234.33305 104.230865 279.26205 81.666664 327.0 81.666664" fill-rule="nonzero"/><path fill="#434343" d="M27.746876 99.98514L26.621876 99.98514L22.325 93.40701L22.325 99.98514L21.184376 99.98514L21.184376 91.45389L22.325 91.45389L26.621876 98.06326L26.621876 91.45389L27.746876 91.45389L27.746876 99.98514ZM33.934376 99.98514Q33.840626 99.79764 33.778126 99.31326Q33.028126 100.11014 31.98125 100.11014Q31.04375 100.11014 30.434376 99.57889Q29.840626 99.04764 29.840626 98.21951Q29.840626 97.23514 30.590626 96.68826Q31.340626 96.14139 32.715626 96.14139L33.7625 96.14139L33.7625 95.64139Q33.7625 95.07889 33.41875 94.75076Q33.090626 94.40701 32.41875 94.40701Q31.840626 94.40701 31.45 94.70389Q31.059376 94.98514 31.059376 95.40701L29.965626 95.40701Q29.965626 94.92264 30.29375 94.48514Q30.6375 94.04764 31.215626 93.79764Q31.79375 93.53201 32.48125 93.53201Q33.590626 93.53201 34.2 94.07889Q34.825 94.62576 34.85625 95.57889L34.85625 98.50076Q34.85625 99.37576 35.075 99.89139L35.075 99.98514L33.934376 99.98514ZM32.1375 99.15701Q32.653126 99.15701 33.10625 98.89139Q33.559376 98.62576 33.7625 98.20389L33.7625 96.90701L32.91875 96.90701Q30.91875 96.90701 30.91875 98.07889Q30.91875 98.57889 31.2625 98.87576Q31.60625 99.15701 32.1375 99.15701ZM34.684376 91.15701Q34.684376 91.79764 34.325 92.18826Q33.965626 92.57889 33.434376 92.57889Q33.184376 92.57889 33.0125 92.53201Q32.840626 92.46951 32.54375 92.28201Q32.2625 92.09451 32.1375 92.06326Q32.0125 92.03201 31.85625 92.03201Q31.60625 92.03201 31.434376 92.21951Q31.278126 92.39139 31.278126 92.68826L30.54375 92.64139Q30.54375 92.01639 30.903126 91.61014Q31.2625 91.18826 31.79375 91.18826Q32.0125 91.18826 32.16875 91.25076Q32.340626 91.31326 32.621876 91.48514Q32.903126 91.65701 33.04375 91.70389Q33.2 91.75076 33.371876 91.75076Q33.621876 91.75076 33.79375 91.56326Q33.965626 91.36014 33.965626 91.09451L34.684376 91.15701ZM36.73125 96.75076Q36.73125 95.82889 37.090626 95.07889Q37.465626 94.32889 38.121876 93.93826Q38.778126 93.53201 39.60625 93.53201Q40.903126 93.53201 41.7 94.42264Q42.5125 95.31326 42.5125 96.81326L42.5125 96.89139Q42.5125 97.81326 42.153126 98.54764Q41.79375 99.28201 41.1375 99.70389Q40.48125 100.11014 39.621876 100.11014Q38.340626 100.11014 37.528126 99.21951Q36.73125 98.31326 36.73125 96.82889L36.73125 96.75076ZM37.825 96.89139Q37.825 97.93826 38.309376 98.57889Q38.809376 99.21951 39.621876 99.21951Q40.45 99.21951 40.934376 98.57889Q41.41875 97.92264 41.41875 96.75076Q41.41875 95.71951 40.91875 95.07889Q40.434376 94.42264 39.60625 94.42264Q38.809376 94.42264 38.309376 95.06326Q37.825 95.68826 37.825 96.89139ZM48.309376 96.64139L48.309376 99.98514L47.184376 99.98514L47.184376 91.45389L50.340626 91.45389Q51.73125 91.45389 52.528126 92.17264Q53.325 92.87576 53.325 94.06326Q53.325 95.29764 52.54375 95.96951Q51.778126 96.64139 50.325 96.64139L48.309376 96.64139ZM48.309376 95.71951L50.340626 95.71951Q51.246876 95.71951 51.715626 95.29764Q52.2 94.87576 52.2 94.07889Q52.2 93.31326 51.715626 92.86014Q51.246876 92.39139 50.403126 92.37576L48.309376 92.37576L48.309376 95.71951ZM54.73125 96.75076Q54.73125 95.82889 55.090626 95.07889Q55.465626 94.32889 56.121876 93.93826Q56.778126 93.53201 57.60625 93.53201Q58.903126 93.53201 59.7 94.42264Q60.5125 95.31326 60.5125 96.81326L60.5125 96.89139Q60.5125 97.81326 60.153126 98.54764Q59.79375 99.28201 59.1375 99.70389Q58.48125 100.11014 57.621876 100.11014Q56.340626 100.11014 55.528126 99.21951Q54.73125 98.31326 54.73125 96.82889L54.73125 96.75076ZM55.825 96.89139Q55.825 97.93826 56.309376 98.57889Q56.809376 99.21951 57.621876 99.21951Q58.45 99.21951 58.934376 98.57889Q59.41875 97.92264 59.41875 96.75076Q59.41875 95.71951 58.91875 95.07889Q58.434376 94.42264 57.60625 94.42264Q56.809376 94.42264 56.309376 95.06326Q55.825 95.68826 55.825 96.89139ZM65.71562 98.29764Q65.71562 97.86014 65.37187 97.62576Q65.04375 97.37576 64.21562 97.20389Q63.403126 97.03201 62.91875 96.78201Q62.434376 96.53201 62.2 96.20389Q61.98125 95.86014 61.98125 95.39139Q61.98125 94.61014 62.6375 94.07889Q63.29375 93.53201 64.325 93.53201Q65.40312 93.53201 66.05937 94.09451Q66.73125 94.64139 66.73125 95.50076L65.65312 95.50076Q65.65312 95.06326 65.2625 94.75076Q64.8875 94.42264 64.325 94.42264Q63.73125 94.42264 63.3875 94.68826Q63.059376 94.93826 63.059376 95.34451Q63.059376 95.73514 63.371876 95.93826Q63.684376 96.14139 64.49687 96.32889Q65.30937 96.50076 65.80937 96.75076Q66.30937 97.00076 66.54375 97.36014Q66.79375 97.71951 66.79375 98.21951Q66.79375 99.07889 66.10625 99.59451Q65.43437 100.11014 64.35625 100.11014Q63.590626 100.11014 62.996876 99.84451Q62.41875 99.56326 62.090626 99.07889Q61.7625 98.59451 61.7625 98.03201L62.840626 98.03201Q62.871876 98.57889 63.278126 98.90701Q63.684376 99.21951 64.35625 99.21951Q64.96562 99.21951 65.34062 98.96951Q65.71562 98.71951 65.71562 98.29764ZM71.71562 98.29764Q71.71562 97.86014 71.37187 97.62576Q71.04375 97.37576 70.21562 97.20389Q69.40312 97.03201 68.91875 96.78201Q68.43437 96.53201 68.2 96.20389Q67.98125 95.86014 67.98125 95.39139Q67.98125 94.61014 68.6375 94.07889Q69.29375 93.53201 70.325 93.53201Q71.40312 93.53201 72.05937 94.09451Q72.73125 94.64139 72.73125 95.50076L71.65312 95.50076Q71.65312 95.06326 71.2625 94.75076Q70.8875 94.42264 70.325 94.42264Q69.73125 94.42264 69.3875 94.68826Q69.05937 94.93826 69.05937 95.34451Q69.05937 95.73514 69.37187 95.93826Q69.68437 96.14139 70.49687 96.32889Q71.30937 96.50076 71.80937 96.75076Q72.30937 97.00076 72.54375 97.36014Q72.79375 97.71951 72.79375 98.21951Q72.79375 99.07889 72.10625 99.59451Q71.43437 100.11014 70.35625 100.11014Q69.59062 100.11014 68.99687 99.84451Q68.41875 99.56326 68.09062 99.07889Q67.7625 98.59451 67.7625 98.03201L68.84062 98.03201Q68.87187 98.57889 69.27812 98.90701Q69.68437 99.21951 70.35625 99.21951Q70.96562 99.21951 71.34062 98.96951Q71.71562 98.71951 71.71562 98.29764ZM77.93437 99.36014Q77.30937 100.11014 76.075 100.11014Q75.05937 100.11014 74.52812 99.51639Q73.99687 98.92264 73.99687 97.76639L73.99687 93.64139L75.075 93.64139L75.075 97.73514Q75.075 99.18826 76.24687 99.18826Q77.49687 99.18826 77.90312 98.25076L77.90312 93.64139L78.99687 93.64139L78.99687 99.98514L77.96562 99.98514L77.93437 99.36014ZM82.2 99.98514L81.12187 99.98514L81.12187 93.64139L82.2 93.64139L82.2 99.98514ZM81.02812 91.96951Q81.02812 91.70389 81.18437 91.51639Q81.35625 91.32889 81.66875 91.32889Q81.98125 91.32889 82.1375 91.51639Q82.30937 91.70389 82.30937 91.96951Q82.30937 92.21951 82.1375 92.40701Q81.98125 92.57889 81.66875 92.57889Q81.35625 92.57889 81.18437 92.40701Q81.02812 92.21951 81.02812 91.96951Z" fill-rule="nonzero"/><path fill="#9e9e9e" d="M24.465626 117.98514L23.3875 117.98514L23.3875 110.76639L21.2 111.56326L21.2 110.57889L24.309376 109.40701L24.465626 109.40701L24.465626 117.98514ZM32.48125 115.12576L33.66875 115.12576L33.66875 116.00076L32.48125 116.00076L32.48125 117.98514L31.403126 117.98514L31.403126 116.00076L27.5125 116.00076L27.5125 115.36014L31.325 109.45389L32.48125 109.45389L32.48125 115.12576ZM28.746876 115.12576L31.403126 115.12576L31.403126 110.93826L31.2625 111.17264L28.746876 115.12576ZM34.98125 119.68826L34.371876 119.26639Q34.91875 118.50076 34.95 117.67264L34.95 116.70389L36.0125 116.70389L36.0125 117.54764Q36.0125 118.14139 35.715626 118.73514Q35.41875 119.32889 34.98125 119.68826ZM42.090626 111.67264Q42.090626 112.31326 41.746876 112.81326Q41.403126 113.31326 40.840626 113.59451Q41.496876 113.87576 41.8875 114.43826Q42.278126 114.98514 42.278126 115.68826Q42.278126 116.78201 41.528126 117.45389Q40.79375 118.11014 39.575 118.11014Q38.340626 118.11014 37.590626 117.45389Q36.85625 116.78201 36.85625 115.68826Q36.85625 114.98514 37.23125 114.43826Q37.60625 113.87576 38.278126 113.59451Q37.715626 113.31326 37.3875 112.81326Q37.059376 112.31326 37.059376 111.67264Q37.059376 110.59451 37.746876 109.96951Q38.434376 109.32889 39.575 109.32889Q40.7 109.32889 41.3875 109.96951Q42.090626 110.59451 42.090626 111.67264ZM41.2 115.65701Q41.2 114.93826 40.746876 114.50076Q40.29375 114.04764 39.559376 114.04764Q38.825 114.04764 38.371876 114.50076Q37.934376 114.93826 37.934376 115.67264Q37.934376 116.39139 38.371876 116.81326Q38.809376 117.21951 39.575 117.21951Q40.325 117.21951 40.7625 116.79764Q41.2 116.37576 41.2 115.65701ZM39.575 110.21951Q38.934376 110.21951 38.528126 110.62576Q38.1375 111.01639 38.1375 111.70389Q38.1375 112.34451 38.528126 112.75076Q38.91875 113.15701 39.559376 113.15701Q40.215626 113.15701 40.60625 112.75076Q40.996876 112.34451 40.996876 111.70389Q40.996876 111.04764 40.590626 110.64139Q40.184376 110.21951 39.575 110.21951ZM43.809376 111.09451Q43.809376 110.32889 44.29375 109.82889Q44.79375 109.32889 45.559376 109.32889Q46.340626 109.32889 46.825 109.82889Q47.309376 110.32889 47.309376 111.12576L47.309376 111.54764Q47.309376 112.31326 46.809376 112.81326Q46.325 113.29764 45.575 113.29764Q44.809376 113.29764 44.309376 112.81326Q43.809376 112.31326 43.809376 111.50076L43.809376 111.09451ZM44.621876 111.54764Q44.621876 112.00076 44.871876 112.29764Q45.1375 112.59451 45.575 112.59451Q45.996876 112.59451 46.246876 112.31326Q46.496876 112.01639 46.496876 111.51639L46.496876 111.09451Q46.496876 110.64139 46.246876 110.34451Q45.996876 110.03201 45.559376 110.03201Q45.121876 110.03201 44.871876 110.34451Q44.621876 110.64139 44.621876 111.11014L44.621876 111.54764ZM47.965626 115.89139Q47.965626 115.12576 48.45 114.64139Q48.95 114.14139 49.715626 114.14139Q50.48125 114.14139 50.965626 114.64139Q51.465626 115.12576 51.465626 115.93826L51.465626 116.34451Q51.465626 117.11014 50.98125 117.61014Q50.496876 118.11014 49.73125 118.11014Q48.965626 118.11014 48.465626 117.62576Q47.965626 117.12576 47.965626 116.31326L47.965626 115.89139ZM48.778126 116.34451Q48.778126 116.81326 49.028126 117.11014Q49.29375 117.40701 49.73125 117.40701Q50.153126 117.40701 50.403126 117.12576Q50.653126 116.82889 50.653126 116.32889L50.653126 115.89139Q50.653126 115.42264 50.3875 115.14139Q50.1375 114.84451 49.715626 114.84451Q49.29375 114.84451 49.028126 115.14139Q48.778126 115.42264 48.778126 115.92264L48.778126 116.34451ZM45.825 117.34451L45.2 116.95389L49.371876 110.28201L49.98125 110.67264L45.825 117.34451Z" fill-rule="nonzero"/><path stroke="#757575" stroke-width="1.0" stroke-linecap="butt" d="M20.2 104.48514L169.93333 104.48514L262.59134 104.48514" fill-rule="nonzero"/><path fill="#9e9e9e" d="M264.59134 104.48514C264.59134 103.38056 263.6959 102.48514 262.59134 102.48514C261.48676 102.48514 260.59134 103.38056 260.59134 104.48514C260.59134 105.58971 261.48676 106.48514 262.59134 106.48514C263.6959 106.48514 264.59134 105.58971 264.59134 104.48514" fill-rule="nonzero"/><path fill="#434343" d="M598.90936 353.1378L598.90936 356.48154L597.78436 356.48154L597.78436 347.9503L600.9406 347.9503Q602.33124 347.9503 603.1281 348.66904Q603.925 349.37216 603.925 350.55966Q603.925 351.79404 603.14374 352.4659Q602.3781 353.1378 600.925 353.1378L598.90936 353.1378ZM598.90936 352.2159L600.9406 352.2159Q601.84686 352.2159 602.3156 351.79404Q602.8 351.37216 602.8 350.5753Q602.8 349.80966 602.3156 349.35654Q601.84686 348.8878 601.0031 348.87216L598.90936 348.87216L598.90936 352.2159ZM605.33124 353.24716Q605.33124 352.3253 605.6906 351.5753Q606.0656 350.8253 606.72186 350.43466Q607.3781 350.0284 608.20624 350.0284Q609.5031 350.0284 610.3 350.91904Q611.1125 351.80966 611.1125 353.30966L611.1125 353.3878Q611.1125 354.30966 610.7531 355.04404Q610.39374 355.7784 609.7375 356.2003Q609.08124 356.60654 608.22186 356.60654Q606.9406 356.60654 606.1281 355.7159Q605.33124 354.80966 605.33124 353.3253L605.33124 353.24716ZM606.425 353.3878Q606.425 354.43466 606.90936 355.0753Q607.40936 355.7159 608.22186 355.7159Q609.05 355.7159 609.53436 355.0753Q610.01874 354.41904 610.01874 353.24716Q610.01874 352.2159 609.51874 351.5753Q609.03436 350.91904 608.20624 350.91904Q607.40936 350.91904 606.90936 351.55966Q606.425 352.18466 606.425 353.3878ZM616.3156 354.79404Q616.3156 354.35654 615.97186 354.12216Q615.64374 353.87216 614.8156 353.7003Q614.0031 353.5284 613.51874 353.2784Q613.03436 353.0284 612.8 352.7003Q612.58124 352.35654 612.58124 351.8878Q612.58124 351.10654 613.2375 350.5753Q613.89374 350.0284 614.925 350.0284Q616.0031 350.0284 616.65936 350.5909Q617.33124 351.1378 617.33124 351.99716L616.2531 351.99716Q616.2531 351.55966 615.8625 351.24716Q615.4875 350.91904 614.925 350.91904Q614.33124 350.91904 613.9875 351.18466Q613.65936 351.43466 613.65936 351.8409Q613.65936 352.23154 613.97186 352.43466Q614.28436 352.6378 615.09686 352.8253Q615.90936 352.99716 616.40936 353.24716Q616.90936 353.49716 617.14374 353.85654Q617.39374 354.2159 617.39374 354.7159Q617.39374 355.5753 616.70624 356.0909Q616.03436 356.60654 614.95624 356.60654Q614.1906 356.60654 613.59686 356.3409Q613.01874 356.05966 612.6906 355.5753Q612.3625 355.0909 612.3625 354.5284L613.4406 354.5284Q613.47186 355.0753 613.8781 355.4034Q614.28436 355.7159 614.95624 355.7159Q615.5656 355.7159 615.9406 355.4659Q616.3156 355.2159 616.3156 354.79404ZM622.3156 354.79404Q622.3156 354.35654 621.97186 354.12216Q621.64374 353.87216 620.8156 353.7003Q620.0031 353.5284 619.51874 353.2784Q619.03436 353.0284 618.8 352.7003Q618.58124 352.35654 618.58124 351.8878Q618.58124 351.10654 619.2375 350.5753Q619.89374 350.0284 620.925 350.0284Q622.0031 350.0284 622.65936 350.5909Q623.33124 351.1378 623.33124 351.99716L622.2531 351.99716Q622.2531 351.55966 621.8625 351.24716Q621.4875 350.91904 620.925 350.91904Q620.33124 350.91904 619.9875 351.18466Q619.65936 351.43466 619.65936 351.8409Q619.65936 352.23154 619.97186 352.43466Q620.28436 352.6378 621.09686 352.8253Q621.90936 352.99716 622.40936 353.24716Q622.90936 353.49716 623.14374 353.85654Q623.39374 354.2159 623.39374 354.7159Q623.39374 355.5753 622.70624 356.0909Q622.03436 356.60654 620.95624 356.60654Q620.1906 356.60654 619.59686 356.3409Q619.01874 356.05966 618.6906 355.5753Q618.3625 355.0909 618.3625 354.5284L619.4406 354.5284Q619.47186 355.0753 619.8781 355.4034Q620.28436 355.7159 620.95624 355.7159Q621.5656 355.7159 621.9406 355.4659Q622.3156 355.2159 622.3156 354.79404ZM628.53436 355.85654Q627.90936 356.60654 626.675 356.60654Q625.65936 356.60654 625.1281 356.0128Q624.59686 355.41904 624.59686 354.2628L624.59686 350.1378L625.675 350.1378L625.675 354.23154Q625.675 355.68466 626.84686 355.68466Q628.09686 355.68466 628.5031 354.74716L628.5031 350.1378L629.59686 350.1378L629.59686 356.48154L628.5656 356.48154L628.53436 355.85654ZM632.8 356.48154L631.72186 356.48154L631.72186 350.1378L632.8 350.1378L632.8 356.48154ZM631.6281 348.4659Q631.6281 348.2003 631.78436 348.0128Q631.95624 347.8253 632.26874 347.8253Q632.58124 347.8253 632.7375 348.0128Q632.90936 348.2003 632.90936 348.4659Q632.90936 348.7159 632.7375 348.9034Q632.58124 349.0753 632.26874 349.0753Q631.95624 349.0753 631.78436 348.9034Q631.6281 348.7159 631.6281 348.4659Z" fill-rule="nonzero"/><path fill="#9e9e9e" d="M607.6906 368.16904Q607.6906 368.80966 607.34686 369.30966Q607.0031 369.80966 606.4406 370.0909Q607.09686 370.37216 607.4875 370.93466Q607.8781 371.48154 607.8781 372.18466Q607.8781 373.2784 607.1281 373.9503Q606.39374 374.60654 605.175 374.60654Q603.9406 374.60654 603.1906 373.9503Q602.45624 373.2784 602.45624 372.18466Q602.45624 371.48154 602.83124 370.93466Q603.20624 370.37216 603.8781 370.0909Q603.3156 369.80966 602.9875 369.30966Q602.65936 368.80966 602.65936 368.16904Q602.65936 367.0909 603.34686 366.4659Q604.03436 365.8253 605.175 365.8253Q606.3 365.8253 606.9875 366.4659Q607.6906 367.0909 607.6906 368.16904ZM606.8 372.1534Q606.8 371.43466 606.34686 370.99716Q605.89374 370.54404 605.15936 370.54404Q604.425 370.54404 603.97186 370.99716Q603.53436 371.43466 603.53436 372.16904Q603.53436 372.8878 603.97186 373.30966Q604.40936 373.7159 605.175 373.7159Q605.925 373.7159 606.3625 373.29404Q606.8 372.87216 606.8 372.1534ZM605.175 366.7159Q604.53436 366.7159 604.1281 367.12216Q603.7375 367.5128 603.7375 368.2003Q603.7375 368.8409 604.1281 369.24716Q604.51874 369.6534 605.15936 369.6534Q605.8156 369.6534 606.20624 369.24716Q606.59686 368.8409 606.59686 368.2003Q606.59686 367.54404 606.1906 367.1378Q605.78436 366.7159 605.175 366.7159ZM610.0031 370.2003L610.4406 365.9503L614.8156 365.9503L614.8156 366.9503L611.3625 366.9503L611.09686 369.2784Q611.7375 368.9034 612.53436 368.9034Q613.6906 368.9034 614.3781 369.68466Q615.0656 370.4503 615.0656 371.7628Q615.0656 373.0753 614.34686 373.8409Q613.64374 374.60654 612.3625 374.60654Q611.2375 374.60654 610.51874 373.98154Q609.8 373.3409 609.70624 372.23154L610.72186 372.23154Q610.83124 372.9659 611.2531 373.3409Q611.675 373.7159 612.3625 373.7159Q613.1125 373.7159 613.55 373.2003Q613.9875 372.68466 613.9875 371.7784Q613.9875 370.91904 613.51874 370.4034Q613.05 369.8878 612.26874 369.8878Q611.5656 369.8878 611.15936 370.18466L610.8781 370.41904L610.0031 370.2003ZM616.58124 376.18466L615.97186 375.7628Q616.51874 374.99716 616.55 374.16904L616.55 373.2003L617.6125 373.2003L617.6125 374.04404Q617.6125 374.6378 617.3156 375.23154Q617.01874 375.8253 616.58124 376.18466ZM624.09686 374.48154L618.5031 374.48154L618.5031 373.7003L621.45624 370.41904Q622.1125 369.66904 622.3625 369.2159Q622.6125 368.74716 622.6125 368.24716Q622.6125 367.5753 622.20624 367.1534Q621.8156 366.7159 621.1281 366.7159Q620.33124 366.7159 619.8781 367.18466Q619.425 367.6378 619.425 368.4659L618.34686 368.4659Q618.34686 367.2784 619.09686 366.55966Q619.8625 365.8253 621.1281 365.8253Q622.33124 365.8253 623.01874 366.4503Q623.70624 367.0753 623.70624 368.12216Q623.70624 369.37216 622.09686 371.12216L619.8156 373.5909L624.09686 373.5909L624.09686 374.48154ZM625.40936 367.5909Q625.40936 366.8253 625.89374 366.3253Q626.39374 365.8253 627.15936 365.8253Q627.9406 365.8253 628.425 366.3253Q628.90936 366.8253 628.90936 367.62216L628.90936 368.04404Q628.90936 368.80966 628.40936 369.30966Q627.925 369.79404 627.175 369.79404Q626.40936 369.79404 625.90936 369.30966Q625.40936 368.80966 625.40936 367.99716L625.40936 367.5909ZM626.22186 368.04404Q626.22186 368.49716 626.47186 368.79404Q626.7375 369.0909 627.175 369.0909Q627.59686 369.0909 627.84686 368.80966Q628.09686 368.5128 628.09686 368.0128L628.09686 367.5909Q628.09686 367.1378 627.84686 366.8409Q627.59686 366.5284 627.15936 366.5284Q626.72186 366.5284 626.47186 366.8409Q626.22186 367.1378 626.22186 367.60654L626.22186 368.04404ZM629.5656 372.3878Q629.5656 371.62216 630.05 371.1378Q630.55 370.6378 631.3156 370.6378Q632.08124 370.6378 632.5656 371.1378Q633.0656 371.62216 633.0656 372.43466L633.0656 372.8409Q633.0656 373.60654 632.58124 374.10654Q632.09686 374.60654 631.33124 374.60654Q630.5656 374.60654 630.0656 374.12216Q629.5656 373.62216 629.5656 372.80966L629.5656 372.3878ZM630.3781 372.8409Q630.3781 373.30966 630.6281 373.60654Q630.89374 373.9034 631.33124 373.9034Q631.7531 373.9034 632.0031 373.62216Q632.2531 373.3253 632.2531 372.8253L632.2531 372.3878Q632.2531 371.91904 631.9875 371.6378Q631.7375 371.3409 631.3156 371.3409Q630.89374 371.3409 630.6281 371.6378Q630.3781 371.91904 630.3781 372.41904L630.3781 372.8409ZM627.425 373.8409L626.8 373.4503L630.97186 366.7784L631.58124 367.16904L627.425 373.8409Z" fill-rule="nonzero"/><path stroke="#757575" stroke-width="1.0" stroke-linecap="butt" d="M633.8 360.98154L484.06668 360.98154L391.40866 360.98154" fill-rule="nonzero"/><path fill="#9e9e9e" d="M393.40866 360.98154C393.40866 359.87695 392.51324 358.98154 391.40866 358.98154C390.3041 358.98154 389.40866 359.87695 389.40866 360.98154C389.40866 362.0861 390.3041 362.98154 391.40866 362.98154C392.51324 362.98154 393.40866 362.0861 393.40866 360.98154" fill-rule="nonzero"/><path fill="#2e2e2e" d="M23.73125 33.6375L23.73125 39.2L21.85625 39.2L21.85625 24.98125L27.090626 24.98125Q29.434376 24.98125 30.746876 26.16875Q32.075 27.35625 32.075 29.325Q32.075 31.403126 30.778126 32.528126Q29.48125 33.6375 27.075 33.6375L23.73125 33.6375ZM23.73125 32.10625L27.090626 32.10625Q28.60625 32.10625 29.403126 31.403126Q30.2 30.684376 30.2 29.340626Q30.2 28.075 29.403126 27.325Q28.60625 26.559376 27.2 26.528126L23.73125 26.528126L23.73125 32.10625ZM34.090626 33.825Q34.090626 32.2625 34.7 31.028126Q35.309376 29.778126 36.3875 29.10625Q37.48125 28.434376 38.8875 28.434376Q41.04375 28.434376 42.371876 29.934376Q43.715626 31.41875 43.715626 33.903126L43.715626 34.028126Q43.715626 35.575 43.121876 36.809376Q42.528126 38.028126 41.41875 38.715626Q40.325 39.403126 38.903126 39.403126Q36.7625 39.403126 35.41875 37.903126Q34.090626 36.403126 34.090626 33.95L34.090626 33.825ZM35.903126 34.028126Q35.903126 35.79375 36.715626 36.85625Q37.54375 37.91875 38.903126 37.91875Q40.278126 37.91875 41.090626 36.840626Q41.903126 35.7625 41.903126 33.825Q41.903126 32.075 41.075 30.996876Q40.246876 29.91875 38.8875 29.91875Q37.54375 29.91875 36.715626 30.98125Q35.903126 32.04375 35.903126 34.028126ZM50.66875 30.246876Q50.2625 30.184376 49.79375 30.184376Q48.0125 30.184376 47.371876 31.7L47.371876 39.2L45.575 39.2L45.575 28.6375L47.325 28.6375L47.35625 29.85625Q48.246876 28.434376 49.871876 28.434376Q50.403126 28.434376 50.66875 28.575L50.66875 30.246876ZM56.809376 37.91875Q57.778126 37.91875 58.496876 37.340626Q59.215626 36.746876 59.29375 35.871876L61.0125 35.871876Q60.95 36.778126 60.371876 37.60625Q59.809376 38.41875 58.840626 38.91875Q57.8875 39.403126 56.809376 39.403126Q54.653126 39.403126 53.371876 37.965626Q52.10625 36.5125 52.10625 34.0125L52.10625 33.715626Q52.10625 32.16875 52.66875 30.965626Q53.23125 29.7625 54.29375 29.10625Q55.35625 28.434376 56.79375 28.434376Q58.575 28.434376 59.746876 29.496876Q60.934376 30.559376 61.0125 32.2625L59.29375 32.2625Q59.215626 31.246876 58.5125 30.590626Q57.825 29.91875 56.79375 29.91875Q55.41875 29.91875 54.653126 30.91875Q53.903126 31.903126 53.903126 33.778126L53.903126 34.121876Q53.903126 35.95 54.653126 36.934376Q55.403126 37.91875 56.809376 37.91875ZM66.95 39.403126Q64.80937 39.403126 63.45 37.996876Q62.10625 36.575 62.10625 34.215626L62.10625 33.871876Q62.10625 32.309376 62.7 31.075Q63.309376 29.840626 64.3875 29.1375Q65.46562 28.434376 66.73125 28.434376Q68.79375 28.434376 69.93437 29.79375Q71.075 31.153126 71.075 33.684376L71.075 34.434376L63.91875 34.434376Q63.95 35.996876 64.825 36.965626Q65.7 37.91875 67.04375 37.91875Q68.0125 37.91875 68.66875 37.528126Q69.34062 37.1375 69.84062 36.496876L70.93437 37.35625Q69.60625 39.403126 66.95 39.403126ZM66.73125 29.91875Q65.6375 29.91875 64.8875 30.715626Q64.15312 31.5125 63.98125 32.95L69.2625 32.95L69.2625 32.809376Q69.18437 31.434376 68.5125 30.684376Q67.85625 29.91875 66.73125 29.91875ZM75.27812 28.6375L75.34062 29.965626Q76.54375 28.434376 78.49687 28.434376Q81.85625 28.434376 81.87187 32.215626L81.87187 39.2L80.075 39.2L80.075 32.2Q80.05937 31.059376 79.54375 30.5125Q79.04375 29.965626 77.95 29.965626Q77.075 29.965626 76.40312 30.434376Q75.74687 30.903126 75.37187 31.66875L75.37187 39.2L73.575 39.2L73.575 28.6375L75.27812 28.6375ZM87.0125 26.075L87.0125 28.6375L88.99687 28.6375L88.99687 30.028126L87.0125 30.028126L87.0125 36.575Q87.0125 37.215626 87.27812 37.54375Q87.54375 37.85625 88.18437 37.85625Q88.49687 37.85625 89.04375 37.73125L89.04375 39.2Q88.325 39.403126 87.65312 39.403126Q86.45 39.403126 85.825 38.66875Q85.21562 37.934376 85.21562 36.575L85.21562 30.028126L83.29375 30.028126L83.29375 28.6375L85.21562 28.6375L85.21562 26.075L87.0125 26.075ZM98.09062 39.2Q97.93437 38.8875 97.84062 38.090626Q96.575 39.403126 94.825 39.403126Q93.2625 39.403126 92.2625 38.5125Q91.2625 37.621876 91.2625 36.2625Q91.2625 34.621876 92.5125 33.715626Q93.77812 32.79375 96.04375 32.79375L97.80937 32.79375L97.80937 31.965626Q97.80937 31.0125 97.23125 30.45Q96.66875 29.8875 95.575 29.8875Q94.60625 29.8875 93.95 30.3875Q93.29375 30.871876 93.29375 31.559376L91.48125 31.559376Q91.48125 30.778126 92.04375 30.04375Q92.60625 29.29375 93.55937 28.871876Q94.52812 28.434376 95.68437 28.434376Q97.5125 28.434376 98.54375 29.35625Q99.575 30.2625 99.62187 31.871876L99.62187 36.73125Q99.62187 38.184376 99.98125 39.04375L99.98125 39.2L98.09062 39.2ZM95.09062 37.825Q95.95 37.825 96.7 37.3875Q97.46562 36.95 97.80937 36.246876L97.80937 34.075L96.3875 34.075Q93.075 34.075 93.075 36.0125Q93.075 36.871876 93.6375 37.35625Q94.2 37.825 95.09062 37.825ZM102.1375 33.825Q102.1375 31.35625 103.27812 29.903126Q104.41875 28.434376 106.30937 28.434376Q108.24687 28.434376 109.325 29.809376L109.41875 28.6375L111.05937 28.6375L111.05937 38.95Q111.05937 40.996876 109.84062 42.16875Q108.6375 43.35625 106.575 43.35625Q105.43437 43.35625 104.34062 42.871876Q103.24687 42.3875 102.66875 41.528126L103.60625 40.45Q104.77812 41.8875 106.45 41.8875Q107.77812 41.8875 108.5125 41.1375Q109.24687 40.403126 109.24687 39.059376L109.24687 38.1375Q108.16875 39.403126 106.29375 39.403126Q104.43437 39.403126 103.27812 37.903126Q102.1375 36.403126 102.1375 33.825ZM103.95 34.028126Q103.95 35.825 104.68437 36.840626Q105.41875 37.85625 106.73125 37.85625Q108.45 37.85625 109.24687 36.309376L109.24687 31.48125Q108.41875 29.965626 106.7625 29.965626Q105.43437 29.965626 104.68437 30.996876Q103.95 32.028126 103.95 34.028126ZM117.95 39.403126Q115.80937 39.403126 114.45 37.996876Q113.10625 36.575 113.10625 34.215626L113.10625 33.871876Q113.10625 32.309376 113.7 31.075Q114.30937 29.840626 115.3875 29.1375Q116.46562 28.434376 117.73125 28.434376Q119.79375 28.434376 120.93437 29.79375Q122.075 31.153126 122.075 33.684376L122.075 34.434376L114.91875 34.434376Q114.95 35.996876 115.825 36.965626Q116.7 37.91875 118.04375 37.91875Q119.0125 37.91875 119.66875 37.528126Q120.34062 37.1375 120.84062 36.496876L121.93437 37.35625Q120.60625 39.403126 117.95 39.403126ZM117.73125 29.91875Q116.6375 29.91875 115.8875 30.715626Q115.15312 31.5125 114.98125 32.95L120.2625 32.95L120.2625 32.809376Q120.18437 31.434376 119.5125 30.684376Q118.85625 29.91875 117.73125 29.91875ZM126.2625 28.6375L126.30937 29.809376Q127.48125 28.434376 129.45 28.434376Q131.66875 28.434376 132.46562 30.1375Q132.99687 29.371876 133.84062 28.903126Q134.68437 28.434376 135.84062 28.434376Q139.30937 28.434376 139.37187 32.121876L139.37187 39.2L137.55937 39.2L137.55937 32.23125Q137.55937 31.090626 137.04375 30.528126Q136.52812 29.965626 135.30937 29.965626Q134.30937 29.965626 133.6375 30.575Q132.98125 31.16875 132.87187 32.184376L132.87187 39.2L131.05937 39.2L131.05937 32.278126Q131.05937 29.965626 128.79375 29.965626Q127.0125 29.965626 126.37187 31.48125L126.37187 39.2L124.55937 39.2L124.55937 28.6375L126.2625 28.6375ZM147.12187 33.825Q147.12187 31.403126 148.27812 29.91875Q149.43437 28.434376 151.29375 28.434376Q153.15312 28.434376 154.23125 29.7L154.23125 24.2L156.04375 24.2L156.04375 39.2L154.3875 39.2L154.29375 38.059376Q153.21562 39.403126 151.27812 39.403126Q149.45 39.403126 148.27812 37.903126Q147.12187 36.3875 147.12187 33.965626L147.12187 33.825ZM148.93437 34.028126Q148.93437 35.825 149.66875 36.840626Q150.41875 37.85625 151.73125 37.85625Q153.45 37.85625 154.23125 36.325L154.23125 31.465626Q153.43437 29.965626 151.74687 29.965626Q150.41875 29.965626 149.66875 30.996876Q148.93437 32.028126 148.93437 34.028126ZM162.95 39.403126Q160.80937 39.403126 159.45 37.996876Q158.10625 36.575 158.10625 34.215626L158.10625 33.871876Q158.10625 32.309376 158.7 31.075Q159.30937 29.840626 160.3875 29.1375Q161.46562 28.434376 162.73125 28.434376Q164.79375 28.434376 165.93437 29.79375Q167.075 31.153126 167.075 33.684376L167.075 34.434376L159.91875 34.434376Q159.95 35.996876 160.825 36.965626Q161.7 37.91875 163.04375 37.91875Q164.0125 37.91875 164.66875 37.528126Q165.34062 37.1375 165.84062 36.496876L166.93437 37.35625Q165.60625 39.403126 162.95 39.403126ZM162.73125 29.91875Q161.6375 29.91875 160.8875 30.715626Q160.15312 31.5125 159.98125 32.95L165.2625 32.95L165.2625 32.809376Q165.18437 31.434376 164.5125 30.684376Q163.85625 29.91875 162.73125 29.91875ZM178.80937 37.91875Q179.77812 37.91875 180.49687 37.340626Q181.21562 36.746876 181.29375 35.871876L183.0125 35.871876Q182.95 36.778126 182.37187 37.60625Q181.80937 38.41875 180.84062 38.91875Q179.8875 39.403126 178.80937 39.403126Q176.65312 39.403126 175.37187 37.965626Q174.10625 36.5125 174.10625 34.0125L174.10625 33.715626Q174.10625 32.16875 174.66875 30.965626Q175.23125 29.7625 176.29375 29.10625Q177.35625 28.434376 178.79375 28.434376Q180.575 28.434376 181.74687 29.496876Q182.93437 30.559376 183.0125 32.2625L181.29375 32.2625Q181.21562 31.246876 180.5125 30.590626Q179.825 29.91875 178.79375 29.91875Q177.41875 29.91875 176.65312 30.91875Q175.90312 31.903126 175.90312 33.778126L175.90312 34.121876Q175.90312 35.95 176.65312 36.934376Q177.40312 37.91875 178.80937 37.91875ZM191.09062 39.2Q190.93437 38.8875 190.84062 38.090626Q189.575 39.403126 187.825 39.403126Q186.2625 39.403126 185.2625 38.5125Q184.2625 37.621876 184.2625 36.2625Q184.2625 34.621876 185.5125 33.715626Q186.77812 32.79375 189.04375 32.79375L190.80937 32.79375L190.80937 31.965626Q190.80937 31.0125 190.23125 30.45Q189.66875 29.8875 188.575 29.8875Q187.60625 29.8875 186.95 30.3875Q186.29375 30.871876 186.29375 31.559376L184.48125 31.559376Q184.48125 30.778126 185.04375 30.04375Q185.60625 29.29375 186.55937 28.871876Q187.52812 28.434376 188.68437 28.434376Q190.5125 28.434376 191.54375 29.35625Q192.575 30.2625 192.62187 31.871876L192.62187 36.73125Q192.62187 38.184376 192.98125 39.04375L192.98125 39.2L191.09062 39.2ZM188.09062 37.825Q188.95 37.825 189.7 37.3875Q190.46562 36.95 190.80937 36.246876L190.80937 34.075L189.3875 34.075Q186.075 34.075 186.075 36.0125Q186.075 36.871876 186.6375 37.35625Q187.2 37.825 188.09062 37.825ZM204.49687 34.028126Q204.49687 36.45 203.3875 37.934376Q202.29375 39.403126 200.40312 39.403126Q198.48125 39.403126 197.37187 38.16875L197.37187 43.2625L195.575 43.2625L195.575 28.6375L197.21562 28.6375L197.30937 29.809376Q198.40312 28.434376 200.37187 28.434376Q202.27812 28.434376 203.3875 29.871876Q204.49687 31.309376 204.49687 33.871876L204.49687 34.028126ZM202.68437 33.825Q202.68437 32.04375 201.91875 31.0125Q201.16875 29.965626 199.84062 29.965626Q198.2 29.965626 197.37187 31.41875L197.37187 36.48125Q198.18437 37.91875 199.85625 37.91875Q201.15312 37.91875 201.91875 36.8875Q202.68437 35.85625 202.68437 33.825ZM208.52812 39.2L206.73125 39.2L206.73125 28.6375L208.52812 28.6375L208.52812 39.2ZM206.575 25.825Q206.575 25.3875 206.84062 25.090626Q207.12187 24.778126 207.6375 24.778126Q208.16875 24.778126 208.43437 25.090626Q208.71562 25.3875 208.71562 25.825Q208.71562 26.2625 208.43437 26.559376Q208.16875 26.85625 207.6375 26.85625Q207.12187 26.85625 206.84062 26.559376Q206.575 26.2625 206.575 25.825ZM214.0125 26.075L214.0125 28.6375L215.99687 28.6375L215.99687 30.028126L214.0125 30.028126L214.0125 36.575Q214.0125 37.215626 214.27812 37.54375Q214.54375 37.85625 215.18437 37.85625Q215.49687 37.85625 216.04375 37.73125L216.04375 39.2Q215.325 39.403126 214.65312 39.403126Q213.45 39.403126 212.825 38.66875Q212.21562 37.934376 212.21562 36.575L212.21562 30.028126L210.29375 30.028126L210.29375 28.6375L212.21562 28.6375L212.21562 26.075L214.0125 26.075ZM225.09062 39.2Q224.93437 38.8875 224.84062 38.090626Q223.575 39.403126 221.825 39.403126Q220.2625 39.403126 219.2625 38.5125Q218.2625 37.621876 218.2625 36.2625Q218.2625 34.621876 219.5125 33.715626Q220.77812 32.79375 223.04375 32.79375L224.80937 32.79375L224.80937 31.965626Q224.80937 31.0125 224.23125 30.45Q223.66875 29.8875 222.575 29.8875Q221.60625 29.8875 220.95 30.3875Q220.29375 30.871876 220.29375 31.559376L218.48125 31.559376Q218.48125 30.778126 219.04375 30.04375Q219.60625 29.29375 220.55937 28.871876Q221.52812 28.434376 222.68437 28.434376Q224.5125 28.434376 225.54375 29.35625Q226.575 30.2625 226.62187 31.871876L226.62187 36.73125Q226.62187 38.184376 226.98125 39.04375L226.98125 39.2L225.09062 39.2ZM222.09062 37.825Q222.95 37.825 223.7 37.3875Q224.46562 36.95 224.80937 36.246876L224.80937 34.075L223.3875 34.075Q220.075 34.075 220.075 36.0125Q220.075 36.871876 220.6375 37.35625Q221.2 37.825 222.09062 37.825ZM231.52812 39.2L229.73125 39.2L229.73125 28.6375L231.52812 28.6375L231.52812 39.2ZM229.575 25.825Q229.575 25.3875 229.84062 25.090626Q230.12187 24.778126 230.6375 24.778126Q231.16875 24.778126 231.43437 25.090626Q231.71562 25.3875 231.71562 25.825Q231.71562 26.2625 231.43437 26.559376Q231.16875 26.85625 230.6375 26.85625Q230.12187 26.85625 229.84062 26.559376Q229.575 26.2625 229.575 25.825ZM240.71562 36.403126Q240.71562 35.66875 240.16875 35.2625Q239.62187 34.85625 238.24687 34.559376Q236.87187 34.2625 236.05937 33.85625Q235.2625 33.45 234.87187 32.8875Q234.49687 32.309376 234.49687 31.528126Q234.49687 30.23125 235.59062 29.340626Q236.68437 28.434376 238.40312 28.434376Q240.2 28.434376 241.30937 29.371876Q242.43437 30.29375 242.43437 31.73125L240.60625 31.73125Q240.60625 30.996876 239.98125 30.465626Q239.35625 29.91875 238.40312 29.91875Q237.40312 29.91875 236.84062 30.35625Q236.29375 30.778126 236.29375 31.48125Q236.29375 32.121876 236.80937 32.465626Q237.325 32.79375 238.68437 33.10625Q240.04375 33.403126 240.87187 33.825Q241.71562 34.23125 242.12187 34.825Q242.52812 35.41875 242.52812 36.2625Q242.52812 37.684376 241.3875 38.54375Q240.2625 39.403126 238.45 39.403126Q237.18437 39.403126 236.2 38.95Q235.23125 38.496876 234.66875 37.7Q234.12187 36.8875 234.12187 35.95L235.93437 35.95Q235.98125 36.85625 236.65312 37.3875Q237.34062 37.91875 238.45 37.91875Q239.48125 37.91875 240.09062 37.5125Q240.71562 37.090626 240.71562 36.403126ZM249.12187 33.825Q249.12187 31.340626 250.2625 29.8875Q251.41875 28.434376 253.34062 28.434376Q255.21562 28.434376 256.29376 29.7L256.3719 28.6375L258.02814 28.6375L258.02814 43.2625L256.23126 43.2625L256.23126 38.215626Q255.1375 39.403126 253.325 39.403126Q251.40312 39.403126 250.2625 37.91875Q249.12187 36.41875 249.12187 33.95L249.12187 33.825ZM250.93437 34.028126Q250.93437 35.85625 251.7 36.8875Q252.46562 37.91875 253.7625 37.91875Q255.37187 37.91875 256.23126 36.496876L256.23126 31.325Q255.37187 29.91875 253.79375 29.91875Q252.48125 29.91875 251.7 30.965626Q250.93437 31.996876 250.93437 34.028126ZM267.09064 38.153126Q266.04376 39.403126 263.9969 39.403126Q262.3094 39.403126 261.41876 38.41875Q260.54376 37.434376 260.52814 35.5125L260.52814 28.6375L262.34064 28.6375L262.34064 35.465626Q262.34064 37.85625 264.29376 37.85625Q266.35626 37.85625 267.04376 36.325L267.04376 28.6375L268.85626 28.6375L268.85626 39.2L267.1375 39.2L267.09064 38.153126ZM275.95 39.403126Q273.8094 39.403126 272.45 37.996876Q271.10626 36.575 271.10626 34.215626L271.10626 33.871876Q271.10626 32.309376 271.7 31.075Q272.3094 29.840626 273.3875 29.1375Q274.46564 28.434376 275.73126 28.434376Q277.79376 28.434376 278.9344 29.79375Q280.075 31.153126 280.075 33.684376L280.075 34.434376L272.91876 34.434376Q272.95 35.996876 273.825 36.965626Q274.7 37.91875 276.04376 37.91875Q277.0125 37.91875 277.66876 37.528126Q278.34064 37.1375 278.84064 36.496876L279.9344 37.35625Q278.60626 39.403126 275.95 39.403126ZM275.73126 29.91875Q274.6375 29.91875 273.8875 30.715626Q273.15314 31.5125 272.98126 32.95L278.2625 32.95L278.2625 32.809376Q278.1844 31.434376 277.5125 30.684376Q276.85626 29.91875 275.73126 29.91875ZM287.1219 33.825Q287.1219 31.403126 288.27814 29.91875Q289.4344 28.434376 291.29376 28.434376Q293.15314 28.434376 294.23126 29.7L294.23126 24.2L296.04376 24.2L296.04376 39.2L294.3875 39.2L294.29376 38.059376Q293.21564 39.403126 291.27814 39.403126Q289.45 39.403126 288.27814 37.903126Q287.1219 36.3875 287.1219 33.965626L287.1219 33.825ZM288.9344 34.028126Q288.9344 35.825 289.66876 36.840626Q290.41876 37.85625 291.73126 37.85625Q293.45 37.85625 294.23126 36.325L294.23126 31.465626Q293.4344 29.965626 291.7469 29.965626Q290.41876 29.965626 289.66876 30.996876Q288.9344 32.028126 288.9344 34.028126ZM300.52814 39.2L298.73126 39.2L298.73126 28.6375L300.52814 28.6375L300.52814 39.2ZM298.575 25.825Q298.575 25.3875 298.84064 25.090626Q299.1219 24.778126 299.6375 24.778126Q300.16876 24.778126 300.4344 25.090626Q300.71564 25.3875 300.71564 25.825Q300.71564 26.2625 300.4344 26.559376Q300.16876 26.85625 299.6375 26.85625Q299.1219 26.85625 298.84064 26.559376Q298.575 26.2625 298.575 25.825ZM309.71564 36.403126Q309.71564 35.66875 309.16876 35.2625Q308.6219 34.85625 307.2469 34.559376Q305.8719 34.2625 305.0594 33.85625Q304.2625 33.45 303.8719 32.8875Q303.4969 32.309376 303.4969 31.528126Q303.4969 30.23125 304.59064 29.340626Q305.6844 28.434376 307.40314 28.434376Q309.2 28.434376 310.3094 29.371876Q311.4344 30.29375 311.4344 31.73125L309.60626 31.73125Q309.60626 30.996876 308.98126 30.465626Q308.35626 29.91875 307.40314 29.91875Q306.40314 29.91875 305.84064 30.35625Q305.29376 30.778126 305.29376 31.48125Q305.29376 32.121876 305.8094 32.465626Q306.325 32.79375 307.6844 33.10625Q309.04376 33.403126 309.8719 33.825Q310.71564 34.23125 311.1219 34.825Q311.52814 35.41875 311.52814 36.2625Q311.52814 37.684376 310.3875 38.54375Q309.2625 39.403126 307.45 39.403126Q306.1844 39.403126 305.2 38.95Q304.23126 38.496876 303.66876 37.7Q303.1219 36.8875 303.1219 35.95L304.9344 35.95Q304.98126 36.85625 305.65314 37.3875Q306.34064 37.91875 307.45 37.91875Q308.48126 37.91875 309.09064 37.5125Q309.71564 37.090626 309.71564 36.403126ZM322.4969 34.028126Q322.4969 36.45 321.3875 37.934376Q320.29376 39.403126 318.40314 39.403126Q316.48126 39.403126 315.3719 38.16875L315.3719 43.2625L313.575 43.2625L313.575 28.6375L315.21564 28.6375L315.3094 29.809376Q316.40314 28.434376 318.3719 28.434376Q320.27814 28.434376 321.3875 29.871876Q322.4969 31.309376 322.4969 33.871876L322.4969 34.028126ZM320.6844 33.825Q320.6844 32.04375 319.91876 31.0125Q319.16876 29.965626 317.84064 29.965626Q316.2 29.965626 315.3719 31.41875L315.3719 36.48125Q316.1844 37.91875 317.85626 37.91875Q319.15314 37.91875 319.91876 36.8875Q320.6844 35.85625 320.6844 33.825ZM324.09064 33.825Q324.09064 32.2625 324.7 31.028126Q325.3094 29.778126 326.3875 29.10625Q327.48126 28.434376 328.8875 28.434376Q331.04376 28.434376 332.3719 29.934376Q333.71564 31.41875 333.71564 33.903126L333.71564 34.028126Q333.71564 35.575 333.1219 36.809376Q332.52814 38.028126 331.41876 38.715626Q330.325 39.403126 328.90314 39.403126Q326.7625 39.403126 325.41876 37.903126Q324.09064 36.403126 324.09064 33.95L324.09064 33.825ZM325.90314 34.028126Q325.90314 35.79375 326.71564 36.85625Q327.54376 37.91875 328.90314 37.91875Q330.27814 37.91875 331.09064 36.840626Q331.90314 35.7625 331.90314 33.825Q331.90314 32.075 331.075 30.996876Q330.2469 29.91875 328.8875 29.91875Q327.54376 29.91875 326.71564 30.98125Q325.90314 32.04375 325.90314 34.028126ZM337.27814 28.6375L337.34064 29.965626Q338.54376 28.434376 340.4969 28.434376Q343.85626 28.434376 343.8719 32.215626L343.8719 39.2L342.075 39.2L342.075 32.2Q342.0594 31.059376 341.54376 30.5125Q341.04376 29.965626 339.95 29.965626Q339.075 29.965626 338.40314 30.434376Q337.7469 30.903126 337.3719 31.66875L337.3719 39.2L335.575 39.2L335.575 28.6375L337.27814 28.6375ZM348.52814 39.2L346.73126 39.2L346.73126 28.6375L348.52814 28.6375L348.52814 39.2ZM346.575 25.825Q346.575 25.3875 346.84064 25.090626Q347.1219 24.778126 347.6375 24.778126Q348.16876 24.778126 348.4344 25.090626Q348.71564 25.3875 348.71564 25.825Q348.71564 26.2625 348.4344 26.559376Q348.16876 26.85625 347.6375 26.85625Q347.1219 26.85625 346.84064 26.559376Q346.575 26.2625 346.575 25.825ZM360.5125 34.028126Q360.5125 36.45 359.40314 37.934376Q358.29376 39.403126 356.41876 39.403126Q354.40314 39.403126 353.3094 37.98125L353.23126 39.2L351.575 39.2L351.575 24.2L353.3719 24.2L353.3719 29.79375Q354.46564 28.434376 356.3875 28.434376Q358.3094 28.434376 359.40314 29.8875Q360.5125 31.340626 360.5125 33.871876L360.5125 34.028126ZM358.7 33.825Q358.7 31.98125 357.98126 30.98125Q357.27814 29.965626 355.95 29.965626Q354.15314 29.965626 353.3719 31.6375L353.3719 36.2Q354.2 37.85625 355.96564 37.85625Q357.2625 37.85625 357.98126 36.85625Q358.7 35.85625 358.7 33.825ZM364.52814 39.2L362.73126 39.2L362.73126 28.6375L364.52814 28.6375L364.52814 39.2ZM362.575 25.825Q362.575 25.3875 362.84064 25.090626Q363.1219 24.778126 363.6375 24.778126Q364.16876 24.778126 364.4344 25.090626Q364.71564 25.3875 364.71564 25.825Q364.71564 26.2625 364.4344 26.559376Q364.16876 26.85625 363.6375 26.85625Q363.1219 26.85625 362.84064 26.559376Q362.575 26.2625 362.575 25.825ZM369.52814 39.2L367.73126 39.2L367.73126 24.2L369.52814 24.2L369.52814 39.2ZM374.52814 39.2L372.73126 39.2L372.73126 28.6375L374.52814 28.6375L374.52814 39.2ZM372.575 25.825Q372.575 25.3875 372.84064 25.090626Q373.1219 24.778126 373.6375 24.778126Q374.16876 24.778126 374.4344 25.090626Q374.71564 25.3875 374.71564 25.825Q374.71564 26.2625 374.4344 26.559376Q374.16876 26.85625 373.6375 26.85625Q373.1219 26.85625 372.84064 26.559376Q372.575 26.2625 372.575 25.825ZM379.2625 37.73125L385.45 37.73125L385.45 39.2L377.0594 39.2L377.0594 37.871876L382.8875 30.121876L377.15314 30.121876L377.15314 28.6375L385.15314 28.6375L385.15314 29.91875L379.2625 37.73125ZM394.09064 39.2Q393.9344 38.8875 393.84064 38.090626Q392.575 39.403126 390.825 39.403126Q389.2625 39.403126 388.2625 38.5125Q387.2625 37.621876 387.2625 36.2625Q387.2625 34.621876 388.5125 33.715626Q389.77814 32.79375 392.04376 32.79375L393.8094 32.79375L393.8094 31.965626Q393.8094 31.0125 393.23126 30.45Q392.66876 29.8875 391.575 29.8875Q390.60626 29.8875 389.95 30.3875Q389.29376 30.871876 389.29376 31.559376L387.48126 31.559376Q387.48126 30.778126 388.04376 30.04375Q388.60626 29.29375 389.5594 28.871876Q390.52814 28.434376 391.6844 28.434376Q393.5125 28.434376 394.54376 29.35625Q395.575 30.2625 395.6219 31.871876L395.6219 36.73125Q395.6219 38.184376 395.98126 39.04375L395.98126 39.2L394.09064 39.2ZM391.09064 37.825Q391.95 37.825 392.7 37.3875Q393.46564 36.95 393.8094 36.246876L393.8094 34.075L392.3875 34.075Q389.075 34.075 389.075 36.0125Q389.075 36.871876 389.6375 37.35625Q390.2 37.825 391.09064 37.825ZM400.2625 28.6375L400.3094 29.809376Q401.48126 28.434376 403.45 28.434376Q405.66876 28.434376 406.46564 30.1375Q406.9969 29.371876 407.84064 28.903126Q408.6844 28.434376 409.84064 28.434376Q413.3094 28.434376 413.3719 32.121876L413.3719 39.2L411.5594 39.2L411.5594 32.23125Q411.5594 31.090626 411.04376 30.528126Q410.52814 29.965626 409.3094 29.965626Q408.3094 29.965626 407.6375 30.575Q406.98126 31.16875 406.8719 32.184376L406.8719 39.2L405.0594 39.2L405.0594 32.278126Q405.0594 29.965626 402.79376 29.965626Q401.0125 29.965626 400.3719 31.48125L400.3719 39.2L398.5594 39.2L398.5594 28.6375L400.2625 28.6375ZM428.09064 39.2Q427.9344 38.8875 427.84064 38.090626Q426.575 39.403126 424.825 39.403126Q423.2625 39.403126 422.2625 38.5125Q421.2625 37.621876 421.2625 36.2625Q421.2625 34.621876 422.5125 33.715626Q423.77814 32.79375 426.04376 32.79375L427.8094 32.79375L427.8094 31.965626Q427.8094 31.0125 427.23126 30.45Q426.66876 29.8875 425.575 29.8875Q424.60626 29.8875 423.95 30.3875Q423.29376 30.871876 423.29376 31.559376L421.48126 31.559376Q421.48126 30.778126 422.04376 30.04375Q422.60626 29.29375 423.5594 28.871876Q424.52814 28.434376 425.6844 28.434376Q427.5125 28.434376 428.54376 29.35625Q429.575 30.2625 429.6219 31.871876L429.6219 36.73125Q429.6219 38.184376 429.98126 39.04375L429.98126 39.2L428.09064 39.2ZM425.09064 37.825Q425.95 37.825 426.7 37.3875Q427.46564 36.95 427.8094 36.246876L427.8094 34.075L426.3875 34.075Q423.075 34.075 423.075 36.0125Q423.075 36.871876 423.6375 37.35625Q424.2 37.825 425.09064 37.825ZM437.66876 30.246876Q437.2625 30.184376 436.79376 30.184376Q435.0125 30.184376 434.3719 31.7L434.3719 39.2L432.575 39.2L432.575 28.6375L434.325 28.6375L434.35626 29.85625Q435.2469 28.434376 436.8719 28.434376Q437.40314 28.434376 437.66876 28.575L437.66876 30.246876ZM439.1219 33.825Q439.1219 31.340626 440.2625 29.8875Q441.41876 28.434376 443.34064 28.434376Q445.21564 28.434376 446.29376 29.7L446.3719 28.6375L448.02814 28.6375L448.02814 43.2625L446.23126 43.2625L446.23126 38.215626Q445.1375 39.403126 443.325 39.403126Q441.40314 39.403126 440.2625 37.91875Q439.1219 36.41875 439.1219 33.95L439.1219 33.825ZM440.9344 34.028126Q440.9344 35.85625 441.7 36.8875Q442.46564 37.91875 443.7625 37.91875Q445.3719 37.91875 446.23126 36.496876L446.23126 31.325Q445.3719 29.91875 443.79376 29.91875Q442.48126 29.91875 441.7 30.965626Q440.9344 31.996876 440.9344 34.028126ZM457.09064 38.153126Q456.04376 39.403126 453.9969 39.403126Q452.3094 39.403126 451.41876 38.41875Q450.54376 37.434376 450.52814 35.5125L450.52814 28.6375L452.34064 28.6375L452.34064 35.465626Q452.34064 37.85625 454.29376 37.85625Q456.35626 37.85625 457.04376 36.325L457.04376 28.6375L458.85626 28.6375L458.85626 39.2L457.1375 39.2L457.09064 38.153126ZM463.52814 39.2L461.73126 39.2L461.73126 28.6375L463.52814 28.6375L463.52814 39.2ZM461.575 25.825Q461.575 25.3875 461.84064 25.090626Q462.1219 24.778126 462.6375 24.778126Q463.16876 24.778126 463.4344 25.090626Q463.71564 25.3875 463.71564 25.825Q463.71564 26.2625 463.4344 26.559376Q463.16876 26.85625 462.6375 26.85625Q462.1219 26.85625 461.84064 26.559376Q461.575 26.2625 461.575 25.825ZM470.0594 36.746876L472.66876 28.6375L474.5125 28.6375L470.73126 39.2L469.35626 39.2L465.52814 28.6375L467.3719 28.6375L470.0594 36.746876ZM476.09064 33.825Q476.09064 32.2625 476.7 31.028126Q477.3094 29.778126 478.3875 29.10625Q479.48126 28.434376 480.8875 28.434376Q483.04376 28.434376 484.3719 29.934376Q485.71564 31.41875 485.71564 33.903126L485.71564 34.028126Q485.71564 35.575 485.1219 36.809376Q484.52814 38.028126 483.41876 38.715626Q482.325 39.403126 480.90314 39.403126Q478.7625 39.403126 477.41876 37.903126Q476.09064 36.403126 476.09064 33.95L476.09064 33.825ZM477.90314 34.028126Q477.90314 35.79375 478.71564 36.85625Q479.54376 37.91875 480.90314 37.91875Q482.27814 37.91875 483.09064 36.840626Q483.90314 35.7625 483.90314 33.825Q483.90314 32.075 483.075 30.996876Q482.2469 29.91875 480.8875 29.91875Q479.54376 29.91875 478.71564 30.98125Q477.90314 32.04375 477.90314 34.028126ZM493.71564 36.403126Q493.71564 35.66875 493.16876 35.2625Q492.6219 34.85625 491.2469 34.559376Q489.8719 34.2625 489.0594 33.85625Q488.2625 33.45 487.8719 32.8875Q487.4969 32.309376 487.4969 31.528126Q487.4969 30.23125 488.59064 29.340626Q489.6844 28.434376 491.40314 28.434376Q493.2 28.434376 494.3094 29.371876Q495.4344 30.29375 495.4344 31.73125L493.60626 31.73125Q493.60626 30.996876 492.98126 30.465626Q492.35626 29.91875 491.40314 29.91875Q490.40314 29.91875 489.84064 30.35625Q489.29376 30.778126 489.29376 31.48125Q489.29376 32.121876 489.8094 32.465626Q490.325 32.79375 491.6844 33.10625Q493.04376 33.403126 493.8719 33.825Q494.71564 34.23125 495.1219 34.825Q495.52814 35.41875 495.52814 36.2625Q495.52814 37.684376 494.3875 38.54375Q493.2625 39.403126 491.45 39.403126Q490.1844 39.403126 489.2 38.95Q488.23126 38.496876 487.66876 37.7Q487.1219 36.8875 487.1219 35.95L488.9344 35.95Q488.98126 36.85625 489.65314 37.3875Q490.34064 37.91875 491.45 37.91875Q492.48126 37.91875 493.09064 37.5125Q493.71564 37.090626 493.71564 36.403126ZM506.95 39.403126Q504.8094 39.403126 503.45 37.996876Q502.10626 36.575 502.10626 34.215626L502.10626 33.871876Q502.10626 32.309376 502.7 31.075Q503.3094 29.840626 504.3875 29.1375Q505.46564 28.434376 506.73126 28.434376Q508.79376 28.434376 509.9344 29.79375Q511.075 31.153126 511.075 33.684376L511.075 34.434376L503.91876 34.434376Q503.95 35.996876 504.825 36.965626Q505.7 37.91875 507.04376 37.91875Q508.0125 37.91875 508.66876 37.528126Q509.34064 37.1375 509.84064 36.496876L510.9344 37.35625Q509.60626 39.403126 506.95 39.403126ZM506.73126 29.91875Q505.6375 29.91875 504.8875 30.715626Q504.15314 31.5125 503.98126 32.95L509.2625 32.95L509.2625 32.809376Q509.1844 31.434376 508.5125 30.684376Q507.85626 29.91875 506.73126 29.91875ZM515.2625 28.6375L515.3094 29.809376Q516.48126 28.434376 518.45 28.434376Q520.66876 28.434376 521.46564 30.1375Q521.9969 29.371876 522.84064 28.903126Q523.6844 28.434376 524.84064 28.434376Q528.3094 28.434376 528.3719 32.121876L528.3719 39.2L526.5594 39.2L526.5594 32.23125Q526.5594 31.090626 526.04376 30.528126Q525.52814 29.965626 524.3094 29.965626Q523.3094 29.965626 522.6375 30.575Q521.98126 31.16875 521.8719 32.184376L521.8719 39.2L520.0594 39.2L520.0594 32.278126Q520.0594 29.965626 517.79376 29.965626Q516.0125 29.965626 515.3719 31.48125L515.3719 39.2L513.5594 39.2L513.5594 28.6375L515.2625 28.6375ZM537.45 39.2L537.45 30.028126L535.79376 30.028126L535.79376 28.6375L537.45 28.6375L537.45 27.54375Q537.45 25.85625 538.35626 24.934376Q539.27814 23.996876 540.9344 23.996876Q541.5594 23.996876 542.16876 24.153126L542.075 25.621876Q541.6219 25.54375 541.10626 25.54375Q540.21564 25.54375 539.73126 26.059376Q539.2625 26.559376 539.2625 27.5125L539.2625 28.6375L541.5125 28.6375L541.5125 30.028126L539.2625 30.028126L539.2625 39.2L537.45 39.2ZM543.09064 33.825Q543.09064 32.2625 543.7 31.028126Q544.3094 29.778126 545.3875 29.10625Q546.48126 28.434376 547.8875 28.434376Q550.04376 28.434376 551.3719 29.934376Q552.71564 31.41875 552.71564 33.903126L552.71564 34.028126Q552.71564 35.575 552.1219 36.809376Q551.52814 38.028126 550.41876 38.715626Q549.325 39.403126 547.90314 39.403126Q545.7625 39.403126 544.41876 37.903126Q543.09064 36.403126 543.09064 33.95L543.09064 33.825ZM544.90314 34.028126Q544.90314 35.79375 545.71564 36.85625Q546.54376 37.91875 547.90314 37.91875Q549.27814 37.91875 550.09064 36.840626Q550.90314 35.7625 550.90314 33.825Q550.90314 32.075 550.075 30.996876Q549.2469 29.91875 547.8875 29.91875Q546.54376 29.91875 545.71564 30.98125Q544.90314 32.04375 544.90314 34.028126ZM559.66876 30.246876Q559.2625 30.184376 558.79376 30.184376Q557.0125 30.184376 556.3719 31.7L556.3719 39.2L554.575 39.2L554.575 28.6375L556.325 28.6375L556.35626 29.85625Q557.2469 28.434376 558.8719 28.434376Q559.40314 28.434376 559.66876 28.575L559.66876 30.246876ZM563.2625 28.6375L563.3094 29.809376Q564.48126 28.434376 566.45 28.434376Q568.66876 28.434376 569.46564 30.1375Q569.9969 29.371876 570.84064 28.903126Q571.6844 28.434376 572.84064 28.434376Q576.3094 28.434376 576.3719 32.121876L576.3719 39.2L574.5594 39.2L574.5594 32.23125Q574.5594 31.090626 574.04376 30.528126Q573.52814 29.965626 572.3094 29.965626Q571.3094 29.965626 570.6375 30.575Q569.98126 31.16875 569.8719 32.184376L569.8719 39.2L568.0594 39.2L568.0594 32.278126Q568.0594 29.965626 565.79376 29.965626Q564.0125 29.965626 563.3719 31.48125L563.3719 39.2L561.5594 39.2L561.5594 28.6375L563.2625 28.6375ZM586.09064 39.2Q585.9344 38.8875 585.84064 38.090626Q584.575 39.403126 582.825 39.403126Q581.2625 39.403126 580.2625 38.5125Q579.2625 37.621876 579.2625 36.2625Q579.2625 34.621876 580.5125 33.715626Q581.77814 32.79375 584.04376 32.79375L585.8094 32.79375L585.8094 31.965626Q585.8094 31.0125 585.23126 30.45Q584.66876 29.8875 583.575 29.8875Q582.60626 29.8875 581.95 30.3875Q581.29376 30.871876 581.29376 31.559376L579.48126 31.559376Q579.48126 30.778126 580.04376 30.04375Q580.60626 29.29375 581.5594 28.871876Q582.52814 28.434376 583.6844 28.434376Q585.5125 28.434376 586.54376 29.35625Q587.575 30.2625 587.6219 31.871876L587.6219 36.73125Q587.6219 38.184376 587.98126 39.04375L587.98126 39.2L586.09064 39.2ZM583.09064 37.825Q583.95 37.825 584.7 37.3875Q585.46564 36.95 585.8094 36.246876L585.8094 34.075L584.3875 34.075Q581.075 34.075 581.075 36.0125Q581.075 36.871876 581.6375 37.35625Q582.2 37.825 583.09064 37.825ZM593.0125 26.075L593.0125 28.6375L594.9969 28.6375L594.9969 30.028126L593.0125 30.028126L593.0125 36.575Q593.0125 37.215626 593.27814 37.54375Q593.54376 37.85625 594.1844 37.85625Q594.4969 37.85625 595.04376 37.73125L595.04376 39.2Q594.325 39.403126 593.65314 39.403126Q592.45 39.403126 591.825 38.66875Q591.21564 37.934376 591.21564 36.575L591.21564 30.028126L589.29376 30.028126L589.29376 28.6375L591.21564 28.6375L591.21564 26.075L593.0125 26.075ZM597.09064 33.825Q597.09064 32.2625 597.7 31.028126Q598.3094 29.778126 599.3875 29.10625Q600.48126 28.434376 601.8875 28.434376Q604.04376 28.434376 605.3719 29.934376Q606.71564 31.41875 606.71564 33.903126L606.71564 34.028126Q606.71564 35.575 606.1219 36.809376Q605.52814 38.028126 604.41876 38.715626Q603.325 39.403126 601.90314 39.403126Q599.7625 39.403126 598.41876 37.903126Q597.09064 36.403126 597.09064 33.95L597.09064 33.825ZM598.90314 34.028126Q598.90314 35.79375 599.71564 36.85625Q600.54376 37.91875 601.90314 37.91875Q603.27814 37.91875 604.09064 36.840626Q604.90314 35.7625 604.90314 33.825Q604.90314 32.075 604.075 30.996876Q603.2469 29.91875 601.8875 29.91875Q600.54376 29.91875 599.71564 30.98125Q598.90314 32.04375 598.90314 34.028126Z" fill-rule="nonzero"/><path fill="#2e2e2e" d="M23.278126 52.6375L23.340626 53.965626Q24.54375 52.434376 26.496876 52.434376Q29.85625 52.434376 29.871876 56.215626L29.871876 63.2L28.075 63.2L28.075 56.2Q28.059376 55.059376 27.54375 54.5125Q27.04375 53.965626 25.95 53.965626Q25.075 53.965626 24.403126 54.434376Q23.746876 54.903126 23.371876 55.66875L23.371876 63.2L21.575 63.2L21.575 52.6375L23.278126 52.6375ZM39.090626 63.2Q38.934376 62.8875 38.840626 62.090626Q37.575 63.403126 35.825 63.403126Q34.2625 63.403126 33.2625 62.5125Q32.2625 61.621876 32.2625 60.2625Q32.2625 58.621876 33.5125 57.715626Q34.778126 56.79375 37.04375 56.79375L38.809376 56.79375L38.809376 55.965626Q38.809376 55.0125 38.23125 54.45Q37.66875 53.8875 36.575 53.8875Q35.60625 53.8875 34.95 54.3875Q34.29375 54.871876 34.29375 55.559376L32.48125 55.559376Q32.48125 54.778126 33.04375 54.04375Q33.60625 53.29375 34.559376 52.871876Q35.528126 52.434376 36.684376 52.434376Q38.5125 52.434376 39.54375 53.35625Q40.575 54.2625 40.621876 55.871876L40.621876 60.73125Q40.621876 62.184376 40.98125 63.04375L40.98125 63.2L39.090626 63.2ZM36.090626 61.825Q36.95 61.825 37.7 61.3875Q38.465626 60.95 38.809376 60.246876L38.809376 58.075L37.3875 58.075Q34.075 58.075 34.075 60.0125Q34.075 60.871876 34.6375 61.35625Q35.2 61.825 36.090626 61.825ZM40.340626 48.496876Q40.340626 49.559376 39.73125 50.215626Q39.1375 50.871876 38.23125 50.871876Q37.840626 50.871876 37.54375 50.778126Q37.246876 50.66875 36.778126 50.371876Q36.309376 50.059376 36.090626 49.996876Q35.8875 49.934376 35.60625 49.934376Q35.215626 49.934376 34.91875 50.246876Q34.6375 50.559376 34.6375 51.028126L33.434376 50.965626Q33.434376 49.91875 34.028126 49.246876Q34.621876 48.559376 35.528126 48.559376Q35.871876 48.559376 36.1375 48.653126Q36.41875 48.746876 36.8875 49.028126Q37.35625 49.309376 37.590626 49.403126Q37.840626 49.496876 38.153126 49.496876Q38.575 49.496876 38.840626 49.16875Q39.121876 48.825 39.121876 48.3875L40.340626 48.496876ZM43.090626 57.825Q43.090626 56.2625 43.7 55.028126Q44.309376 53.778126 45.3875 53.10625Q46.48125 52.434376 47.8875 52.434376Q50.04375 52.434376 51.371876 53.934376Q52.715626 55.41875 52.715626 57.903126L52.715626 58.028126Q52.715626 59.575 52.121876 60.809376Q51.528126 62.028126 50.41875 62.715626Q49.325 63.403126 47.903126 63.403126Q45.7625 63.403126 44.41875 61.903126Q43.090626 60.403126 43.090626 57.95L43.090626 57.825ZM44.903126 58.028126Q44.903126 59.79375 45.715626 60.85625Q46.54375 61.91875 47.903126 61.91875Q49.278126 61.91875 50.090626 60.840626Q50.903126 59.7625 50.903126 57.825Q50.903126 56.075 50.075 54.996876Q49.246876 53.91875 47.8875 53.91875Q46.54375 53.91875 45.715626 54.98125Q44.903126 56.04375 44.903126 58.028126ZM68.49687 58.028126Q68.49687 60.45 67.3875 61.934376Q66.29375 63.403126 64.40312 63.403126Q62.48125 63.403126 61.371876 62.16875L61.371876 67.2625L59.575 67.2625L59.575 52.6375L61.215626 52.6375L61.309376 53.809376Q62.403126 52.434376 64.37187 52.434376Q66.27812 52.434376 67.3875 53.871876Q68.49687 55.309376 68.49687 57.871876L68.49687 58.028126ZM66.68437 57.825Q66.68437 56.04375 65.91875 55.0125Q65.16875 53.965626 63.840626 53.965626Q62.2 53.965626 61.371876 55.41875L61.371876 60.48125Q62.184376 61.91875 63.85625 61.91875Q65.15312 61.91875 65.91875 60.8875Q66.68437 59.85625 66.68437 57.825ZM75.66875 54.246876Q75.2625 54.184376 74.79375 54.184376Q73.0125 54.184376 72.37187 55.7L72.37187 63.2L70.575 63.2L70.575 52.6375L72.325 52.6375L72.35625 53.85625Q73.24687 52.434376 74.87187 52.434376Q75.40312 52.434376 75.66875 52.575L75.66875 54.246876ZM77.09062 57.825Q77.09062 56.2625 77.7 55.028126Q78.30937 53.778126 79.3875 53.10625Q80.48125 52.434376 81.8875 52.434376Q84.04375 52.434376 85.37187 53.934376Q86.71562 55.41875 86.71562 57.903126L86.71562 58.028126Q86.71562 59.575 86.12187 60.809376Q85.52812 62.028126 84.41875 62.715626Q83.325 63.403126 81.90312 63.403126Q79.7625 63.403126 78.41875 61.903126Q77.09062 60.403126 77.09062 57.95L77.09062 57.825ZM78.90312 58.028126Q78.90312 59.79375 79.71562 60.85625Q80.54375 61.91875 81.90312 61.91875Q83.27812 61.91875 84.09062 60.840626Q84.90312 59.7625 84.90312 57.825Q84.90312 56.075 84.075 54.996876Q83.24687 53.91875 81.8875 53.91875Q80.54375 53.91875 79.71562 54.98125Q78.90312 56.04375 78.90312 58.028126ZM97.49687 58.028126Q97.49687 60.45 96.3875 61.934376Q95.29375 63.403126 93.40312 63.403126Q91.48125 63.403126 90.37187 62.16875L90.37187 67.2625L88.575 67.2625L88.575 52.6375L90.21562 52.6375L90.30937 53.809376Q91.40312 52.434376 93.37187 52.434376Q95.27812 52.434376 96.3875 53.871876Q97.49687 55.309376 97.49687 57.871876L97.49687 58.028126ZM95.68437 57.825Q95.68437 56.04375 94.91875 55.0125Q94.16875 53.965626 92.84062 53.965626Q91.2 53.965626 90.37187 55.41875L90.37187 60.48125Q91.18437 61.91875 92.85625 61.91875Q94.15312 61.91875 94.91875 60.8875Q95.68437 59.85625 95.68437 57.825ZM104.66875 54.246876Q104.2625 54.184376 103.79375 54.184376Q102.0125 54.184376 101.37187 55.7L101.37187 63.2L99.575 63.2L99.575 52.6375L101.325 52.6375L101.35625 53.85625Q102.24687 52.434376 103.87187 52.434376Q104.40312 52.434376 104.66875 52.575L104.66875 54.246876ZM108.52812 63.2L106.73125 63.2L106.73125 52.6375L108.52812 52.6375L108.52812 63.2ZM106.575 49.825Q106.575 49.3875 106.84062 49.090626Q107.12187 48.778126 107.6375 48.778126Q108.16875 48.778126 108.43437 49.090626Q108.71562 49.3875 108.71562 49.825Q108.71562 50.2625 108.43437 50.559376Q108.16875 50.85625 107.6375 50.85625Q107.12187 50.85625 106.84062 50.559376Q106.575 50.2625 106.575 49.825ZM115.95 63.403126Q113.80937 63.403126 112.45 61.996876Q111.10625 60.575 111.10625 58.215626L111.10625 57.871876Q111.10625 56.309376 111.7 55.075Q112.30937 53.840626 113.3875 53.1375Q114.46562 52.434376 115.73125 52.434376Q117.79375 52.434376 118.93437 53.79375Q120.075 55.153126 120.075 57.684376L120.075 58.434376L112.91875 58.434376Q112.95 59.996876 113.825 60.965626Q114.7 61.91875 116.04375 61.91875Q117.0125 61.91875 117.66875 61.528126Q118.34062 61.1375 118.84062 60.496876L119.93437 61.35625Q118.60625 63.403126 115.95 63.403126ZM115.73125 53.91875Q114.6375 53.91875 113.8875 54.715626Q113.15312 55.5125 112.98125 56.95L118.2625 56.95L118.2625 56.809376Q118.18437 55.434376 117.5125 54.684376Q116.85625 53.91875 115.73125 53.91875ZM125.0125 50.075L125.0125 52.6375L126.99687 52.6375L126.99687 54.028126L125.0125 54.028126L125.0125 60.575Q125.0125 61.215626 125.27812 61.54375Q125.54375 61.85625 126.18437 61.85625Q126.49687 61.85625 127.04375 61.73125L127.04375 63.2Q126.325 63.403126 125.65312 63.403126Q124.45 63.403126 123.825 62.66875Q123.21562 61.934376 123.21562 60.575L123.21562 54.028126L121.29375 54.028126L121.29375 52.6375L123.21562 52.6375L123.21562 50.075L125.0125 50.075ZM136.09062 63.2Q135.93437 62.8875 135.84062 62.090626Q134.575 63.403126 132.825 63.403126Q131.2625 63.403126 130.2625 62.5125Q129.2625 61.621876 129.2625 60.2625Q129.2625 58.621876 130.5125 57.715626Q131.77812 56.79375 134.04375 56.79375L135.80937 56.79375L135.80937 55.965626Q135.80937 55.0125 135.23125 54.45Q134.66875 53.8875 133.575 53.8875Q132.60625 53.8875 131.95 54.3875Q131.29375 54.871876 131.29375 55.559376L129.48125 55.559376Q129.48125 54.778126 130.04375 54.04375Q130.60625 53.29375 131.55937 52.871876Q132.52812 52.434376 133.68437 52.434376Q135.5125 52.434376 136.54375 53.35625Q137.575 54.2625 137.62187 55.871876L137.62187 60.73125Q137.62187 62.184376 137.98125 63.04375L137.98125 63.2L136.09062 63.2ZM133.09062 61.825Q133.95 61.825 134.7 61.3875Q135.46562 60.95 135.80937 60.246876L135.80937 58.075L134.3875 58.075Q131.075 58.075 131.075 60.0125Q131.075 60.871876 131.6375 61.35625Q132.2 61.825 133.09062 61.825ZM134.77812 48.2L136.96562 48.2L134.34062 51.075L132.8875 51.075L134.77812 48.2ZM145.66875 54.246876Q145.2625 54.184376 144.79375 54.184376Q143.0125 54.184376 142.37187 55.7L142.37187 63.2L140.575 63.2L140.575 52.6375L142.325 52.6375L142.35625 53.85625Q143.24687 52.434376 144.87187 52.434376Q145.40312 52.434376 145.66875 52.575L145.66875 54.246876ZM149.52812 63.2L147.73125 63.2L147.73125 52.6375L149.52812 52.6375L149.52812 63.2ZM147.575 49.825Q147.575 49.3875 147.84062 49.090626Q148.12187 48.778126 148.6375 48.778126Q149.16875 48.778126 149.43437 49.090626Q149.71562 49.3875 149.71562 49.825Q149.71562 50.2625 149.43437 50.559376Q149.16875 50.85625 148.6375 50.85625Q148.12187 50.85625 147.84062 50.559376Q147.575 50.2625 147.575 49.825ZM152.09062 57.825Q152.09062 56.2625 152.7 55.028126Q153.30937 53.778126 154.3875 53.10625Q155.48125 52.434376 156.8875 52.434376Q159.04375 52.434376 160.37187 53.934376Q161.71562 55.41875 161.71562 57.903126L161.71562 58.028126Q161.71562 59.575 161.12187 60.809376Q160.52812 62.028126 159.41875 62.715626Q158.325 63.403126 156.90312 63.403126Q154.7625 63.403126 153.41875 61.903126Q152.09062 60.403126 152.09062 57.95L152.09062 57.825ZM153.90312 58.028126Q153.90312 59.79375 154.71562 60.85625Q155.54375 61.91875 156.90312 61.91875Q158.27812 61.91875 159.09062 60.840626Q159.90312 59.7625 159.90312 57.825Q159.90312 56.075 159.075 54.996876Q158.24687 53.91875 156.8875 53.91875Q155.54375 53.91875 154.71562 54.98125Q153.90312 56.04375 153.90312 58.028126Z" fill-rule="nonzero"/></svg>