<svg version="1.1" viewBox="0.0 0.0 654.0 404.0" fill="none" stroke="none" stroke-linecap="square" stroke-miterlimit="10" width="654" height="404" xmlns:xlink="http://www.w3.org/1999/xlink" xmlns="http://www.w3.org/2000/svg"><path fill="#ffffff" d="M0 0L654.0 0L654.0 404.0L0 404.0L0 0Z" fill-rule="nonzero"/><path fill="#ffffff" d="M196.20044 123.356674C226.97203 82.023254 275.47 57.666668 327.0 57.666668L327.0 220.73334Z" fill-rule="nonzero"/><path fill="#2e2e2e" d="M327.0 57.666668C402.57263 57.666668 468.24295 109.59202 485.67117 183.12758C503.09943 256.66312 467.71835 332.5381 400.18417 366.45502C332.65002 400.37195 250.66083 383.44257 202.08368 325.55057C153.50653 267.65857 151.0716 183.97523 196.20044 123.356674L327.0 220.73334Z" fill-rule="nonzero"/><path stroke="#2e2e2e" stroke-width="1.0" stroke-linejoin="round" stroke-linecap="round" d="M327.0 220.73334L327.0 57.666668C402.57263 57.666668 468.24295 109.59202 485.67117 183.12758C503.09943 256.66312 467.71835 332.5381 400.18417 366.45502C332.65002 400.37195 250.66083 383.44257 202.08368 325.55057C153.50653 267.65857 151.0716 183.97523 196.20044 123.356674" fill-rule="nonzero"/><path stroke="#2e2e2e" stroke-width="1.0" stroke-linejoin="round" stroke-linecap="round" d="M327.0 220.73334L196.20044 123.356674C226.97203 82.023254 275.47 57.666668 327.0 57.666668" fill-rule="nonzero"/><path fill="#2e2e2e" d="M27.746876 77.79772L26.621876 77.79772L22.325 71.2196L22.325 77.79772L21.184376 77.79772L21.184376 69.26647L22.325 69.26647L26.621876 75.87585L26.621876 69.26647L27.746876 69.26647L27.746876 77.79772ZM33.934376 77.79772Q33.840626 77.61022 33.778126 77.12585Q33.028126 77.92272 31.98125 77.92272Q31.04375 77.92272 30.434376 77.39147Q29.840626 76.86022 29.840626 76.0321Q29.840626 75.04772 30.590626 74.50085Q31.340626 73.95397 32.715626 73.95397L33.7625 73.95397L33.7625 73.45397Q33.7625 72.89147 33.41875 72.56335Q33.090626 72.2196 32.41875 72.2196Q31.840626 72.2196 31.45 72.51647Q31.059376 72.79772 31.059376 73.2196L29.965626 73.2196Q29.965626 72.73522 30.29375 72.29772Q30.6375 71.86022 31.215626 71.61022Q31.79375 71.3446 32.48125 71.3446Q33.590626 71.3446 34.2 71.89147Q34.825 72.43835 34.85625 73.39147L34.85625 76.31335Q34.85625 77.18835 35.075 77.70397L35.075 77.79772L33.934376 77.79772ZM32.1375 76.9696Q32.653126 76.9696 33.10625 76.70397Q33.559376 76.43835 33.7625 76.01647L33.7625 74.7196L32.91875 74.7196Q30.91875 74.7196 30.91875 75.89147Q30.91875 76.39147 31.2625 76.68835Q31.60625 76.9696 32.1375 76.9696ZM34.684376 68.9696Q34.684376 69.61022 34.325 70.00085Q33.965626 70.39147 33.434376 70.39147Q33.184376 70.39147 33.0125 70.3446Q32.840626 70.2821 32.54375 70.0946Q32.2625 69.9071 32.1375 69.87585Q32.0125 69.8446 31.85625 69.8446Q31.60625 69.8446 31.434376 70.0321Q31.278126 70.20397 31.278126 70.50085L30.54375 70.45397Q30.54375 69.82897 30.903126 69.42272Q31.2625 69.00085 31.79375 69.00085Q32.0125 69.00085 32.16875 69.06335Q32.340626 69.12585 32.621876 69.29772Q32.903126 69.4696 33.04375 69.51647Q33.2 69.56335 33.371876 69.56335Q33.621876 69.56335 33.79375 69.37585Q33.965626 69.17272 33.965626 68.9071L34.684376 68.9696ZM36.73125 74.56335Q36.73125 73.64147 37.090626 72.89147Q37.465626 72.14147 38.121876 71.75085Q38.778126 71.3446 39.60625 71.3446Q40.903126 71.3446 41.7 72.23522Q42.5125 73.12585 42.5125 74.62585L42.5125 74.70397Q42.5125 75.62585 42.153126 76.36022Q41.79375 77.0946 41.1375 77.51647Q40.48125 77.92272 39.621876 77.92272Q38.340626 77.92272 37.528126 77.0321Q36.73125 76.12585 36.73125 74.64147L36.73125 74.56335ZM37.825 74.70397Q37.825 75.75085 38.309376 76.39147Q38.809376 77.0321 39.621876 77.0321Q40.45 77.0321 40.934376 76.39147Q41.41875 75.73522 41.41875 74.56335Q41.41875 73.5321 40.91875 72.89147Q40.434376 72.23522 39.60625 72.23522Q38.809376 72.23522 38.309376 72.87585Q37.825 73.50085 37.825 74.70397ZM48.309376 74.45397L48.309376 77.79772L47.184376 77.79772L47.184376 69.26647L50.340626 69.26647Q51.73125 69.26647 52.528126 69.98522Q53.325 70.68835 53.325 71.87585Q53.325 73.11022 52.54375 73.7821Q51.778126 74.45397 50.325 74.45397L48.309376 74.45397ZM48.309376 73.5321L50.340626 73.5321Q51.246876 73.5321 51.715626 73.11022Q52.2 72.68835 52.2 71.89147Q52.2 71.12585 51.715626 70.67272Q51.246876 70.20397 50.403126 70.18835L48.309376 70.18835L48.309376 73.5321ZM54.73125 74.56335Q54.73125 73.64147 55.090626 72.89147Q55.465626 72.14147 56.121876 71.75085Q56.778126 71.3446 57.60625 71.3446Q58.903126 71.3446 59.7 72.23522Q60.5125 73.12585 60.5125 74.62585L60.5125 74.70397Q60.5125 75.62585 60.153126 76.36022Q59.79375 77.0946 59.1375 77.51647Q58.48125 77.92272 57.621876 77.92272Q56.340626 77.92272 55.528126 77.0321Q54.73125 76.12585 54.73125 74.64147L54.73125 74.56335ZM55.825 74.70397Q55.825 75.75085 56.309376 76.39147Q56.809376 77.0321 57.621876 77.0321Q58.45 77.0321 58.934376 76.39147Q59.41875 75.73522 59.41875 74.56335Q59.41875 73.5321 58.91875 72.89147Q58.434376 72.23522 57.60625 72.23522Q56.809376 72.23522 56.309376 72.87585Q55.825 73.50085 55.825 74.70397ZM65.71562 76.11022Q65.71562 75.67272 65.37187 75.43835Q65.04375 75.18835 64.21562 75.01647Q63.403126 74.8446 62.91875 74.5946Q62.434376 74.3446 62.2 74.01647Q61.98125 73.67272 61.98125 73.20397Q61.98125 72.42272 62.6375 71.89147Q63.29375 71.3446 64.325 71.3446Q65.40312 71.3446 66.05937 71.9071Q66.73125 72.45397 66.73125 73.31335L65.65312 73.31335Q65.65312 72.87585 65.2625 72.56335Q64.8875 72.23522 64.325 72.23522Q63.73125 72.23522 63.3875 72.50085Q63.059376 72.75085 63.059376 73.1571Q63.059376 73.54772 63.371876 73.75085Q63.684376 73.95397 64.49687 74.14147Q65.30937 74.31335 65.80937 74.56335Q66.30937 74.81335 66.54375 75.17272Q66.79375 75.5321 66.79375 76.0321Q66.79375 76.89147 66.10625 77.4071Q65.43437 77.92272 64.35625 77.92272Q63.590626 77.92272 62.996876 77.6571Q62.41875 77.37585 62.090626 76.89147Q61.7625 76.4071 61.7625 75.8446L62.840626 75.8446Q62.871876 76.39147 63.278126 76.7196Q63.684376 77.0321 64.35625 77.0321Q64.96562 77.0321 65.34062 76.7821Q65.71562 76.5321 65.71562 76.11022ZM71.71562 76.11022Q71.71562 75.67272 71.37187 75.43835Q71.04375 75.18835 70.21562 75.01647Q69.40312 74.8446 68.91875 74.5946Q68.43437 74.3446 68.2 74.01647Q67.98125 73.67272 67.98125 73.20397Q67.98125 72.42272 68.6375 71.89147Q69.29375 71.3446 70.325 71.3446Q71.40312 71.3446 72.05937 71.9071Q72.73125 72.45397 72.73125 73.31335L71.65312 73.31335Q71.65312 72.87585 71.2625 72.56335Q70.8875 72.23522 70.325 72.23522Q69.73125 72.23522 69.3875 72.50085Q69.05937 72.75085 69.05937 73.1571Q69.05937 73.54772 69.37187 73.75085Q69.68437 73.95397 70.49687 74.14147Q71.30937 74.31335 71.80937 74.56335Q72.30937 74.81335 72.54375 75.17272Q72.79375 75.5321 72.79375 76.0321Q72.79375 76.89147 72.10625 77.4071Q71.43437 77.92272 70.35625 77.92272Q69.59062 77.92272 68.99687 77.6571Q68.41875 77.37585 68.09062 76.89147Q67.7625 76.4071 67.7625 75.8446L68.84062 75.8446Q68.87187 76.39147 69.27812 76.7196Q69.68437 77.0321 70.35625 77.0321Q70.96562 77.0321 71.34062 76.7821Q71.71562 76.5321 71.71562 76.11022ZM77.93437 77.17272Q77.30937 77.92272 76.075 77.92272Q75.05937 77.92272 74.52812 77.32897Q73.99687 76.73522 73.99687 75.57897L73.99687 71.45397L75.075 71.45397L75.075 75.54772Q75.075 77.00085 76.24687 77.00085Q77.49687 77.00085 77.90312 76.06335L77.90312 71.45397L78.99687 71.45397L78.99687 77.79772L77.96562 77.79772L77.93437 77.17272ZM82.2 77.79772L81.12187 77.79772L81.12187 71.45397L82.2 71.45397L82.2 77.79772ZM81.02812 69.7821Q81.02812 69.51647 81.18437 69.32897Q81.35625 69.14147 81.66875 69.14147Q81.98125 69.14147 82.1375 69.32897Q82.30937 69.51647 82.30937 69.7821Q82.30937 70.0321 82.1375 70.2196Q81.98125 70.39147 81.66875 70.39147Q81.35625 70.39147 81.18437 70.2196Q81.02812 70.0321 81.02812 69.7821Z" fill-rule="nonzero"/><path fill="#9e9e9e" d="M24.465626 95.79772L23.3875 95.79772L23.3875 88.57897L21.2 89.37585L21.2 88.39147L24.309376 87.2196L24.465626 87.2196L24.465626 95.79772ZM32.48125 92.93835L33.66875 92.93835L33.66875 93.81335L32.48125 93.81335L32.48125 95.79772L31.403126 95.79772L31.403126 93.81335L27.5125 93.81335L27.5125 93.17272L31.325 87.26647L32.48125 87.26647L32.48125 92.93835ZM28.746876 92.93835L31.403126 92.93835L31.403126 88.75085L31.2625 88.98522L28.746876 92.93835ZM34.98125 97.50085L34.371876 97.07897Q34.91875 96.31335 34.95 95.48522L34.95 94.51647L36.0125 94.51647L36.0125 95.36022Q36.0125 95.95397 35.715626 96.54772Q35.41875 97.14147 34.98125 97.50085ZM42.090626 89.48522Q42.090626 90.12585 41.746876 90.62585Q41.403126 91.12585 40.840626 91.4071Q41.496876 91.68835 41.8875 92.25085Q42.278126 92.79772 42.278126 93.50085Q42.278126 94.5946 41.528126 95.26647Q40.79375 95.92272 39.575 95.92272Q38.340626 95.92272 37.590626 95.26647Q36.85625 94.5946 36.85625 93.50085Q36.85625 92.79772 37.23125 92.25085Q37.60625 91.68835 38.278126 91.4071Q37.715626 91.12585 37.3875 90.62585Q37.059376 90.12585 37.059376 89.48522Q37.059376 88.4071 37.746876 87.7821Q38.434376 87.14147 39.575 87.14147Q40.7 87.14147 41.3875 87.7821Q42.090626 88.4071 42.090626 89.48522ZM41.2 93.4696Q41.2 92.75085 40.746876 92.31335Q40.29375 91.86022 39.559376 91.86022Q38.825 91.86022 38.371876 92.31335Q37.934376 92.75085 37.934376 93.48522Q37.934376 94.20397 38.371876 94.62585Q38.809376 95.0321 39.575 95.0321Q40.325 95.0321 40.7625 94.61022Q41.2 94.18835 41.2 93.4696ZM39.575 88.0321Q38.934376 88.0321 38.528126 88.43835Q38.1375 88.82897 38.1375 89.51647Q38.1375 90.1571 38.528126 90.56335Q38.91875 90.9696 39.559376 90.9696Q40.215626 90.9696 40.60625 90.56335Q40.996876 90.1571 40.996876 89.51647Q40.996876 88.86022 40.590626 88.45397Q40.184376 88.0321 39.575 88.0321ZM43.809376 88.9071Q43.809376 88.14147 44.29375 87.64147Q44.79375 87.14147 45.559376 87.14147Q46.340626 87.14147 46.825 87.64147Q47.309376 88.14147 47.309376 88.93835L47.309376 89.36022Q47.309376 90.12585 46.809376 90.62585Q46.325 91.11022 45.575 91.11022Q44.809376 91.11022 44.309376 90.62585Q43.809376 90.12585 43.809376 89.31335L43.809376 88.9071ZM44.621876 89.36022Q44.621876 89.81335 44.871876 90.11022Q45.1375 90.4071 45.575 90.4071Q45.996876 90.4071 46.246876 90.12585Q46.496876 89.82897 46.496876 89.32897L46.496876 88.9071Q46.496876 88.45397 46.246876 88.1571Q45.996876 87.8446 45.559376 87.8446Q45.121876 87.8446 44.871876 88.1571Q44.621876 88.45397 44.621876 88.92272L44.621876 89.36022ZM47.965626 93.70397Q47.965626 92.93835 48.45 92.45397Q48.95 91.95397 49.715626 91.95397Q50.48125 91.95397 50.965626 92.45397Q51.465626 92.93835 51.465626 93.75085L51.465626 94.1571Q51.465626 94.92272 50.98125 95.42272Q50.496876 95.92272 49.73125 95.92272Q48.965626 95.92272 48.465626 95.43835Q47.965626 94.93835 47.965626 94.12585L47.965626 93.70397ZM48.778126 94.1571Q48.778126 94.62585 49.028126 94.92272Q49.29375 95.2196 49.73125 95.2196Q50.153126 95.2196 50.403126 94.93835Q50.653126 94.64147 50.653126 94.14147L50.653126 93.70397Q50.653126 93.23522 50.3875 92.95397Q50.1375 92.6571 49.715626 92.6571Q49.29375 92.6571 49.028126 92.95397Q48.778126 93.23522 48.778126 93.73522L48.778126 94.1571ZM45.825 95.1571L45.2 94.76647L49.371876 88.0946L49.98125 88.48522L45.825 95.1571Z" fill-rule="nonzero"/><path stroke="#757575" stroke-width="1.0" stroke-linecap="butt" d="M20.2 82.29772L157.93333 82.29772L257.47504 82.29772" fill-rule="nonzero"/><path fill="#9e9e9e" d="M259.47504 82.29772C259.47504 81.19315 258.5796 80.29772 257.47504 80.29772C256.37045 80.29772 255.47502 81.19315 255.47502 82.29772C255.47502 83.40229 256.37045 84.29772 257.47504 84.29772C258.5796 84.29772 259.47504 83.40229 259.47504 82.29772" fill-rule="nonzero"/><path fill="#2e2e2e" d="M598.90936 351.3252L598.90936 354.66895L597.78436 354.66895L597.78436 346.1377L600.9406 346.1377Q602.33124 346.1377 603.1281 346.85645Q603.925 347.55957 603.925 348.74707Q603.925 349.98145 603.14374 350.65332Q602.3781 351.3252 600.925 351.3252L598.90936 351.3252ZM598.90936 350.40332L600.9406 350.40332Q601.84686 350.40332 602.3156 349.98145Q602.8 349.55957 602.8 348.7627Q602.8 347.99707 602.3156 347.54395Q601.84686 347.0752 601.0031 347.05957L598.90936 347.05957L598.90936 350.40332ZM605.33124 351.43457Q605.33124 350.5127 605.6906 349.7627Q606.0656 349.0127 606.72186 348.62207Q607.3781 348.21582 608.20624 348.21582Q609.5031 348.21582 610.3 349.10645Q611.1125 349.99707 611.1125 351.49707L611.1125 351.5752Q611.1125 352.49707 610.7531 353.23145Q610.39374 353.96582 609.7375 354.3877Q609.08124 354.79395 608.22186 354.79395Q606.9406 354.79395 606.1281 353.90332Q605.33124 352.99707 605.33124 351.5127L605.33124 351.43457ZM606.425 351.5752Q606.425 352.62207 606.90936 353.2627Q607.40936 353.90332 608.22186 353.90332Q609.05 353.90332 609.53436 353.2627Q610.01874 352.60645 610.01874 351.43457Q610.01874 350.40332 609.51874 349.7627Q609.03436 349.10645 608.20624 349.10645Q607.40936 349.10645 606.90936 349.74707Q606.425 350.37207 606.425 351.5752ZM616.3156 352.98145Q616.3156 352.54395 615.97186 352.30957Q615.64374 352.05957 614.8156 351.8877Q614.0031 351.71582 613.51874 351.46582Q613.03436 351.21582 612.8 350.8877Q612.58124 350.54395 612.58124 350.0752Q612.58124 349.29395 613.2375 348.7627Q613.89374 348.21582 614.925 348.21582Q616.0031 348.21582 616.65936 348.77832Q617.33124 349.3252 617.33124 350.18457L616.2531 350.18457Q616.2531 349.74707 615.8625 349.43457Q615.4875 349.10645 614.925 349.10645Q614.33124 349.10645 613.9875 349.37207Q613.65936 349.62207 613.65936 350.02832Q613.65936 350.41895 613.97186 350.62207Q614.28436 350.8252 615.09686 351.0127Q615.90936 351.18457 616.40936 351.43457Q616.90936 351.68457 617.14374 352.04395Q617.39374 352.40332 617.39374 352.90332Q617.39374 353.7627 616.70624 354.27832Q616.03436 354.79395 614.95624 354.79395Q614.1906 354.79395 613.59686 354.52832Q613.01874 354.24707 612.6906 353.7627Q612.3625 353.27832 612.3625 352.71582L613.4406 352.71582Q613.47186 353.2627 613.8781 353.59082Q614.28436 353.90332 614.95624 353.90332Q615.5656 353.90332 615.9406 353.65332Q616.3156 353.40332 616.3156 352.98145ZM622.3156 352.98145Q622.3156 352.54395 621.97186 352.30957Q621.64374 352.05957 620.8156 351.8877Q620.0031 351.71582 619.51874 351.46582Q619.03436 351.21582 618.8 350.8877Q618.58124 350.54395 618.58124 350.0752Q618.58124 349.29395 619.2375 348.7627Q619.89374 348.21582 620.925 348.21582Q622.0031 348.21582 622.65936 348.77832Q623.33124 349.3252 623.33124 350.18457L622.2531 350.18457Q622.2531 349.74707 621.8625 349.43457Q621.4875 349.10645 620.925 349.10645Q620.33124 349.10645 619.9875 349.37207Q619.65936 349.62207 619.65936 350.02832Q619.65936 350.41895 619.97186 350.62207Q620.28436 350.8252 621.09686 351.0127Q621.90936 351.18457 622.40936 351.43457Q622.90936 351.68457 623.14374 352.04395Q623.39374 352.40332 623.39374 352.90332Q623.39374 353.7627 622.70624 354.27832Q622.03436 354.79395 620.95624 354.79395Q620.1906 354.79395 619.59686 354.52832Q619.01874 354.24707 618.6906 353.7627Q618.3625 353.27832 618.3625 352.71582L619.4406 352.71582Q619.47186 353.2627 619.8781 353.59082Q620.28436 353.90332 620.95624 353.90332Q621.5656 353.90332 621.9406 353.65332Q622.3156 353.40332 622.3156 352.98145ZM628.53436 354.04395Q627.90936 354.79395 626.675 354.79395Q625.65936 354.79395 625.1281 354.2002Q624.59686 353.60645 624.59686 352.4502L624.59686 348.3252L625.675 348.3252L625.675 352.41895Q625.675 353.87207 626.84686 353.87207Q628.09686 353.87207 628.5031 352.93457L628.5031 348.3252L629.59686 348.3252L629.59686 354.66895L628.5656 354.66895L628.53436 354.04395ZM632.8 354.66895L631.72186 354.66895L631.72186 348.3252L632.8 348.3252L632.8 354.66895ZM631.6281 346.65332Q631.6281 346.3877 631.78436 346.2002Q631.95624 346.0127 632.26874 346.0127Q632.58124 346.0127 632.7375 346.2002Q632.90936 346.3877 632.90936 346.65332Q632.90936 346.90332 632.7375 347.09082Q632.58124 347.2627 632.26874 347.2627Q631.95624 347.2627 631.78436 347.09082Q631.6281 346.90332 631.6281 346.65332Z" fill-rule="nonzero"/><path fill="#9e9e9e" d="M607.6906 366.35645Q607.6906 366.99707 607.34686 367.49707Q607.0031 367.99707 606.4406 368.27832Q607.09686 368.55957 607.4875 369.12207Q607.8781 369.66895 607.8781 370.37207Q607.8781 371.46582 607.1281 372.1377Q606.39374 372.79395 605.175 372.79395Q603.9406 372.79395 603.1906 372.1377Q602.45624 371.46582 602.45624 370.37207Q602.45624 369.66895 602.83124 369.12207Q603.20624 368.55957 603.8781 368.27832Q603.3156 367.99707 602.9875 367.49707Q602.65936 366.99707 602.65936 366.35645Q602.65936 365.27832 603.34686 364.65332Q604.03436 364.0127 605.175 364.0127Q606.3 364.0127 606.9875 364.65332Q607.6906 365.27832 607.6906 366.35645ZM606.8 370.34082Q606.8 369.62207 606.34686 369.18457Q605.89374 368.73145 605.15936 368.73145Q604.425 368.73145 603.97186 369.18457Q603.53436 369.62207 603.53436 370.35645Q603.53436 371.0752 603.97186 371.49707Q604.40936 371.90332 605.175 371.90332Q605.925 371.90332 606.3625 371.48145Q606.8 371.05957 606.8 370.34082ZM605.175 364.90332Q604.53436 364.90332 604.1281 365.30957Q603.7375 365.7002 603.7375 366.3877Q603.7375 367.02832 604.1281 367.43457Q604.51874 367.84082 605.15936 367.84082Q605.8156 367.84082 606.20624 367.43457Q606.59686 367.02832 606.59686 366.3877Q606.59686 365.73145 606.1906 365.3252Q605.78436 364.90332 605.175 364.90332ZM610.0031 368.3877L610.4406 364.1377L614.8156 364.1377L614.8156 365.1377L611.3625 365.1377L611.09686 367.46582Q611.7375 367.09082 612.53436 367.09082Q613.6906 367.09082 614.3781 367.87207Q615.0656 368.6377 615.0656 369.9502Q615.0656 371.2627 614.34686 372.02832Q613.64374 372.79395 612.3625 372.79395Q611.2375 372.79395 610.51874 372.16895Q609.8 371.52832 609.70624 370.41895L610.72186 370.41895Q610.83124 371.15332 611.2531 371.52832Q611.675 371.90332 612.3625 371.90332Q613.1125 371.90332 613.55 371.3877Q613.9875 370.87207 613.9875 369.96582Q613.9875 369.10645 613.51874 368.59082Q613.05 368.0752 612.26874 368.0752Q611.5656 368.0752 611.15936 368.37207L610.8781 368.60645L610.0031 368.3877ZM616.58124 374.37207L615.97186 373.9502Q616.51874 373.18457 616.55 372.35645L616.55 371.3877L617.6125 371.3877L617.6125 372.23145Q617.6125 372.8252 617.3156 373.41895Q617.01874 374.0127 616.58124 374.37207ZM624.09686 372.66895L618.5031 372.66895L618.5031 371.8877L621.45624 368.60645Q622.1125 367.85645 622.3625 367.40332Q622.6125 366.93457 622.6125 366.43457Q622.6125 365.7627 622.20624 365.34082Q621.8156 364.90332 621.1281 364.90332Q620.33124 364.90332 619.8781 365.37207Q619.425 365.8252 619.425 366.65332L618.34686 366.65332Q618.34686 365.46582 619.09686 364.74707Q619.8625 364.0127 621.1281 364.0127Q622.33124 364.0127 623.01874 364.6377Q623.70624 365.2627 623.70624 366.30957Q623.70624 367.55957 622.09686 369.30957L619.8156 371.77832L624.09686 371.77832L624.09686 372.66895ZM625.40936 365.77832Q625.40936 365.0127 625.89374 364.5127Q626.39374 364.0127 627.15936 364.0127Q627.9406 364.0127 628.425 364.5127Q628.90936 365.0127 628.90936 365.80957L628.90936 366.23145Q628.90936 366.99707 628.40936 367.49707Q627.925 367.98145 627.175 367.98145Q626.40936 367.98145 625.90936 367.49707Q625.40936 366.99707 625.40936 366.18457L625.40936 365.77832ZM626.22186 366.23145Q626.22186 366.68457 626.47186 366.98145Q626.7375 367.27832 627.175 367.27832Q627.59686 367.27832 627.84686 366.99707Q628.09686 366.7002 628.09686 366.2002L628.09686 365.77832Q628.09686 365.3252 627.84686 365.02832Q627.59686 364.71582 627.15936 364.71582Q626.72186 364.71582 626.47186 365.02832Q626.22186 365.3252 626.22186 365.79395L626.22186 366.23145ZM629.5656 370.5752Q629.5656 369.80957 630.05 369.3252Q630.55 368.8252 631.3156 368.8252Q632.08124 368.8252 632.5656 369.3252Q633.0656 369.80957 633.0656 370.62207L633.0656 371.02832Q633.0656 371.79395 632.58124 372.29395Q632.09686 372.79395 631.33124 372.79395Q630.5656 372.79395 630.0656 372.30957Q629.5656 371.80957 629.5656 370.99707L629.5656 370.5752ZM630.3781 371.02832Q630.3781 371.49707 630.6281 371.79395Q630.89374 372.09082 631.33124 372.09082Q631.7531 372.09082 632.0031 371.80957Q632.2531 371.5127 632.2531 371.0127L632.2531 370.5752Q632.2531 370.10645 631.9875 369.8252Q631.7375 369.52832 631.3156 369.52832Q630.89374 369.52832 630.6281 369.8252Q630.3781 370.10645 630.3781 370.60645L630.3781 371.02832ZM627.425 372.02832L626.8 371.6377L630.97186 364.96582L631.58124 365.35645L627.425 372.02832Z" fill-rule="nonzero"/><path stroke="#757575" stroke-width="1.0" stroke-linecap="butt" d="M633.8 359.16895L496.06668 359.16895L396.52496 359.16895" fill-rule="nonzero"/><path fill="#9e9e9e" d="M398.52496 359.16895C398.52496 358.06436 397.62955 357.16895 396.52496 357.16895C395.4204 357.16895 394.52496 358.06436 394.52496 359.16895C394.52496 360.27353 395.4204 361.16895 396.52496 361.16895C397.62955 361.16895 398.52496 360.27353 398.52496 359.16895" fill-rule="nonzero"/><path fill="#2e2e2e" d="M23.73125 33.6375L23.73125 39.2L21.85625 39.2L21.85625 24.98125L27.090626 24.98125Q29.434376 24.98125 30.746876 26.16875Q32.075 27.35625 32.075 29.325Q32.075 31.403126 30.778126 32.528126Q29.48125 33.6375 27.075 33.6375L23.73125 33.6375ZM23.73125 32.10625L27.090626 32.10625Q28.60625 32.10625 29.403126 31.403126Q30.2 30.684376 30.2 29.340626Q30.2 28.075 29.403126 27.325Q28.60625 26.559376 27.2 26.528126L23.73125 26.528126L23.73125 32.10625ZM34.090626 33.825Q34.090626 32.2625 34.7 31.028126Q35.309376 29.778126 36.3875 29.10625Q37.48125 28.434376 38.8875 28.434376Q41.04375 28.434376 42.371876 29.934376Q43.715626 31.41875 43.715626 33.903126L43.715626 34.028126Q43.715626 35.575 43.121876 36.809376Q42.528126 38.028126 41.41875 38.715626Q40.325 39.403126 38.903126 39.403126Q36.7625 39.403126 35.41875 37.903126Q34.090626 36.403126 34.090626 33.95L34.090626 33.825ZM35.903126 34.028126Q35.903126 35.79375 36.715626 36.85625Q37.54375 37.91875 38.903126 37.91875Q40.278126 37.91875 41.090626 36.840626Q41.903126 35.7625 41.903126 33.825Q41.903126 32.075 41.075 30.996876Q40.246876 29.91875 38.8875 29.91875Q37.54375 29.91875 36.715626 30.98125Q35.903126 32.04375 35.903126 34.028126ZM50.66875 30.246876Q50.2625 30.184376 49.79375 30.184376Q48.0125 30.184376 47.371876 31.7L47.371876 39.2L45.575 39.2L45.575 28.6375L47.325 28.6375L47.35625 29.85625Q48.246876 28.434376 49.871876 28.434376Q50.403126 28.434376 50.66875 28.575L50.66875 30.246876ZM56.809376 37.91875Q57.778126 37.91875 58.496876 37.340626Q59.215626 36.746876 59.29375 35.871876L61.0125 35.871876Q60.95 36.778126 60.371876 37.60625Q59.809376 38.41875 58.840626 38.91875Q57.8875 39.403126 56.809376 39.403126Q54.653126 39.403126 53.371876 37.965626Q52.10625 36.5125 52.10625 34.0125L52.10625 33.715626Q52.10625 32.16875 52.66875 30.965626Q53.23125 29.7625 54.29375 29.10625Q55.35625 28.434376 56.79375 28.434376Q58.575 28.434376 59.746876 29.496876Q60.934376 30.559376 61.0125 32.2625L59.29375 32.2625Q59.215626 31.246876 58.5125 30.590626Q57.825 29.91875 56.79375 29.91875Q55.41875 29.91875 54.653126 30.91875Q53.903126 31.903126 53.903126 33.778126L53.903126 34.121876Q53.903126 35.95 54.653126 36.934376Q55.403126 37.91875 56.809376 37.91875ZM66.95 39.403126Q64.80937 39.403126 63.45 37.996876Q62.10625 36.575 62.10625 34.215626L62.10625 33.871876Q62.10625 32.309376 62.7 31.075Q63.309376 29.840626 64.3875 29.1375Q65.46562 28.434376 66.73125 28.434376Q68.79375 28.434376 69.93437 29.79375Q71.075 31.153126 71.075 33.684376L71.075 34.434376L63.91875 34.434376Q63.95 35.996876 64.825 36.965626Q65.7 37.91875 67.04375 37.91875Q68.0125 37.91875 68.66875 37.528126Q69.34062 37.1375 69.84062 36.496876L70.93437 37.35625Q69.60625 39.403126 66.95 39.403126ZM66.73125 29.91875Q65.6375 29.91875 64.8875 30.715626Q64.15312 31.5125 63.98125 32.95L69.2625 32.95L69.2625 32.809376Q69.18437 31.434376 68.5125 30.684376Q67.85625 29.91875 66.73125 29.91875ZM75.27812 28.6375L75.34062 29.965626Q76.54375 28.434376 78.49687 28.434376Q81.85625 28.434376 81.87187 32.215626L81.87187 39.2L80.075 39.2L80.075 32.2Q80.05937 31.059376 79.54375 30.5125Q79.04375 29.965626 77.95 29.965626Q77.075 29.965626 76.40312 30.434376Q75.74687 30.903126 75.37187 31.66875L75.37187 39.2L73.575 39.2L73.575 28.6375L75.27812 28.6375ZM87.0125 26.075L87.0125 28.6375L88.99687 28.6375L88.99687 30.028126L87.0125 30.028126L87.0125 36.575Q87.0125 37.215626 87.27812 37.54375Q87.54375 37.85625 88.18437 37.85625Q88.49687 37.85625 89.04375 37.73125L89.04375 39.2Q88.325 39.403126 87.65312 39.403126Q86.45 39.403126 85.825 38.66875Q85.21562 37.934376 85.21562 36.575L85.21562 30.028126L83.29375 30.028126L83.29375 28.6375L85.21562 28.6375L85.21562 26.075L87.0125 26.075ZM98.09062 39.2Q97.93437 38.8875 97.84062 38.090626Q96.575 39.403126 94.825 39.403126Q93.2625 39.403126 92.2625 38.5125Q91.2625 37.621876 91.2625 36.2625Q91.2625 34.621876 92.5125 33.715626Q93.77812 32.79375 96.04375 32.79375L97.80937 32.79375L97.80937 31.965626Q97.80937 31.0125 97.23125 30.45Q96.66875 29.8875 95.575 29.8875Q94.60625 29.8875 93.95 30.3875Q93.29375 30.871876 93.29375 31.559376L91.48125 31.559376Q91.48125 30.778126 92.04375 30.04375Q92.60625 29.29375 93.55937 28.871876Q94.52812 28.434376 95.68437 28.434376Q97.5125 28.434376 98.54375 29.35625Q99.575 30.2625 99.62187 31.871876L99.62187 36.73125Q99.62187 38.184376 99.98125 39.04375L99.98125 39.2L98.09062 39.2ZM95.09062 37.825Q95.95 37.825 96.7 37.3875Q97.46562 36.95 97.80937 36.246876L97.80937 34.075L96.3875 34.075Q93.075 34.075 93.075 36.0125Q93.075 36.871876 93.6375 37.35625Q94.2 37.825 95.09062 37.825ZM102.1375 33.825Q102.1375 31.35625 103.27812 29.903126Q104.41875 28.434376 106.30937 28.434376Q108.24687 28.434376 109.325 29.809376L109.41875 28.6375L111.05937 28.6375L111.05937 38.95Q111.05937 40.996876 109.84062 42.16875Q108.6375 43.35625 106.575 43.35625Q105.43437 43.35625 104.34062 42.871876Q103.24687 42.3875 102.66875 41.528126L103.60625 40.45Q104.77812 41.8875 106.45 41.8875Q107.77812 41.8875 108.5125 41.1375Q109.24687 40.403126 109.24687 39.059376L109.24687 38.1375Q108.16875 39.403126 106.29375 39.403126Q104.43437 39.403126 103.27812 37.903126Q102.1375 36.403126 102.1375 33.825ZM103.95 34.028126Q103.95 35.825 104.68437 36.840626Q105.41875 37.85625 106.73125 37.85625Q108.45 37.85625 109.24687 36.309376L109.24687 31.48125Q108.41875 29.965626 106.7625 29.965626Q105.43437 29.965626 104.68437 30.996876Q103.95 32.028126 103.95 34.028126ZM117.95 39.403126Q115.80937 39.403126 114.45 37.996876Q113.10625 36.575 113.10625 34.215626L113.10625 33.871876Q113.10625 32.309376 113.7 31.075Q114.30937 29.840626 115.3875 29.1375Q116.46562 28.434376 117.73125 28.434376Q119.79375 28.434376 120.93437 29.79375Q122.075 31.153126 122.075 33.684376L122.075 34.434376L114.91875 34.434376Q114.95 35.996876 115.825 36.965626Q116.7 37.91875 118.04375 37.91875Q119.0125 37.91875 119.66875 37.528126Q120.34062 37.1375 120.84062 36.496876L121.93437 37.35625Q120.60625 39.403126 117.95 39.403126ZM117.73125 29.91875Q116.6375 29.91875 115.8875 30.715626Q115.15312 31.5125 114.98125 32.95L120.2625 32.95L120.2625 32.809376Q120.18437 31.434376 119.5125 30.684376Q118.85625 29.91875 117.73125 29.91875ZM126.2625 28.6375L126.30937 29.809376Q127.48125 28.434376 129.45 28.434376Q131.66875 28.434376 132.46562 30.1375Q132.99687 29.371876 133.84062 28.903126Q134.68437 28.434376 135.84062 28.434376Q139.30937 28.434376 139.37187 32.121876L139.37187 39.2L137.55937 39.2L137.55937 32.23125Q137.55937 31.090626 137.04375 30.528126Q136.52812 29.965626 135.30937 29.965626Q134.30937 29.965626 133.6375 30.575Q132.98125 31.16875 132.87187 32.184376L132.87187 39.2L131.05937 39.2L131.05937 32.278126Q131.05937 29.965626 128.79375 29.965626Q127.0125 29.965626 126.37187 31.48125L126.37187 39.2L124.55937 39.2L124.55937 28.6375L126.2625 28.6375ZM151.80937 37.91875Q152.77812 37.91875 153.49687 37.340626Q154.21562 36.746876 154.29375 35.871876L156.0125 35.871876Q155.95 36.778126 155.37187 37.60625Q154.80937 38.41875 153.84062 38.91875Q152.8875 39.403126 151.80937 39.403126Q149.65312 39.403126 148.37187 37.965626Q147.10625 36.5125 147.10625 34.0125L147.10625 33.715626Q147.10625 32.16875 147.66875 30.965626Q148.23125 29.7625 149.29375 29.10625Q150.35625 28.434376 151.79375 28.434376Q153.575 28.434376 154.74687 29.496876Q155.93437 30.559376 156.0125 32.2625L154.29375 32.2625Q154.21562 31.246876 153.5125 30.590626Q152.825 29.91875 151.79375 29.91875Q150.41875 29.91875 149.65312 30.91875Q148.90312 31.903126 148.90312 33.778126L148.90312 34.121876Q148.90312 35.95 149.65312 36.934376Q150.40312 37.91875 151.80937 37.91875ZM157.09062 33.825Q157.09062 32.2625 157.7 31.028126Q158.30937 29.778126 159.3875 29.10625Q160.48125 28.434376 161.8875 28.434376Q164.04375 28.434376 165.37187 29.934376Q166.71562 31.41875 166.71562 33.903126L166.71562 34.028126Q166.71562 35.575 166.12187 36.809376Q165.52812 38.028126 164.41875 38.715626Q163.325 39.403126 161.90312 39.403126Q159.7625 39.403126 158.41875 37.903126Q157.09062 36.403126 157.09062 33.95L157.09062 33.825ZM158.90312 34.028126Q158.90312 35.79375 159.71562 36.85625Q160.54375 37.91875 161.90312 37.91875Q163.27812 37.91875 164.09062 36.840626Q164.90312 35.7625 164.90312 33.825Q164.90312 32.075 164.075 30.996876Q163.24687 29.91875 161.8875 29.91875Q160.54375 29.91875 159.71562 30.98125Q158.90312 32.04375 158.90312 34.028126ZM170.2625 28.6375L170.30937 29.809376Q171.48125 28.434376 173.45 28.434376Q175.66875 28.434376 176.46562 30.1375Q176.99687 29.371876 177.84062 28.903126Q178.68437 28.434376 179.84062 28.434376Q183.30937 28.434376 183.37187 32.121876L183.37187 39.2L181.55937 39.2L181.55937 32.23125Q181.55937 31.090626 181.04375 30.528126Q180.52812 29.965626 179.30937 29.965626Q178.30937 29.965626 177.6375 30.575Q176.98125 31.16875 176.87187 32.184376L176.87187 39.2L175.05937 39.2L175.05937 32.278126Q175.05937 29.965626 172.79375 29.965626Q171.0125 29.965626 170.37187 31.48125L170.37187 39.2L168.55937 39.2L168.55937 28.6375L170.2625 28.6375ZM196.66875 30.246876Q196.2625 30.184376 195.79375 30.184376Q194.0125 30.184376 193.37187 31.7L193.37187 39.2L191.575 39.2L191.575 28.6375L193.325 28.6375L193.35625 29.85625Q194.24687 28.434376 195.87187 28.434376Q196.40312 28.434376 196.66875 28.575L196.66875 30.246876ZM202.95 39.403126Q200.80937 39.403126 199.45 37.996876Q198.10625 36.575 198.10625 34.215626L198.10625 33.871876Q198.10625 32.309376 198.7 31.075Q199.30937 29.840626 200.3875 29.1375Q201.46562 28.434376 202.73125 28.434376Q204.79375 28.434376 205.93437 29.79375Q207.075 31.153126 207.075 33.684376L207.075 34.434376L199.91875 34.434376Q199.95 35.996876 200.825 36.965626Q201.7 37.91875 203.04375 37.91875Q204.0125 37.91875 204.66875 37.528126Q205.34062 37.1375 205.84062 36.496876L206.93437 37.35625Q205.60625 39.403126 202.95 39.403126ZM202.73125 29.91875Q201.6375 29.91875 200.8875 30.715626Q200.15312 31.5125 199.98125 32.95L205.2625 32.95L205.2625 32.809376Q205.18437 31.434376 204.5125 30.684376Q203.85625 29.91875 202.73125 29.91875ZM209.1375 33.825Q209.1375 31.35625 210.27812 29.903126Q211.41875 28.434376 213.30937 28.434376Q215.24687 28.434376 216.325 29.809376L216.41875 28.6375L218.05937 28.6375L218.05937 38.95Q218.05937 40.996876 216.84062 42.16875Q215.6375 43.35625 213.575 43.35625Q212.43437 43.35625 211.34062 42.871876Q210.24687 42.3875 209.66875 41.528126L210.60625 40.45Q211.77812 41.8875 213.45 41.8875Q214.77812 41.8875 215.5125 41.1375Q216.24687 40.403126 216.24687 39.059376L216.24687 38.1375Q215.16875 39.403126 213.29375 39.403126Q211.43437 39.403126 210.27812 37.903126Q209.1375 36.403126 209.1375 33.825ZM210.95 34.028126Q210.95 35.825 211.68437 36.840626Q212.41875 37.85625 213.73125 37.85625Q215.45 37.85625 216.24687 36.309376L216.24687 31.48125Q215.41875 29.965626 213.7625 29.965626Q212.43437 29.965626 211.68437 30.996876Q210.95 32.028126 210.95 34.028126ZM222.52812 39.2L220.73125 39.2L220.73125 28.6375L222.52812 28.6375L222.52812 39.2ZM220.575 25.825Q220.575 25.3875 220.84062 25.090626Q221.12187 24.778126 221.6375 24.778126Q222.16875 24.778126 222.43437 25.090626Q222.71562 25.3875 222.71562 25.825Q222.71562 26.2625 222.43437 26.559376Q222.16875 26.85625 221.6375 26.85625Q221.12187 26.85625 220.84062 26.559376Q220.575 26.2625 220.575 25.825ZM231.71562 36.403126Q231.71562 35.66875 231.16875 35.2625Q230.62187 34.85625 229.24687 34.559376Q227.87187 34.2625 227.05937 33.85625Q226.2625 33.45 225.87187 32.8875Q225.49687 32.309376 225.49687 31.528126Q225.49687 30.23125 226.59062 29.340626Q227.68437 28.434376 229.40312 28.434376Q231.2 28.434376 232.30937 29.371876Q233.43437 30.29375 233.43437 31.73125L231.60625 31.73125Q231.60625 30.996876 230.98125 30.465626Q230.35625 29.91875 229.40312 29.91875Q228.40312 29.91875 227.84062 30.35625Q227.29375 30.778126 227.29375 31.48125Q227.29375 32.121876 227.80937 32.465626Q228.325 32.79375 229.68437 33.10625Q231.04375 33.403126 231.87187 33.825Q232.71562 34.23125 233.12187 34.825Q233.52812 35.41875 233.52812 36.2625Q233.52812 37.684376 232.3875 38.54375Q231.2625 39.403126 229.45 39.403126Q228.18437 39.403126 227.2 38.95Q226.23125 38.496876 225.66875 37.7Q225.12187 36.8875 225.12187 35.95L226.93437 35.95Q226.98125 36.85625 227.65312 37.3875Q228.34062 37.91875 229.45 37.91875Q230.48125 37.91875 231.09062 37.5125Q231.71562 37.090626 231.71562 36.403126ZM238.0125 26.075L238.0125 28.6375L239.99687 28.6375L239.99687 30.028126L238.0125 30.028126L238.0125 36.575Q238.0125 37.215626 238.27812 37.54375Q238.54375 37.85625 239.18437 37.85625Q239.49687 37.85625 240.04375 37.73125L240.04375 39.2Q239.325 39.403126 238.65312 39.403126Q237.45 39.403126 236.825 38.66875Q236.21562 37.934376 236.21562 36.575L236.21562 30.028126L234.29375 30.028126L234.29375 28.6375L236.21562 28.6375L236.21562 26.075L238.0125 26.075ZM247.66875 30.246876Q247.2625 30.184376 246.79375 30.184376Q245.0125 30.184376 244.37187 31.7L244.37187 39.2L242.575 39.2L242.575 28.6375L244.325 28.6375L244.35625 29.85625Q245.24687 28.434376 246.87187 28.434376Q247.40312 28.434376 247.66875 28.575L247.66875 30.246876ZM249.09062 33.825Q249.09062 32.2625 249.7 31.028126Q250.30937 29.778126 251.3875 29.10625Q252.48125 28.434376 253.8875 28.434376Q256.04376 28.434376 257.3719 29.934376Q258.71564 31.41875 258.71564 33.903126L258.71564 34.028126Q258.71564 35.575 258.1219 36.809376Q257.52814 38.028126 256.41876 38.715626Q255.325 39.403126 253.90312 39.403126Q251.7625 39.403126 250.41875 37.903126Q249.09062 36.403126 249.09062 33.95L249.09062 33.825ZM250.90312 34.028126Q250.90312 35.79375 251.71562 36.85625Q252.54375 37.91875 253.90312 37.91875Q255.27812 37.91875 256.09064 36.840626Q256.90314 35.7625 256.90314 33.825Q256.90314 32.075 256.075 30.996876Q255.24687 29.91875 253.8875 29.91875Q252.54375 29.91875 251.71562 30.98125Q250.90312 32.04375 250.90312 34.028126ZM267.27814 28.6375L267.34064 29.965626Q268.54376 28.434376 270.4969 28.434376Q273.85626 28.434376 273.8719 32.215626L273.8719 39.2L272.075 39.2L272.075 32.2Q272.0594 31.059376 271.54376 30.5125Q271.04376 29.965626 269.95 29.965626Q269.075 29.965626 268.40314 30.434376Q267.7469 30.903126 267.3719 31.66875L267.3719 39.2L265.575 39.2L265.575 28.6375L267.27814 28.6375ZM276.09064 33.825Q276.09064 32.2625 276.7 31.028126Q277.3094 29.778126 278.3875 29.10625Q279.48126 28.434376 280.8875 28.434376Q283.04376 28.434376 284.3719 29.934376Q285.71564 31.41875 285.71564 33.903126L285.71564 34.028126Q285.71564 35.575 285.1219 36.809376Q284.52814 38.028126 283.41876 38.715626Q282.325 39.403126 280.90314 39.403126Q278.7625 39.403126 277.41876 37.903126Q276.09064 36.403126 276.09064 33.95L276.09064 33.825ZM277.90314 34.028126Q277.90314 35.79375 278.71564 36.85625Q279.54376 37.91875 280.90314 37.91875Q282.27814 37.91875 283.09064 36.840626Q283.90314 35.7625 283.90314 33.825Q283.90314 32.075 283.075 30.996876Q282.2469 29.91875 280.8875 29.91875Q279.54376 29.91875 278.71564 30.98125Q277.90314 32.04375 277.90314 34.028126ZM292.1219 33.825Q292.1219 31.403126 293.27814 29.91875Q294.4344 28.434376 296.29376 28.434376Q298.15314 28.434376 299.23126 29.7L299.23126 24.2L301.04376 24.2L301.04376 39.2L299.3875 39.2L299.29376 38.059376Q298.21564 39.403126 296.27814 39.403126Q294.45 39.403126 293.27814 37.903126Q292.1219 36.3875 292.1219 33.965626L292.1219 33.825ZM293.9344 34.028126Q293.9344 35.825 294.66876 36.840626Q295.41876 37.85625 296.73126 37.85625Q298.45 37.85625 299.23126 36.325L299.23126 31.465626Q298.4344 29.965626 296.7469 29.965626Q295.41876 29.965626 294.66876 30.996876Q293.9344 32.028126 293.9344 34.028126ZM303.09064 33.825Q303.09064 32.2625 303.7 31.028126Q304.3094 29.778126 305.3875 29.10625Q306.48126 28.434376 307.8875 28.434376Q310.04376 28.434376 311.3719 29.934376Q312.71564 31.41875 312.71564 33.903126L312.71564 34.028126Q312.71564 35.575 312.1219 36.809376Q311.52814 38.028126 310.41876 38.715626Q309.325 39.403126 307.90314 39.403126Q305.7625 39.403126 304.41876 37.903126Q303.09064 36.403126 303.09064 33.95L303.09064 33.825ZM304.90314 34.028126Q304.90314 35.79375 305.71564 36.85625Q306.54376 37.91875 307.90314 37.91875Q309.27814 37.91875 310.09064 36.840626Q310.90314 35.7625 310.90314 33.825Q310.90314 32.075 310.075 30.996876Q309.2469 29.91875 307.8875 29.91875Q306.54376 29.91875 305.71564 30.98125Q304.90314 32.04375 304.90314 34.028126ZM316.2625 28.6375L316.3094 29.809376Q317.48126 28.434376 319.45 28.434376Q321.66876 28.434376 322.46564 30.1375Q322.9969 29.371876 323.84064 28.903126Q324.6844 28.434376 325.84064 28.434376Q329.3094 28.434376 329.3719 32.121876L329.3719 39.2L327.5594 39.2L327.5594 32.23125Q327.5594 31.090626 327.04376 30.528126Q326.52814 29.965626 325.3094 29.965626Q324.3094 29.965626 323.6375 30.575Q322.98126 31.16875 322.8719 32.184376L322.8719 39.2L321.0594 39.2L321.0594 32.278126Q321.0594 29.965626 318.79376 29.965626Q317.0125 29.965626 316.3719 31.48125L316.3719 39.2L314.5594 39.2L314.5594 28.6375L316.2625 28.6375ZM334.52814 39.2L332.71564 39.2L332.71564 28.6375L334.52814 28.6375L334.52814 39.2ZM334.5594 24.215626L336.7469 24.215626L334.1219 27.090626L332.66876 27.090626L334.5594 24.215626ZM339.27814 28.6375L339.34064 29.965626Q340.54376 28.434376 342.4969 28.434376Q345.85626 28.434376 345.8719 32.215626L345.8719 39.2L344.075 39.2L344.075 32.2Q344.0594 31.059376 343.54376 30.5125Q343.04376 29.965626 341.95 29.965626Q341.075 29.965626 340.40314 30.434376Q339.7469 30.903126 339.3719 31.66875L339.3719 39.2L337.575 39.2L337.575 28.6375L339.27814 28.6375ZM350.52814 39.2L348.73126 39.2L348.73126 28.6375L350.52814 28.6375L350.52814 39.2ZM348.575 25.825Q348.575 25.3875 348.84064 25.090626Q349.1219 24.778126 349.6375 24.778126Q350.16876 24.778126 350.4344 25.090626Q350.71564 25.3875 350.71564 25.825Q350.71564 26.2625 350.4344 26.559376Q350.16876 26.85625 349.6375 26.85625Q349.1219 26.85625 348.84064 26.559376Q348.575 26.2625 348.575 25.825ZM353.09064 33.825Q353.09064 32.2625 353.7 31.028126Q354.3094 29.778126 355.3875 29.10625Q356.48126 28.434376 357.8875 28.434376Q360.04376 28.434376 361.3719 29.934376Q362.71564 31.41875 362.71564 33.903126L362.71564 34.028126Q362.71564 35.575 362.1219 36.809376Q361.52814 38.028126 360.41876 38.715626Q359.325 39.403126 357.90314 39.403126Q355.7625 39.403126 354.41876 37.903126Q353.09064 36.403126 353.09064 33.95L353.09064 33.825ZM354.90314 34.028126Q354.90314 35.79375 355.71564 36.85625Q356.54376 37.91875 357.90314 37.91875Q359.27814 37.91875 360.09064 36.840626Q360.90314 35.7625 360.90314 33.825Q360.90314 32.075 360.075 30.996876Q359.2469 29.91875 357.8875 29.91875Q356.54376 29.91875 355.71564 30.98125Q354.90314 32.04375 354.90314 34.028126ZM369.1219 33.825Q369.1219 31.403126 370.27814 29.91875Q371.4344 28.434376 373.29376 28.434376Q375.15314 28.434376 376.23126 29.7L376.23126 24.2L378.04376 24.2L378.04376 39.2L376.3875 39.2L376.29376 38.059376Q375.21564 39.403126 373.27814 39.403126Q371.45 39.403126 370.27814 37.903126Q369.1219 36.3875 369.1219 33.965626L369.1219 33.825ZM370.9344 34.028126Q370.9344 35.825 371.66876 36.840626Q372.41876 37.85625 373.73126 37.85625Q375.45 37.85625 376.23126 36.325L376.23126 31.465626Q375.4344 29.965626 373.7469 29.965626Q372.41876 29.965626 371.66876 30.996876Q370.9344 32.028126 370.9344 34.028126ZM380.09064 33.825Q380.09064 32.2625 380.7 31.028126Q381.3094 29.778126 382.3875 29.10625Q383.48126 28.434376 384.8875 28.434376Q387.04376 28.434376 388.3719 29.934376Q389.71564 31.41875 389.71564 33.903126L389.71564 34.028126Q389.71564 35.575 389.1219 36.809376Q388.52814 38.028126 387.41876 38.715626Q386.325 39.403126 384.90314 39.403126Q382.7625 39.403126 381.41876 37.903126Q380.09064 36.403126 380.09064 33.95L380.09064 33.825ZM381.90314 34.028126Q381.90314 35.79375 382.71564 36.85625Q383.54376 37.91875 384.90314 37.91875Q386.27814 37.91875 387.09064 36.840626Q387.90314 35.7625 387.90314 33.825Q387.90314 32.075 387.075 30.996876Q386.2469 29.91875 384.8875 29.91875Q383.54376 29.91875 382.71564 30.98125Q381.90314 32.04375 381.90314 34.028126ZM406.66876 26.528126L402.10626 26.528126L402.10626 39.2L400.2469 39.2L400.2469 26.528126L395.6844 26.528126L395.6844 24.98125L406.66876 24.98125L406.66876 26.528126ZM419.3094 34.684376Q419.04376 36.95 417.6375 38.184376Q416.2469 39.403126 413.91876 39.403126Q411.40314 39.403126 409.8719 37.590626Q408.35626 35.778126 408.35626 32.746876L408.35626 31.3875Q408.35626 29.403126 409.0594 27.903126Q409.77814 26.403126 411.075 25.590626Q412.3719 24.778126 414.09064 24.778126Q416.35626 24.778126 417.71564 26.04375Q419.09064 27.309376 419.3094 29.54375L417.41876 29.54375Q417.1844 27.85625 416.35626 27.090626Q415.54376 26.325 414.09064 26.325Q412.29376 26.325 411.2625 27.653126Q410.2469 28.98125 410.2469 31.434376L410.2469 32.809376Q410.2469 35.121876 411.21564 36.496876Q412.1844 37.85625 413.91876 37.85625Q415.48126 37.85625 416.3094 37.153126Q417.15314 36.45 417.41876 34.684376L419.3094 34.684376ZM431.85626 24.98125L431.85626 34.653126Q431.85626 36.653126 430.59064 37.934376Q429.34064 39.215626 427.2 39.371876L426.7 39.403126Q424.35626 39.403126 422.96564 38.1375Q421.59064 36.871876 421.575 34.66875L421.575 24.98125L423.41876 24.98125L423.41876 34.60625Q423.41876 36.153126 424.2625 37.0125Q425.1219 37.85625 426.7 37.85625Q428.29376 37.85625 429.1375 37.0125Q429.98126 36.16875 429.98126 34.621876L429.98126 24.98125L431.85626 24.98125Z" fill-rule="nonzero"/></svg>