<svg version="1.1" viewBox="0.0 0.0 682.0 421.0" fill="none" stroke="none" stroke-linecap="square" stroke-miterlimit="10" width="682" height="421" xmlns:xlink="http://www.w3.org/1999/xlink" xmlns="http://www.w3.org/2000/svg"><path fill="#ffffff" d="M0 0L682.0 0L682.0 421.0L0 421.0L0 0Z" fill-rule="nonzero"/><path fill="#ffffff" d="M217.03128 346.47513C170.34454 296.99005 157.55907 224.48003 184.50537 162.01147C211.45168 99.542915 272.96747 59.083332 341.0 59.083332L341.0 229.51666Z" fill-rule="nonzero"/><path fill="#2e2e2e" d="M341.0 59.083332C418.75394 59.083332 486.6509 111.70745 506.04593 187.00359C525.441 262.2997 491.4166 341.17706 423.3385 378.74097C355.2604 416.30487 270.38928 403.03128 217.03128 346.47513L341.0 229.51666Z" fill-rule="nonzero"/><path stroke="#2e2e2e" stroke-width="1.0" stroke-linejoin="round" stroke-linecap="round" d="M341.0 229.51666L341.0 59.083332C418.75394 59.083332 486.6509 111.70745 506.04593 187.00359C525.441 262.2997 491.4166 341.17706 423.3385 378.74097C355.2604 416.30487 270.38928 403.03128 217.03128 346.47513" fill-rule="nonzero"/><path stroke="#2e2e2e" stroke-width="1.0" stroke-linejoin="round" stroke-linecap="round" d="M341.0 229.51666L217.03128 346.47513C170.34454 296.99005 157.55907 224.48003 184.50537 162.01147C211.45168 99.542915 272.96747 59.083332 341.0 59.083332" fill-rule="nonzero"/><path fill="#2e2e2e" d="M21.971874 160.88673L21.971874 152.29298L25.221874 152.29298Q26.065624 152.29298 26.51875 152.37111Q27.159374 152.48048 27.58125 152.77736Q28.01875 153.07423 28.26875 153.60548Q28.534374 154.13673 28.534374 154.77736Q28.534374 155.87111 27.83125 156.63673Q27.14375 157.38673 25.315624 157.38673L23.1125 157.38673L23.1125 160.88673L21.971874 160.88673ZM23.1125 156.38673L25.33125 156.38673Q26.440624 156.38673 26.89375 155.98048Q27.3625 155.55861 27.3625 154.80861Q27.3625 154.27736 27.08125 153.90236Q26.815624 153.51173 26.378124 153.38673Q26.08125 153.30861 25.315624 153.30861L23.1125 153.30861L23.1125 156.38673ZM29.45625 157.77736Q29.45625 156.04298 30.409374 155.21486Q31.20625 154.52736 32.3625 154.52736Q33.64375 154.52736 34.45625 155.37111Q35.284374 156.19923 35.284374 157.68361Q35.284374 158.88673 34.925 159.57423Q34.565624 160.26173 33.8625 160.65236Q33.175 161.02736 32.3625 161.02736Q31.065624 161.02736 30.253124 160.19923Q29.45625 159.35548 29.45625 157.77736ZM30.534374 157.77736Q30.534374 158.96486 31.05 159.55861Q31.58125 160.15236 32.3625 160.15236Q33.159374 160.15236 33.675 159.55861Q34.190624 158.96486 34.190624 157.74611Q34.190624 156.58986 33.659374 155.99611Q33.14375 155.40236 32.3625 155.40236Q31.58125 155.40236 31.05 155.99611Q30.534374 156.57423 30.534374 157.77736ZM36.425 159.02736L37.45625 158.87111Q37.55 159.49611 37.940624 159.82423Q38.346874 160.15236 39.08125 160.15236Q39.8 160.15236 40.14375 159.87111Q40.503124 159.57423 40.503124 159.16798Q40.503124 158.80861 40.190624 158.60548Q39.971874 158.46486 39.1125 158.24611Q37.95625 157.94923 37.503124 157.74611Q37.065624 157.52736 36.83125 157.15236Q36.596874 156.77736 36.596874 156.30861Q36.596874 155.90236 36.784374 155.54298Q36.971874 155.18361 37.3 154.94923Q37.55 154.77736 37.971874 154.65236Q38.39375 154.52736 38.89375 154.52736Q39.6125 154.52736 40.159374 154.74611Q40.721874 154.94923 40.9875 155.30861Q41.253124 155.66798 41.346874 156.26173L40.315624 156.40236Q40.253124 155.93361 39.909374 155.66798Q39.58125 155.38673 38.95625 155.38673Q38.2375 155.38673 37.925 155.63673Q37.6125 155.87111 37.6125 156.19923Q37.6125 156.40236 37.7375 156.55861Q37.878124 156.73048 38.14375 156.83986Q38.3 156.90236 39.08125 157.10548Q40.20625 157.41798 40.64375 157.60548Q41.08125 157.79298 41.33125 158.15236Q41.58125 158.51173 41.58125 159.05861Q41.58125 159.58986 41.26875 160.05861Q40.971874 160.51173 40.39375 160.77736Q39.815624 161.02736 39.08125 161.02736Q37.8625 161.02736 37.221874 160.52736Q36.596874 160.01173 36.425 159.02736ZM43.425 159.02736L44.45625 158.87111Q44.55 159.49611 44.940624 159.82423Q45.346874 160.15236 46.08125 160.15236Q46.8 160.15236 47.14375 159.87111Q47.503124 159.57423 47.503124 159.16798Q47.503124 158.80861 47.190624 158.60548Q46.971874 158.46486 46.1125 158.24611Q44.95625 157.94923 44.503124 157.74611Q44.065624 157.52736 43.83125 157.15236Q43.596874 156.77736 43.596874 156.30861Q43.596874 155.90236 43.784374 155.54298Q43.971874 155.18361 44.3 154.94923Q44.55 154.77736 44.971874 154.65236Q45.39375 154.52736 45.89375 154.52736Q46.6125 154.52736 47.159374 154.74611Q47.721874 154.94923 47.9875 155.30861Q48.253124 155.66798 48.346874 156.26173L47.315624 156.40236Q47.253124 155.93361 46.909374 155.66798Q46.58125 155.38673 45.95625 155.38673Q45.2375 155.38673 44.925 155.63673Q44.6125 155.87111 44.6125 156.19923Q44.6125 156.40236 44.7375 156.55861Q44.878124 156.73048 45.14375 156.83986Q45.3 156.90236 46.08125 157.10548Q47.20625 157.41798 47.64375 157.60548Q48.08125 157.79298 48.33125 158.15236Q48.58125 158.51173 48.58125 159.05861Q48.58125 159.58986 48.26875 160.05861Q47.971874 160.51173 47.39375 160.77736Q46.815624 161.02736 46.08125 161.02736Q44.8625 161.02736 44.221874 160.52736Q43.596874 160.01173 43.425 159.02736ZM54.925 160.88673L54.925 159.96486Q54.190624 161.02736 52.940624 161.02736Q52.39375 161.02736 51.909374 160.82423Q51.440624 160.60548 51.20625 160.29298Q50.971874 159.96486 50.878124 159.49611Q50.815624 159.19923 50.815624 158.51173L50.815624 154.66798L51.878124 154.66798L51.878124 158.12111Q51.878124 158.93361 51.940624 159.23048Q52.034374 159.63673 52.346874 159.88673Q52.675 160.12111 53.159374 160.12111Q53.628124 160.12111 54.034374 159.88673Q54.45625 159.63673 54.628124 159.21486Q54.815624 158.79298 54.815624 157.99611L54.815624 154.66798L55.8625 154.66798L55.8625 160.88673L54.925 160.88673ZM57.846874 153.51173L57.846874 152.29298L58.909374 152.29298L58.909374 153.51173L57.846874 153.51173ZM57.846874 160.88673L57.846874 154.66798L58.909374 154.66798L58.909374 160.88673L57.846874 160.88673Z" fill-rule="nonzero"/><path fill="#9e9e9e" d="M21.55 175.62111L22.6125 175.48048Q22.784374 176.37111 23.221874 176.77736Q23.659374 177.16798 24.284374 177.16798Q25.034374 177.16798 25.55 176.65236Q26.065624 176.13673 26.065624 175.37111Q26.065624 174.65236 25.58125 174.18361Q25.1125 173.69923 24.378124 173.69923Q24.08125 173.69923 23.628124 173.82423L23.753124 172.88673Q23.8625 172.90236 23.925 172.90236Q24.596874 172.90236 25.128124 172.55861Q25.675 172.19923 25.675 171.46486Q25.675 170.88673 25.284374 170.51173Q24.89375 170.12111 24.26875 170.12111Q23.659374 170.12111 23.2375 170.51173Q22.83125 170.90236 22.721874 171.66798L21.659374 171.48048Q21.846874 170.43361 22.534374 169.85548Q23.221874 169.26173 24.2375 169.26173Q24.940624 169.26173 25.534374 169.57423Q26.128124 169.87111 26.440624 170.38673Q26.753124 170.90236 26.753124 171.49611Q26.753124 172.04298 26.45625 172.51173Q26.159374 172.96486 25.58125 173.23048Q26.33125 173.40236 26.753124 173.96486Q27.175 174.51173 27.175 175.35548Q27.175 176.48048 26.346874 177.26173Q25.534374 178.04298 24.284374 178.04298Q23.159374 178.04298 22.409374 177.37111Q21.659374 176.68361 21.55 175.62111ZM28.6125 170.41798L28.6125 169.40236L34.175 169.40236L34.175 170.23048Q33.3625 171.10548 32.55 172.55861Q31.753124 173.99611 31.315624 175.52736Q30.9875 176.60548 30.909374 177.88673L29.815624 177.88673Q29.83125 176.87111 30.20625 175.43361Q30.596874 173.99611 31.3 172.66798Q32.01875 171.33986 32.83125 170.41798L28.6125 170.41798ZM36.1125 177.88673L36.1125 176.68361L37.315624 176.68361L37.315624 177.88673Q37.315624 178.54298 37.08125 178.94923Q36.846874 179.37111 36.346874 179.58986L36.05 179.13673Q36.378124 178.99611 36.534374 178.69923Q36.690624 178.41798 36.721874 177.88673L36.1125 177.88673ZM38.55 173.65236Q38.55 172.12111 38.8625 171.19923Q39.175 170.26173 39.784374 169.76173Q40.409374 169.26173 41.346874 169.26173Q42.034374 169.26173 42.55 169.54298Q43.08125 169.82423 43.425 170.35548Q43.76875 170.87111 43.95625 171.62111Q44.14375 172.37111 44.14375 173.65236Q44.14375 175.16798 43.83125 176.08986Q43.534374 177.01173 42.909374 177.52736Q42.3 178.02736 41.346874 178.02736Q40.1125 178.02736 39.39375 177.13673Q38.55 176.07423 38.55 173.65236ZM39.628124 173.65236Q39.628124 175.76173 40.128124 176.46486Q40.628124 177.16798 41.346874 177.16798Q42.08125 177.16798 42.565624 176.46486Q43.065624 175.76173 43.065624 173.65236Q43.065624 171.52736 42.565624 170.83986Q42.08125 170.13673 41.33125 170.13673Q40.6125 170.13673 40.175 170.74611Q39.628124 171.52736 39.628124 173.65236ZM45.753124 171.35548Q45.753124 170.43361 46.20625 169.79298Q46.675 169.15236 47.55 169.15236Q48.3625 169.15236 48.89375 169.73048Q49.425 170.30861 49.425 171.41798Q49.425 172.51173 48.878124 173.10548Q48.346874 173.68361 47.565624 173.68361Q46.784374 173.68361 46.26875 173.10548Q45.753124 172.52736 45.753124 171.35548ZM47.58125 169.87111Q47.190624 169.87111 46.925 170.21486Q46.675 170.55861 46.675 171.46486Q46.675 172.29298 46.925 172.63673Q47.190624 172.96486 47.58125 172.96486Q47.9875 172.96486 48.2375 172.62111Q48.503124 172.27736 48.503124 171.38673Q48.503124 170.54298 48.2375 170.21486Q47.971874 169.87111 47.58125 169.87111ZM47.58125 178.19923L52.284374 169.15236L53.14375 169.15236L48.45625 178.19923L47.58125 178.19923ZM51.3 175.87111Q51.3 174.94923 51.753124 174.30861Q52.221874 173.66798 53.1125 173.66798Q53.925 173.66798 54.45625 174.24611Q54.9875 174.80861 54.9875 175.93361Q54.9875 177.02736 54.440624 177.62111Q53.909374 178.19923 53.1125 178.19923Q52.346874 178.19923 51.815624 177.62111Q51.3 177.04298 51.3 175.87111ZM53.14375 174.38673Q52.7375 174.38673 52.471874 174.73048Q52.221874 175.07423 52.221874 175.98048Q52.221874 176.79298 52.4875 177.13673Q52.753124 177.48048 53.14375 177.48048Q53.534374 177.48048 53.8 177.13673Q54.065624 176.79298 54.065624 175.88673Q54.065624 175.05861 53.8 174.73048Q53.534374 174.38673 53.14375 174.38673Z" fill-rule="nonzero"/><path stroke="#757575" stroke-width="1.0" stroke-linecap="butt" d="M21.05 165.38673L164.56667 165.38673L192.3301 165.38673" fill-rule="nonzero"/><path fill="#9e9e9e" d="M194.3301 165.38673C194.3301 164.28217 193.43466 163.38673 192.3301 163.38673C191.22552 163.38673 190.3301 164.28217 190.3301 165.38673C190.3301 166.4913 191.22552 167.38673 192.3301 167.38673C193.43466 167.38673 194.3301 166.4913 194.3301 165.38673" fill-rule="nonzero"/><path fill="#2e2e2e" d="M596.8719 289.1466L596.8719 280.55286L598.02814 280.55286L602.54376 287.30286L602.54376 280.55286L603.6375 280.55286L603.6375 289.1466L602.46564 289.1466L597.95 282.3966L597.95 289.1466L596.8719 289.1466ZM609.8094 288.38098Q609.21564 288.88098 608.66876 289.0841Q608.1375 289.28723 607.5125 289.28723Q606.48126 289.28723 605.9344 288.78723Q605.3875 288.28723 605.3875 287.50598Q605.3875 287.05286 605.59064 286.67786Q605.79376 286.28723 606.1375 286.06848Q606.48126 285.8341 606.90314 285.72473Q607.2 285.63098 607.84064 285.55286Q609.10626 285.41223 609.71564 285.19348Q609.71564 284.97473 609.71564 284.92786Q609.71564 284.2716 609.41876 284.00598Q609.0125 283.66223 608.21564 283.66223Q607.48126 283.66223 607.1219 283.92786Q606.7625 284.17786 606.59064 284.8341L605.5594 284.69348Q605.7 284.03723 606.02814 283.63098Q606.35626 283.22473 606.96564 283.00598Q607.575 282.78723 608.3719 282.78723Q609.16876 282.78723 609.66876 282.97473Q610.16876 283.16223 610.40314 283.44348Q610.6375 283.72473 610.73126 284.16223Q610.77814 284.42786 610.77814 285.13098L610.77814 286.53723Q610.77814 288.00598 610.84064 288.3966Q610.91876 288.78723 611.1219 289.1466L610.0125 289.1466Q609.85626 288.81848 609.8094 288.38098ZM609.71564 286.0216Q609.1375 286.25598 607.9969 286.42786Q607.34064 286.5216 607.075 286.6466Q606.8094 286.75598 606.65314 286.97473Q606.5125 287.19348 606.5125 287.47473Q606.5125 287.8966 606.825 288.17786Q607.15314 288.4591 607.7625 288.4591Q608.3719 288.4591 608.84064 288.19348Q609.325 287.92786 609.54376 287.4591Q609.71564 287.09973 609.71564 286.41223L609.71564 286.0216ZM606.29376 282.00598Q606.27814 281.3966 606.6219 281.03723Q606.95 280.66223 607.48126 280.66223Q607.84064 280.66223 608.46564 280.99036Q608.8094 281.16223 609.0125 281.16223Q609.2 281.16223 609.29376 281.06848Q609.40314 280.9591 609.45 280.6466L610.21564 280.6466Q610.1844 281.31848 609.8719 281.66223Q609.5594 281.99036 609.0594 281.99036Q608.6844 281.99036 608.09064 281.66223Q607.7 281.44348 607.5125 281.44348Q607.3094 281.44348 607.1844 281.5841Q607.0594 281.72473 607.075 282.00598L606.29376 282.00598ZM612.35626 286.03723Q612.35626 284.30286 613.3094 283.47473Q614.10626 282.78723 615.2625 282.78723Q616.54376 282.78723 617.35626 283.63098Q618.1844 284.4591 618.1844 285.94348Q618.1844 287.1466 617.825 287.8341Q617.46564 288.5216 616.7625 288.91223Q616.075 289.28723 615.2625 289.28723Q613.96564 289.28723 613.15314 288.4591Q612.35626 287.61536 612.35626 286.03723ZM613.4344 286.03723Q613.4344 287.22473 613.95 287.81848Q614.48126 288.41223 615.2625 288.41223Q616.0594 288.41223 616.575 287.81848Q617.09064 287.22473 617.09064 286.00598Q617.09064 284.84973 616.5594 284.25598Q616.04376 283.66223 615.2625 283.66223Q614.48126 283.66223 613.95 284.25598Q613.4344 284.8341 613.4344 286.03723ZM622.8719 289.1466L622.8719 280.55286L626.1219 280.55286Q626.96564 280.55286 627.41876 280.63098Q628.0594 280.74036 628.48126 281.03723Q628.91876 281.3341 629.16876 281.86536Q629.4344 282.3966 629.4344 283.03723Q629.4344 284.13098 628.73126 284.8966Q628.04376 285.6466 626.21564 285.6466L624.0125 285.6466L624.0125 289.1466L622.8719 289.1466ZM624.0125 284.6466L626.23126 284.6466Q627.34064 284.6466 627.79376 284.24036Q628.2625 283.81848 628.2625 283.06848Q628.2625 282.53723 627.98126 282.16223Q627.71564 281.7716 627.27814 281.6466Q626.98126 281.56848 626.21564 281.56848L624.0125 281.56848L624.0125 284.6466ZM630.35626 286.03723Q630.35626 284.30286 631.3094 283.47473Q632.10626 282.78723 633.2625 282.78723Q634.54376 282.78723 635.35626 283.63098Q636.1844 284.4591 636.1844 285.94348Q636.1844 287.1466 635.825 287.8341Q635.46564 288.5216 634.7625 288.91223Q634.075 289.28723 633.2625 289.28723Q631.96564 289.28723 631.15314 288.4591Q630.35626 287.61536 630.35626 286.03723ZM631.4344 286.03723Q631.4344 287.22473 631.95 287.81848Q632.48126 288.41223 633.2625 288.41223Q634.0594 288.41223 634.575 287.81848Q635.09064 287.22473 635.09064 286.00598Q635.09064 284.84973 634.5594 284.25598Q634.04376 283.66223 633.2625 283.66223Q632.48126 283.66223 631.95 284.25598Q631.4344 284.8341 631.4344 286.03723ZM637.325 287.28723L638.35626 287.13098Q638.45 287.75598 638.84064 288.0841Q639.2469 288.41223 639.98126 288.41223Q640.7 288.41223 641.04376 288.13098Q641.40314 287.8341 641.40314 287.42786Q641.40314 287.06848 641.09064 286.86536Q640.8719 286.72473 640.0125 286.50598Q638.85626 286.2091 638.40314 286.00598Q637.96564 285.78723 637.73126 285.41223Q637.4969 285.03723 637.4969 284.56848Q637.4969 284.16223 637.6844 283.80286Q637.8719 283.44348 638.2 283.2091Q638.45 283.03723 638.8719 282.91223Q639.29376 282.78723 639.79376 282.78723Q640.5125 282.78723 641.0594 283.00598Q641.6219 283.2091 641.8875 283.56848Q642.15314 283.92786 642.2469 284.5216L641.21564 284.66223Q641.15314 284.19348 640.8094 283.92786Q640.48126 283.6466 639.85626 283.6466Q639.1375 283.6466 638.825 283.8966Q638.5125 284.13098 638.5125 284.4591Q638.5125 284.66223 638.6375 284.81848Q638.77814 284.99036 639.04376 285.09973Q639.2 285.16223 639.98126 285.36536Q641.10626 285.67786 641.54376 285.86536Q641.98126 286.05286 642.23126 286.41223Q642.48126 286.7716 642.48126 287.31848Q642.48126 287.84973 642.16876 288.31848Q641.8719 288.7716 641.29376 289.03723Q640.71564 289.28723 639.98126 289.28723Q638.7625 289.28723 638.1219 288.78723Q637.4969 288.2716 637.325 287.28723ZM644.325 287.28723L645.35626 287.13098Q645.45 287.75598 645.84064 288.0841Q646.2469 288.41223 646.98126 288.41223Q647.7 288.41223 648.04376 288.13098Q648.40314 287.8341 648.40314 287.42786Q648.40314 287.06848 648.09064 286.86536Q647.8719 286.72473 647.0125 286.50598Q645.85626 286.2091 645.40314 286.00598Q644.96564 285.78723 644.73126 285.41223Q644.4969 285.03723 644.4969 284.56848Q644.4969 284.16223 644.6844 283.80286Q644.8719 283.44348 645.2 283.2091Q645.45 283.03723 645.8719 282.91223Q646.29376 282.78723 646.79376 282.78723Q647.5125 282.78723 648.0594 283.00598Q648.6219 283.2091 648.8875 283.56848Q649.15314 283.92786 649.2469 284.5216L648.21564 284.66223Q648.15314 284.19348 647.8094 283.92786Q647.48126 283.6466 646.85626 283.6466Q646.1375 283.6466 645.825 283.8966Q645.5125 284.13098 645.5125 284.4591Q645.5125 284.66223 645.6375 284.81848Q645.77814 284.99036 646.04376 285.09973Q646.2 285.16223 646.98126 285.36536Q648.10626 285.67786 648.54376 285.86536Q648.98126 286.05286 649.23126 286.41223Q649.48126 286.7716 649.48126 287.31848Q649.48126 287.84973 649.16876 288.31848Q648.8719 288.7716 648.29376 289.03723Q647.71564 289.28723 646.98126 289.28723Q645.7625 289.28723 645.1219 288.78723Q644.4969 288.2716 644.325 287.28723ZM655.825 289.1466L655.825 288.22473Q655.09064 289.28723 653.84064 289.28723Q653.29376 289.28723 652.8094 289.0841Q652.34064 288.86536 652.10626 288.55286Q651.8719 288.22473 651.77814 287.75598Q651.71564 287.4591 651.71564 286.7716L651.71564 282.92786L652.77814 282.92786L652.77814 286.38098Q652.77814 287.19348 652.84064 287.49036Q652.9344 287.8966 653.2469 288.1466Q653.575 288.38098 654.0594 288.38098Q654.52814 288.38098 654.9344 288.1466Q655.35626 287.8966 655.52814 287.47473Q655.71564 287.05286 655.71564 286.25598L655.71564 282.92786L656.7625 282.92786L656.7625 289.1466L655.825 289.1466ZM658.7469 281.7716L658.7469 280.55286L659.8094 280.55286L659.8094 281.7716L658.7469 281.7716ZM658.7469 289.1466L658.7469 282.92786L659.8094 282.92786L659.8094 289.1466L658.7469 289.1466Z" fill-rule="nonzero"/><path fill="#9e9e9e" d="M631.91876 299.66223L630.8719 299.74036Q630.73126 299.11536 630.48126 298.8341Q630.04376 298.38098 629.41876 298.38098Q628.91876 298.38098 628.52814 298.66223Q628.04376 299.03723 627.7469 299.74036Q627.46564 300.42786 627.45 301.7091Q627.825 301.13098 628.3719 300.84973Q628.9344 300.56848 629.54376 300.56848Q630.59064 300.56848 631.325 301.34973Q632.075 302.13098 632.075 303.34973Q632.075 304.16223 631.71564 304.86536Q631.3719 305.55286 630.7625 305.92786Q630.15314 306.28723 629.3875 306.28723Q628.0594 306.28723 627.23126 305.31848Q626.40314 304.34973 626.40314 302.13098Q626.40314 299.63098 627.325 298.50598Q628.1219 297.5216 629.48126 297.5216Q630.4969 297.5216 631.1375 298.09973Q631.79376 298.66223 631.91876 299.66223ZM627.6219 303.36536Q627.6219 303.91223 627.84064 304.41223Q628.075 304.8966 628.48126 305.16223Q628.90314 305.42786 629.3719 305.42786Q630.02814 305.42786 630.5125 304.8966Q630.9969 304.34973 630.9969 303.42786Q630.9969 302.53723 630.5125 302.0216Q630.04376 301.50598 629.325 301.50598Q628.60626 301.50598 628.10626 302.0216Q627.6219 302.53723 627.6219 303.36536ZM633.45 303.88098L634.5125 303.74036Q634.6844 304.63098 635.1219 305.03723Q635.5594 305.42786 636.1844 305.42786Q636.9344 305.42786 637.45 304.91223Q637.96564 304.3966 637.96564 303.63098Q637.96564 302.91223 637.48126 302.44348Q637.0125 301.9591 636.27814 301.9591Q635.98126 301.9591 635.52814 302.0841L635.65314 301.1466Q635.7625 301.16223 635.825 301.16223Q636.4969 301.16223 637.02814 300.81848Q637.575 300.4591 637.575 299.72473Q637.575 299.1466 637.1844 298.7716Q636.79376 298.38098 636.16876 298.38098Q635.5594 298.38098 635.1375 298.7716Q634.73126 299.16223 634.6219 299.92786L633.5594 299.74036Q633.7469 298.69348 634.4344 298.11536Q635.1219 297.5216 636.1375 297.5216Q636.84064 297.5216 637.4344 297.8341Q638.02814 298.13098 638.34064 298.6466Q638.65314 299.16223 638.65314 299.75598Q638.65314 300.30286 638.35626 300.7716Q638.0594 301.22473 637.48126 301.49036Q638.23126 301.66223 638.65314 302.22473Q639.075 302.7716 639.075 303.61536Q639.075 304.74036 638.2469 305.5216Q637.4344 306.30286 636.1844 306.30286Q635.0594 306.30286 634.3094 305.63098Q633.5594 304.94348 633.45 303.88098ZM641.0125 306.1466L641.0125 304.94348L642.21564 304.94348L642.21564 306.1466Q642.21564 306.80286 641.98126 307.2091Q641.7469 307.63098 641.2469 307.84973L640.95 307.3966Q641.27814 307.25598 641.4344 306.9591Q641.59064 306.67786 641.6219 306.1466L641.0125 306.1466ZM643.45 301.91223Q643.45 300.38098 643.7625 299.4591Q644.075 298.5216 644.6844 298.0216Q645.3094 297.5216 646.2469 297.5216Q646.9344 297.5216 647.45 297.80286Q647.98126 298.0841 648.325 298.61536Q648.66876 299.13098 648.85626 299.88098Q649.04376 300.63098 649.04376 301.91223Q649.04376 303.42786 648.73126 304.34973Q648.4344 305.2716 647.8094 305.78723Q647.2 306.28723 646.2469 306.28723Q645.0125 306.28723 644.29376 305.3966Q643.45 304.3341 643.45 301.91223ZM644.52814 301.91223Q644.52814 304.0216 645.02814 304.72473Q645.52814 305.42786 646.2469 305.42786Q646.98126 305.42786 647.46564 304.72473Q647.96564 304.0216 647.96564 301.91223Q647.96564 299.78723 647.46564 299.09973Q646.98126 298.3966 646.23126 298.3966Q645.5125 298.3966 645.075 299.00598Q644.52814 299.78723 644.52814 301.91223ZM650.65314 299.61536Q650.65314 298.69348 651.10626 298.05286Q651.575 297.41223 652.45 297.41223Q653.2625 297.41223 653.79376 297.99036Q654.325 298.56848 654.325 299.67786Q654.325 300.7716 653.77814 301.36536Q653.2469 301.94348 652.46564 301.94348Q651.6844 301.94348 651.16876 301.36536Q650.65314 300.78723 650.65314 299.61536ZM652.48126 298.13098Q652.09064 298.13098 651.825 298.47473Q651.575 298.81848 651.575 299.72473Q651.575 300.55286 651.825 300.8966Q652.09064 301.22473 652.48126 301.22473Q652.8875 301.22473 653.1375 300.88098Q653.40314 300.53723 653.40314 299.6466Q653.40314 298.80286 653.1375 298.47473Q652.8719 298.13098 652.48126 298.13098ZM652.48126 306.4591L657.1844 297.41223L658.04376 297.41223L653.35626 306.4591L652.48126 306.4591ZM656.2 304.13098Q656.2 303.2091 656.65314 302.56848Q657.1219 301.92786 658.0125 301.92786Q658.825 301.92786 659.35626 302.50598Q659.8875 303.06848 659.8875 304.19348Q659.8875 305.28723 659.34064 305.88098Q658.8094 306.4591 658.0125 306.4591Q657.2469 306.4591 656.71564 305.88098Q656.2 305.30286 656.2 304.13098ZM658.04376 302.6466Q657.6375 302.6466 657.3719 302.99036Q657.1219 303.3341 657.1219 304.24036Q657.1219 305.05286 657.3875 305.3966Q657.65314 305.74036 658.04376 305.74036Q658.4344 305.74036 658.7 305.3966Q658.96564 305.05286 658.96564 304.1466Q658.96564 303.31848 658.7 302.99036Q658.4344 302.6466 658.04376 302.6466Z" fill-rule="nonzero"/><path stroke="#757575" stroke-width="1.0" stroke-linecap="butt" d="M660.95 293.6466L517.43335 293.6466L489.6699 293.6466" fill-rule="nonzero"/><path fill="#9e9e9e" d="M491.6699 293.6466C491.6699 292.54202 490.77448 291.6466 489.6699 291.6466C488.56534 291.6466 487.6699 292.54202 487.6699 293.6466C487.6699 294.75116 488.56534 295.6466 489.6699 295.6466C490.77448 295.6466 491.6699 294.75116 491.6699 293.6466" fill-rule="nonzero"/><path fill="#000000" d="M22.596874 40.05L22.596874 25.7375L27.9875 25.7375Q29.425 25.7375 30.175 25.8625Q31.221874 26.05 31.940624 26.55Q32.659374 27.034374 33.08125 27.925Q33.51875 28.815624 33.51875 29.878124Q33.51875 31.70625 32.346874 32.971874Q31.190624 34.221874 28.159374 34.221874L24.4875 34.221874L24.4875 40.05L22.596874 40.05ZM24.4875 32.534374L28.190624 32.534374Q30.01875 32.534374 30.784374 31.8625Q31.565624 31.175 31.565624 29.925Q31.565624 29.034374 31.1125 28.39375Q30.659374 27.753124 29.925 27.55Q29.440624 27.425 28.14375 27.425L24.4875 27.425L24.4875 32.534374ZM34.721874 34.8625Q34.721874 31.9875 36.315624 30.596874Q37.659374 29.440624 39.58125 29.440624Q41.721874 29.440624 43.065624 30.846874Q44.425 32.253124 44.425 34.721874Q44.425 36.721874 43.83125 37.878124Q43.2375 39.01875 42.08125 39.659374Q40.940624 40.284374 39.58125 40.284374Q37.39375 40.284374 36.05 38.89375Q34.721874 37.4875 34.721874 34.8625ZM36.51875 34.8625Q36.51875 36.8625 37.378124 37.846874Q38.253124 38.83125 39.58125 38.83125Q40.89375 38.83125 41.753124 37.846874Q42.628124 36.846874 42.628124 34.8Q42.628124 32.878124 41.753124 31.89375Q40.878124 30.89375 39.58125 30.89375Q38.253124 30.89375 37.378124 31.89375Q36.51875 32.878124 36.51875 34.8625ZM45.659374 36.95625L47.409374 36.675Q47.55 37.721874 48.221874 38.284374Q48.89375 38.83125 50.096874 38.83125Q51.3 38.83125 51.878124 38.346874Q52.471874 37.846874 52.471874 37.190624Q52.471874 36.596874 51.95625 36.253124Q51.596874 36.01875 50.159374 35.659374Q48.221874 35.159374 47.471874 34.815624Q46.7375 34.45625 46.346874 33.83125Q45.95625 33.190624 45.95625 32.425Q45.95625 31.7375 46.26875 31.14375Q46.596874 30.55 47.14375 30.159374Q47.55 29.8625 48.253124 29.659374Q48.971874 29.440624 49.784374 29.440624Q51.003124 29.440624 51.925 29.8Q52.846874 30.14375 53.284374 30.753124Q53.721874 31.346874 53.89375 32.346874L52.175 32.58125Q52.05 31.784374 51.4875 31.346874Q50.925 30.89375 49.909374 30.89375Q48.690624 30.89375 48.175 31.3Q47.659374 31.690624 47.659374 32.221874Q47.659374 32.565624 47.878124 32.846874Q48.08125 33.128124 48.55 33.315624Q48.815624 33.409374 50.096874 33.753124Q51.971874 34.253124 52.70625 34.58125Q53.440624 34.89375 53.8625 35.503124Q54.284374 36.096874 54.284374 37.003124Q54.284374 37.878124 53.76875 38.659374Q53.253124 39.440624 52.284374 39.8625Q51.315624 40.284374 50.096874 40.284374Q48.08125 40.284374 47.01875 39.440624Q45.95625 38.596874 45.659374 36.95625ZM55.659374 36.95625L57.409374 36.675Q57.55 37.721874 58.221874 38.284374Q58.89375 38.83125 60.096874 38.83125Q61.3 38.83125 61.878124 38.346874Q62.471874 37.846874 62.471874 37.190624Q62.471874 36.596874 61.95625 36.253124Q61.596874 36.01875 60.159374 35.659374Q58.221874 35.159374 57.471874 34.815624Q56.7375 34.45625 56.346874 33.83125Q55.95625 33.190624 55.95625 32.425Q55.95625 31.7375 56.26875 31.14375Q56.596874 30.55 57.14375 30.159374Q57.55 29.8625 58.253124 29.659374Q58.971874 29.440624 59.784374 29.440624Q61.003124 29.440624 61.925 29.8Q62.846874 30.14375 63.284374 30.753124Q63.721874 31.346874 63.89375 32.346874L62.175 32.58125Q62.05 31.784374 61.4875 31.346874Q60.925 30.89375 59.909374 30.89375Q58.690624 30.89375 58.175 31.3Q57.659374 31.690624 57.659374 32.221874Q57.659374 32.565624 57.878124 32.846874Q58.08125 33.128124 58.55 33.315624Q58.815624 33.409374 60.096874 33.753124Q61.971874 34.253124 62.70625 34.58125Q63.440624 34.89375 63.8625 35.503124Q64.28438 36.096874 64.28438 37.003124Q64.28438 37.878124 63.76875 38.659374Q63.253124 39.440624 62.284374 39.8625Q61.315624 40.284374 60.096874 40.284374Q58.08125 40.284374 57.01875 39.440624Q55.95625 38.596874 55.659374 36.95625ZM73.15938 40.05L73.15938 38.51875Q71.95625 40.284374 69.87813 40.284374Q68.95625 40.284374 68.15938 39.940624Q67.3625 39.58125 66.97188 39.05Q66.59688 38.51875 66.44063 37.7375Q66.33125 37.221874 66.33125 36.096874L66.33125 29.675L68.08125 29.675L68.08125 35.425Q68.08125 36.8 68.19063 37.284374Q68.3625 37.971874 68.89375 38.378124Q69.44063 38.76875 70.22188 38.76875Q71.01875 38.76875 71.70625 38.3625Q72.40938 37.95625 72.69063 37.26875Q72.9875 36.565624 72.9875 35.2375L72.9875 29.675L74.7375 29.675L74.7375 40.05L73.15938 40.05ZM76.37813 27.753124L76.37813 25.7375L78.14375 25.7375L78.14375 27.753124L76.37813 27.753124ZM76.37813 40.05L76.37813 29.675L78.14375 29.675L78.14375 40.05L76.37813 40.05ZM86.37813 27.753124L86.37813 25.7375L88.14375 25.7375L88.14375 27.753124L86.37813 27.753124ZM86.37813 40.05L86.37813 29.675L88.14375 29.675L88.14375 40.05L86.37813 40.05ZM90.3625 40.05L90.3625 29.675L91.95625 29.675L91.95625 31.159374Q93.09688 29.440624 95.25313 29.440624Q96.19063 29.440624 96.97188 29.784374Q97.76875 30.1125 98.15938 30.659374Q98.55 31.20625 98.70625 31.95625Q98.8 32.45625 98.8 33.675L98.8 40.05L97.03438 40.05L97.03438 33.7375Q97.03438 32.659374 96.83125 32.128124Q96.62813 31.596874 96.09688 31.284374Q95.58125 30.971874 94.87813 30.971874Q93.75313 30.971874 92.94063 31.690624Q92.12813 32.39375 92.12813 34.378124L92.12813 40.05L90.3625 40.05ZM103.25313 40.05L99.3 29.675L101.15938 29.675L103.39375 35.89375Q103.75313 36.89375 104.05 37.971874Q104.28438 37.159374 104.70625 36.003124L107.00313 29.675L108.81563 29.675L104.89375 40.05L103.25313 40.05ZM116.47188 36.70625L118.28438 36.940624Q117.8625 38.51875 116.69063 39.409374Q115.53438 40.284374 113.72188 40.284374Q111.45625 40.284374 110.1125 38.89375Q108.78438 37.4875 108.78438 34.95625Q108.78438 32.33125 110.12813 30.89375Q111.47188 29.440624 113.62813 29.440624Q115.70625 29.440624 117.01875 30.8625Q118.34688 32.26875 118.34688 34.846874Q118.34688 35.003124 118.33125 35.315624L110.59688 35.315624Q110.69063 37.01875 111.56563 37.925Q112.44063 38.83125 113.7375 38.83125Q114.70625 38.83125 115.37813 38.33125Q116.06563 37.815624 116.47188 36.70625ZM110.69063 33.8625L116.4875 33.8625Q116.37813 32.565624 115.83125 31.909374Q114.9875 30.89375 113.64375 30.89375Q112.44063 30.89375 111.6125 31.70625Q110.78438 32.503124 110.69063 33.8625ZM120.3625 40.05L120.3625 29.675L121.95625 29.675L121.95625 31.159374Q123.09688 29.440624 125.25313 29.440624Q126.19063 29.440624 126.97188 29.784374Q127.76875 30.1125 128.15938 30.659374Q128.55 31.20625 128.70625 31.95625Q128.8 32.45625 128.8 33.675L128.8 40.05L127.03438 40.05L127.03438 33.7375Q127.03438 32.659374 126.83125 32.128124Q126.62813 31.596874 126.09688 31.284374Q125.58125 30.971874 124.87813 30.971874Q123.75313 30.971874 122.94063 31.690624Q122.12813 32.39375 122.12813 34.378124L122.12813 40.05L120.3625 40.05ZM134.20625 38.471874L134.45625 40.034374Q133.72188 40.190624 133.12813 40.190624Q132.175 40.190624 131.64375 39.89375Q131.12813 39.58125 130.90938 39.096874Q130.69063 38.596874 130.69063 37.01875L130.69063 31.05L129.40938 31.05L129.40938 29.675L130.69063 29.675L130.69063 27.1125L132.44063 26.05L132.44063 29.675L134.20625 29.675L134.20625 31.05L132.44063 31.05L132.44063 37.1125Q132.44063 37.8625 132.53438 38.08125Q132.62813 38.284374 132.83125 38.425Q133.05 38.55 133.44063 38.55Q133.72188 38.55 134.20625 38.471874ZM143.14375 38.76875Q142.15938 39.596874 141.25313 39.940624Q140.34688 40.284374 139.31563 40.284374Q137.6125 40.284374 136.69063 39.45625Q135.76875 38.6125 135.76875 37.315624Q135.76875 36.55 136.1125 35.925Q136.47188 35.3 137.03438 34.925Q137.59688 34.534374 138.3 34.33125Q138.81563 34.20625 139.8625 34.065624Q141.9875 33.815624 142.9875 33.471874Q143.00313 33.1125 143.00313 33.003124Q143.00313 31.940624 142.50313 31.4875Q141.83125 30.89375 140.50313 30.89375Q139.25313 30.89375 138.65938 31.33125Q138.08125 31.76875 137.8 32.878124L136.08125 32.64375Q136.31563 31.534374 136.84688 30.8625Q137.37813 30.175 138.39375 29.815624Q139.40938 29.440624 140.75313 29.440624Q142.08125 29.440624 142.90938 29.753124Q143.7375 30.065624 144.12813 30.55Q144.51875 31.01875 144.675 31.7375Q144.76875 32.190624 144.76875 33.3625L144.76875 35.70625Q144.76875 38.159374 144.87813 38.815624Q144.9875 39.45625 145.33125 40.05L143.4875 40.05Q143.22188 39.503124 143.14375 38.76875ZM142.9875 34.846874Q142.03438 35.2375 140.1125 35.503124Q139.03438 35.659374 138.58125 35.8625Q138.14375 36.05 137.89375 36.425Q137.64375 36.8 137.64375 37.26875Q137.64375 37.971874 138.175 38.440624Q138.70625 38.909374 139.7375 38.909374Q140.75313 38.909374 141.53438 38.471874Q142.33125 38.01875 142.70625 37.253124Q142.9875 36.64375 142.9875 35.4875L142.9875 34.846874ZM139.58125 28.39375L140.87813 25.659374L143.175 25.659374L141.03438 28.39375L139.58125 28.39375ZM147.34688 40.05L147.34688 29.675L148.925 29.675L148.925 31.253124Q149.53438 30.14375 150.05 29.8Q150.56563 29.440624 151.175 29.440624Q152.06563 29.440624 152.9875 30.003124L152.37813 31.64375Q151.7375 31.253124 151.09688 31.253124Q150.51875 31.253124 150.05 31.6125Q149.59688 31.95625 149.39375 32.565624Q149.1125 33.503124 149.1125 34.6125L149.1125 40.05L147.34688 40.05ZM154.37813 27.753124L154.37813 25.7375L156.14375 25.7375L156.14375 27.753124L154.37813 27.753124ZM154.37813 40.05L154.37813 29.675L156.14375 29.675L156.14375 40.05L154.37813 40.05ZM157.72188 34.8625Q157.72188 31.9875 159.31563 30.596874Q160.65938 29.440624 162.58125 29.440624Q164.72188 29.440624 166.06563 30.846874Q167.425 32.253124 167.425 34.721874Q167.425 36.721874 166.83125 37.878124Q166.2375 39.01875 165.08125 39.659374Q163.94063 40.284374 162.58125 40.284374Q160.39375 40.284374 159.05 38.89375Q157.72188 37.4875 157.72188 34.8625ZM159.51875 34.8625Q159.51875 36.8625 160.37813 37.846874Q161.25313 38.83125 162.58125 38.83125Q163.89375 38.83125 164.75313 37.846874Q165.62813 36.846874 165.62813 34.8Q165.62813 32.878124 164.75313 31.89375Q163.87813 30.89375 162.58125 30.89375Q161.25313 30.89375 160.37813 31.89375Q159.51875 32.878124 159.51875 34.8625ZM182.09688 40.05L182.09688 38.7375Q181.1125 40.284374 179.19063 40.284374Q177.95625 40.284374 176.90938 39.596874Q175.87813 38.909374 175.3 37.690624Q174.7375 36.471874 174.7375 34.878124Q174.7375 33.315624 175.25313 32.05Q175.76875 30.784374 176.8 30.1125Q177.84688 29.440624 179.1125 29.440624Q180.05 29.440624 180.78438 29.846874Q181.51875 30.2375 181.9875 30.8625L181.9875 25.7375L183.72188 25.7375L183.72188 40.05L182.09688 40.05ZM176.53438 34.878124Q176.53438 36.8625 177.37813 37.846874Q178.22188 38.83125 179.3625 38.83125Q180.51875 38.83125 181.31563 37.89375Q182.12813 36.95625 182.12813 35.01875Q182.12813 32.89375 181.3 31.89375Q180.4875 30.89375 179.28438 30.89375Q178.1125 30.89375 177.31563 31.8625Q176.53438 32.815624 176.53438 34.878124ZM185.72188 34.8625Q185.72188 31.9875 187.31563 30.596874Q188.65938 29.440624 190.58125 29.440624Q192.72188 29.440624 194.06563 30.846874Q195.425 32.253124 195.425 34.721874Q195.425 36.721874 194.83125 37.878124Q194.2375 39.01875 193.08125 39.659374Q191.94063 40.284374 190.58125 40.284374Q188.39375 40.284374 187.05 38.89375Q185.72188 37.4875 185.72188 34.8625ZM187.51875 34.8625Q187.51875 36.8625 188.37813 37.846874Q189.25313 38.83125 190.58125 38.83125Q191.89375 38.83125 192.75313 37.846874Q193.62813 36.846874 193.62813 34.8Q193.62813 32.878124 192.75313 31.89375Q191.87813 30.89375 190.58125 30.89375Q189.25313 30.89375 188.37813 31.89375Q187.51875 32.878124 187.51875 34.8625ZM196.65938 36.95625L198.40938 36.675Q198.55 37.721874 199.22188 38.284374Q199.89375 38.83125 201.09688 38.83125Q202.3 38.83125 202.87813 38.346874Q203.47188 37.846874 203.47188 37.190624Q203.47188 36.596874 202.95625 36.253124Q202.59688 36.01875 201.15938 35.659374Q199.22188 35.159374 198.47188 34.815624Q197.7375 34.45625 197.34688 33.83125Q196.95625 33.190624 196.95625 32.425Q196.95625 31.7375 197.26875 31.14375Q197.59688 30.55 198.14375 30.159374Q198.55 29.8625 199.25313 29.659374Q199.97188 29.440624 200.78438 29.440624Q202.00313 29.440624 202.925 29.8Q203.84688 30.14375 204.28438 30.753124Q204.72188 31.346874 204.89375 32.346874L203.175 32.58125Q203.05 31.784374 202.4875 31.346874Q201.925 30.89375 200.90938 30.89375Q199.69063 30.89375 199.175 31.3Q198.65938 31.690624 198.65938 32.221874Q198.65938 32.565624 198.87813 32.846874Q199.08125 33.128124 199.55 33.315624Q199.81563 33.409374 201.09688 33.753124Q202.97188 34.253124 203.70625 34.58125Q204.44063 34.89375 204.8625 35.503124Q205.28438 36.096874 205.28438 37.003124Q205.28438 37.878124 204.76875 38.659374Q204.25313 39.440624 203.28438 39.8625Q202.31563 40.284374 201.09688 40.284374Q199.08125 40.284374 198.01875 39.440624Q196.95625 38.596874 196.65938 36.95625ZM220.14375 36.253124L221.8625 36.471874Q221.58125 38.26875 220.40938 39.284374Q219.25313 40.284374 217.55 40.284374Q215.425 40.284374 214.12813 38.89375Q212.83125 37.503124 212.83125 34.909374Q212.83125 33.221874 213.37813 31.971874Q213.94063 30.70625 215.08125 30.08125Q216.22188 29.440624 217.56563 29.440624Q219.25313 29.440624 220.31563 30.3Q221.39375 31.159374 221.70625 32.721874L219.9875 32.9875Q219.75313 31.940624 219.12813 31.425Q218.50313 30.89375 217.62813 30.89375Q216.3 30.89375 215.47188 31.846874Q214.64375 32.8 214.64375 34.846874Q214.64375 36.940624 215.44063 37.89375Q216.2375 38.83125 217.53438 38.83125Q218.56563 38.83125 219.25313 38.20625Q219.95625 37.565624 220.14375 36.253124ZM222.72188 34.8625Q222.72188 31.9875 224.31563 30.596874Q225.65938 29.440624 227.58125 29.440624Q229.72188 29.440624 231.06563 30.846874Q232.425 32.253124 232.425 34.721874Q232.425 36.721874 231.83125 37.878124Q231.2375 39.01875 230.08125 39.659374Q228.94063 40.284374 227.58125 40.284374Q225.39375 40.284374 224.05 38.89375Q222.72188 37.4875 222.72188 34.8625ZM224.51875 34.8625Q224.51875 36.8625 225.37813 37.846874Q226.25313 38.83125 227.58125 38.83125Q228.89375 38.83125 229.75313 37.846874Q230.62813 36.846874 230.62813 34.8Q230.62813 32.878124 229.75313 31.89375Q228.87813 30.89375 227.58125 30.89375Q226.25313 30.89375 225.37813 31.89375Q224.51875 32.878124 224.51875 34.8625ZM234.3625 40.05L234.3625 29.675L235.95625 29.675L235.95625 31.159374Q237.09688 29.440624 239.25313 29.440624Q240.19063 29.440624 240.97188 29.784374Q241.76875 30.1125 242.15938 30.659374Q242.55 31.20625 242.70625 31.95625Q242.8 32.45625 242.8 33.675L242.8 40.05L241.03438 40.05L241.03438 33.7375Q241.03438 32.659374 240.83125 32.128124Q240.62813 31.596874 240.09688 31.284374Q239.58125 30.971874 238.87813 30.971874Q237.75313 30.971874 236.94063 31.690624Q236.12813 32.39375 236.12813 34.378124L236.12813 40.05L234.3625 40.05ZM244.3625 27.76875L244.3625 25.7375L246.1125 25.7375L246.1125 27.76875L244.3625 27.76875ZM242.12813 44.08125L242.45625 42.58125Q242.9875 42.721874 243.3 42.721874Q243.83125 42.721874 244.09688 42.3625Q244.3625 42.003124 244.3625 40.58125L244.3625 29.675L246.1125 29.675L246.1125 40.6125Q246.1125 42.534374 245.6125 43.284374Q244.9875 44.253124 243.50313 44.253124Q242.8 44.253124 242.12813 44.08125ZM255.15938 40.05L255.15938 38.51875Q253.95625 40.284374 251.87813 40.284374Q250.95625 40.284374 250.15938 39.940624Q249.3625 39.58125 248.97188 39.05Q248.59688 38.51875 248.44063 37.7375Q248.33125 37.221874 248.33125 36.096874L248.33125 29.675L250.08125 29.675L250.08125 35.425Q250.08125 36.8 250.19063 37.284374Q250.3625 37.971874 250.89375 38.378124Q251.44063 38.76875 252.22188 38.76875Q253.01875 38.76875 253.70625 38.3625Q254.40938 37.95625 254.69063 37.26875Q254.9875 36.565624 254.9875 35.2375L254.9875 29.675L256.7375 29.675L256.7375 40.05L255.15938 40.05ZM258.3625 40.05L258.3625 29.675L259.95624 29.675L259.95624 31.159374Q261.09686 29.440624 263.2531 29.440624Q264.1906 29.440624 264.97186 29.784374Q265.76874 30.1125 266.15936 30.659374Q266.55 31.20625 266.70624 31.95625Q266.8 32.45625 266.8 33.675L266.8 40.05L265.03436 40.05L265.03436 33.7375Q265.03436 32.659374 264.83124 32.128124Q264.6281 31.596874 264.09686 31.284374Q263.58124 30.971874 262.8781 30.971874Q261.7531 30.971874 260.9406 31.690624Q260.1281 32.39375 260.1281 34.378124L260.1281 40.05L258.3625 40.05ZM272.20624 38.471874L272.45624 40.034374Q271.72186 40.190624 271.1281 40.190624Q270.175 40.190624 269.64374 39.89375Q269.1281 39.58125 268.90936 39.096874Q268.6906 38.596874 268.6906 37.01875L268.6906 31.05L267.40936 31.05L267.40936 29.675L268.6906 29.675L268.6906 27.1125L270.4406 26.05L270.4406 29.675L272.20624 29.675L272.20624 31.05L270.4406 31.05L270.4406 37.1125Q270.4406 37.8625 270.53436 38.08125Q270.6281 38.284374 270.83124 38.425Q271.05 38.55 271.4406 38.55Q271.72186 38.55 272.20624 38.471874ZM273.72186 34.8625Q273.72186 31.9875 275.3156 30.596874Q276.65936 29.440624 278.58124 29.440624Q280.72186 29.440624 282.0656 30.846874Q283.425 32.253124 283.425 34.721874Q283.425 36.721874 282.83124 37.878124Q282.2375 39.01875 281.08124 39.659374Q279.9406 40.284374 278.58124 40.284374Q276.39374 40.284374 275.05 38.89375Q273.72186 37.4875 273.72186 34.8625ZM275.51874 34.8625Q275.51874 36.8625 276.3781 37.846874Q277.2531 38.83125 278.58124 38.83125Q279.89374 38.83125 280.7531 37.846874Q281.6281 36.846874 281.6281 34.8Q281.6281 32.878124 280.7531 31.89375Q279.8781 30.89375 278.58124 30.89375Q277.2531 30.89375 276.3781 31.89375Q275.51874 32.878124 275.51874 34.8625ZM284.65936 36.95625L286.40936 36.675Q286.55 37.721874 287.22186 38.284374Q287.89374 38.83125 289.09686 38.83125Q290.3 38.83125 290.8781 38.346874Q291.47186 37.846874 291.47186 37.190624Q291.47186 36.596874 290.95624 36.253124Q290.59686 36.01875 289.15936 35.659374Q287.22186 35.159374 286.47186 34.815624Q285.7375 34.45625 285.34686 33.83125Q284.95624 33.190624 284.95624 32.425Q284.95624 31.7375 285.26874 31.14375Q285.59686 30.55 286.14374 30.159374Q286.55 29.8625 287.2531 29.659374Q287.97186 29.440624 288.78436 29.440624Q290.0031 29.440624 290.925 29.8Q291.84686 30.14375 292.28436 30.753124Q292.72186 31.346874 292.89374 32.346874L291.175 32.58125Q291.05 31.784374 290.4875 31.346874Q289.925 30.89375 288.90936 30.89375Q287.6906 30.89375 287.175 31.3Q286.65936 31.690624 286.65936 32.221874Q286.65936 32.565624 286.8781 32.846874Q287.08124 33.128124 287.55 33.315624Q287.8156 33.409374 289.09686 33.753124Q290.97186 34.253124 291.70624 34.58125Q292.4406 34.89375 292.8625 35.503124Q293.28436 36.096874 293.28436 37.003124Q293.28436 37.878124 292.76874 38.659374Q292.2531 39.440624 291.28436 39.8625Q290.3156 40.284374 289.09686 40.284374Q287.08124 40.284374 286.01874 39.440624Q284.95624 38.596874 284.65936 36.95625ZM308.09686 40.05L308.09686 38.7375Q307.1125 40.284374 305.1906 40.284374Q303.95624 40.284374 302.90936 39.596874Q301.8781 38.909374 301.3 37.690624Q300.7375 36.471874 300.7375 34.878124Q300.7375 33.315624 301.2531 32.05Q301.76874 30.784374 302.8 30.1125Q303.84686 29.440624 305.1125 29.440624Q306.05 29.440624 306.78436 29.846874Q307.51874 30.2375 307.9875 30.8625L307.9875 25.7375L309.72186 25.7375L309.72186 40.05L308.09686 40.05ZM302.53436 34.878124Q302.53436 36.8625 303.3781 37.846874Q304.22186 38.83125 305.3625 38.83125Q306.51874 38.83125 307.3156 37.89375Q308.1281 36.95625 308.1281 35.01875Q308.1281 32.89375 307.3 31.89375Q306.4875 30.89375 305.28436 30.89375Q304.1125 30.89375 303.3156 31.8625Q302.53436 32.815624 302.53436 34.878124ZM319.47186 36.70625L321.28436 36.940624Q320.8625 38.51875 319.6906 39.409374Q318.53436 40.284374 316.72186 40.284374Q314.45624 40.284374 313.1125 38.89375Q311.78436 37.4875 311.78436 34.95625Q311.78436 32.33125 313.1281 30.89375Q314.47186 29.440624 316.6281 29.440624Q318.70624 29.440624 320.01874 30.8625Q321.34686 32.26875 321.34686 34.846874Q321.34686 35.003124 321.33124 35.315624L313.59686 35.315624Q313.6906 37.01875 314.5656 37.925Q315.4406 38.83125 316.7375 38.83125Q317.70624 38.83125 318.3781 38.33125Q319.0656 37.815624 319.47186 36.70625ZM313.6906 33.8625L319.4875 33.8625Q319.3781 32.565624 318.83124 31.909374Q317.9875 30.89375 316.64374 30.89375Q315.4406 30.89375 314.6125 31.70625Q313.78436 32.503124 313.6906 33.8625ZM330.9875 40.05L329.3625 40.05L329.3625 25.7375L331.1125 25.7375L331.1125 30.846874Q332.2375 29.440624 333.95624 29.440624Q334.90936 29.440624 335.76874 29.83125Q336.6281 30.221874 337.175 30.925Q337.72186 31.6125 338.03436 32.596874Q338.34686 33.58125 338.34686 34.70625Q338.34686 37.378124 337.03436 38.83125Q335.72186 40.284374 333.8781 40.284374Q332.03436 40.284374 330.9875 38.753124L330.9875 40.05ZM330.97186 34.784374Q330.97186 36.64375 331.47186 37.4875Q332.3156 38.83125 333.72186 38.83125Q334.8781 38.83125 335.70624 37.83125Q336.55 36.83125 336.55 34.846874Q336.55 32.815624 335.7375 31.8625Q334.9406 30.89375 333.8 30.89375Q332.64374 30.89375 331.8 31.89375Q330.97186 32.89375 330.97186 34.784374ZM347.14374 38.76875Q346.15936 39.596874 345.2531 39.940624Q344.34686 40.284374 343.3156 40.284374Q341.6125 40.284374 340.6906 39.45625Q339.76874 38.6125 339.76874 37.315624Q339.76874 36.55 340.1125 35.925Q340.47186 35.3 341.03436 34.925Q341.59686 34.534374 342.3 34.33125Q342.8156 34.20625 343.8625 34.065624Q345.9875 33.815624 346.9875 33.471874Q347.0031 33.1125 347.0031 33.003124Q347.0031 31.940624 346.5031 31.4875Q345.83124 30.89375 344.5031 30.89375Q343.2531 30.89375 342.65936 31.33125Q342.08124 31.76875 341.8 32.878124L340.08124 32.64375Q340.3156 31.534374 340.84686 30.8625Q341.3781 30.175 342.39374 29.815624Q343.40936 29.440624 344.7531 29.440624Q346.08124 29.440624 346.90936 29.753124Q347.7375 30.065624 348.1281 30.55Q348.51874 31.01875 348.675 31.7375Q348.76874 32.190624 348.76874 33.3625L348.76874 35.70625Q348.76874 38.159374 348.8781 38.815624Q348.9875 39.45625 349.33124 40.05L347.4875 40.05Q347.22186 39.503124 347.14374 38.76875ZM346.9875 34.846874Q346.03436 35.2375 344.1125 35.503124Q343.03436 35.659374 342.58124 35.8625Q342.14374 36.05 341.89374 36.425Q341.64374 36.8 341.64374 37.26875Q341.64374 37.971874 342.175 38.440624Q342.70624 38.909374 343.7375 38.909374Q344.7531 38.909374 345.53436 38.471874Q346.33124 38.01875 346.70624 37.253124Q346.9875 36.64375 346.9875 35.4875L346.9875 34.846874ZM350.65936 36.95625L352.40936 36.675Q352.55 37.721874 353.22186 38.284374Q353.89374 38.83125 355.09686 38.83125Q356.3 38.83125 356.8781 38.346874Q357.47186 37.846874 357.47186 37.190624Q357.47186 36.596874 356.95624 36.253124Q356.59686 36.01875 355.15936 35.659374Q353.22186 35.159374 352.47186 34.815624Q351.7375 34.45625 351.34686 33.83125Q350.95624 33.190624 350.95624 32.425Q350.95624 31.7375 351.26874 31.14375Q351.59686 30.55 352.14374 30.159374Q352.55 29.8625 353.2531 29.659374Q353.97186 29.440624 354.78436 29.440624Q356.0031 29.440624 356.925 29.8Q357.84686 30.14375 358.28436 30.753124Q358.72186 31.346874 358.89374 32.346874L357.175 32.58125Q357.05 31.784374 356.4875 31.346874Q355.925 30.89375 354.90936 30.89375Q353.6906 30.89375 353.175 31.3Q352.65936 31.690624 352.65936 32.221874Q352.65936 32.565624 352.8781 32.846874Q353.08124 33.128124 353.55 33.315624Q353.8156 33.409374 355.09686 33.753124Q356.97186 34.253124 357.70624 34.58125Q358.4406 34.89375 358.8625 35.503124Q359.28436 36.096874 359.28436 37.003124Q359.28436 37.878124 358.76874 38.659374Q358.2531 39.440624 357.28436 39.8625Q356.3156 40.284374 355.09686 40.284374Q353.08124 40.284374 352.01874 39.440624Q350.95624 38.596874 350.65936 36.95625ZM368.47186 36.70625L370.28436 36.940624Q369.8625 38.51875 368.6906 39.409374Q367.53436 40.284374 365.72186 40.284374Q363.45624 40.284374 362.1125 38.89375Q360.78436 37.4875 360.78436 34.95625Q360.78436 32.33125 362.1281 30.89375Q363.47186 29.440624 365.6281 29.440624Q367.70624 29.440624 369.01874 30.8625Q370.34686 32.26875 370.34686 34.846874Q370.34686 35.003124 370.33124 35.315624L362.59686 35.315624Q362.6906 37.01875 363.5656 37.925Q364.4406 38.83125 365.7375 38.83125Q366.70624 38.83125 367.3781 38.33125Q368.0656 37.815624 368.47186 36.70625ZM362.6906 33.8625L368.4875 33.8625Q368.3781 32.565624 367.83124 31.909374Q366.9875 30.89375 365.64374 30.89375Q364.4406 30.89375 363.6125 31.70625Q362.78436 32.503124 362.6906 33.8625ZM371.65936 36.95625L373.40936 36.675Q373.55 37.721874 374.22186 38.284374Q374.89374 38.83125 376.09686 38.83125Q377.3 38.83125 377.8781 38.346874Q378.47186 37.846874 378.47186 37.190624Q378.47186 36.596874 377.95624 36.253124Q377.59686 36.01875 376.15936 35.659374Q374.22186 35.159374 373.47186 34.815624Q372.7375 34.45625 372.34686 33.83125Q371.95624 33.190624 371.95624 32.425Q371.95624 31.7375 372.26874 31.14375Q372.59686 30.55 373.14374 30.159374Q373.55 29.8625 374.2531 29.659374Q374.97186 29.440624 375.78436 29.440624Q377.0031 29.440624 377.925 29.8Q378.84686 30.14375 379.28436 30.753124Q379.72186 31.346874 379.89374 32.346874L378.175 32.58125Q378.05 31.784374 377.4875 31.346874Q376.925 30.89375 375.90936 30.89375Q374.6906 30.89375 374.175 31.3Q373.65936 31.690624 373.65936 32.221874Q373.65936 32.565624 373.8781 32.846874Q374.08124 33.128124 374.55 33.315624Q374.8156 33.409374 376.09686 33.753124Q377.97186 34.253124 378.70624 34.58125Q379.4406 34.89375 379.8625 35.503124Q380.28436 36.096874 380.28436 37.003124Q380.28436 37.878124 379.76874 38.659374Q379.2531 39.440624 378.28436 39.8625Q377.3156 40.284374 376.09686 40.284374Q374.08124 40.284374 373.01874 39.440624Q371.95624 38.596874 371.65936 36.95625ZM395.09686 40.05L395.09686 38.7375Q394.1125 40.284374 392.1906 40.284374Q390.95624 40.284374 389.90936 39.596874Q388.8781 38.909374 388.3 37.690624Q387.7375 36.471874 387.7375 34.878124Q387.7375 33.315624 388.2531 32.05Q388.76874 30.784374 389.8 30.1125Q390.84686 29.440624 392.1125 29.440624Q393.05 29.440624 393.78436 29.846874Q394.51874 30.2375 394.9875 30.8625L394.9875 25.7375L396.72186 25.7375L396.72186 40.05L395.09686 40.05ZM389.53436 34.878124Q389.53436 36.8625 390.3781 37.846874Q391.22186 38.83125 392.3625 38.83125Q393.51874 38.83125 394.3156 37.89375Q395.1281 36.95625 395.1281 35.01875Q395.1281 32.89375 394.3 31.89375Q393.4875 30.89375 392.28436 30.89375Q391.1125 30.89375 390.3156 31.8625Q389.53436 32.815624 389.53436 34.878124ZM406.47186 36.70625L408.28436 36.940624Q407.8625 38.51875 406.6906 39.409374Q405.53436 40.284374 403.72186 40.284374Q401.45624 40.284374 400.1125 38.89375Q398.78436 37.4875 398.78436 34.95625Q398.78436 32.33125 400.1281 30.89375Q401.47186 29.440624 403.6281 29.440624Q405.70624 29.440624 407.01874 30.8625Q408.34686 32.26875 408.34686 34.846874Q408.34686 35.003124 408.33124 35.315624L400.59686 35.315624Q400.6906 37.01875 401.5656 37.925Q402.4406 38.83125 403.7375 38.83125Q404.70624 38.83125 405.3781 38.33125Q406.0656 37.815624 406.47186 36.70625ZM400.6906 33.8625L406.4875 33.8625Q406.3781 32.565624 405.83124 31.909374Q404.9875 30.89375 403.64374 30.89375Q402.4406 30.89375 401.6125 31.70625Q400.78436 32.503124 400.6906 33.8625ZM423.09686 40.05L423.09686 38.7375Q422.1125 40.284374 420.1906 40.284374Q418.95624 40.284374 417.90936 39.596874Q416.8781 38.909374 416.3 37.690624Q415.7375 36.471874 415.7375 34.878124Q415.7375 33.315624 416.2531 32.05Q416.76874 30.784374 417.8 30.1125Q418.84686 29.440624 420.1125 29.440624Q421.05 29.440624 421.78436 29.846874Q422.51874 30.2375 422.9875 30.8625L422.9875 25.7375L424.72186 25.7375L424.72186 40.05L423.09686 40.05ZM417.53436 34.878124Q417.53436 36.8625 418.3781 37.846874Q419.22186 38.83125 420.3625 38.83125Q421.51874 38.83125 422.3156 37.89375Q423.1281 36.95625 423.1281 35.01875Q423.1281 32.89375 422.3 31.89375Q421.4875 30.89375 420.28436 30.89375Q419.1125 30.89375 418.3156 31.8625Q417.53436 32.815624 417.53436 34.878124ZM434.14374 38.76875Q433.15936 39.596874 432.2531 39.940624Q431.34686 40.284374 430.3156 40.284374Q428.6125 40.284374 427.6906 39.45625Q426.76874 38.6125 426.76874 37.315624Q426.76874 36.55 427.1125 35.925Q427.47186 35.3 428.03436 34.925Q428.59686 34.534374 429.3 34.33125Q429.8156 34.20625 430.8625 34.065624Q432.9875 33.815624 433.9875 33.471874Q434.0031 33.1125 434.0031 33.003124Q434.0031 31.940624 433.5031 31.4875Q432.83124 30.89375 431.5031 30.89375Q430.2531 30.89375 429.65936 31.33125Q429.08124 31.76875 428.8 32.878124L427.08124 32.64375Q427.3156 31.534374 427.84686 30.8625Q428.3781 30.175 429.39374 29.815624Q430.40936 29.440624 431.7531 29.440624Q433.08124 29.440624 433.90936 29.753124Q434.7375 30.065624 435.1281 30.55Q435.51874 31.01875 435.675 31.7375Q435.76874 32.190624 435.76874 33.3625L435.76874 35.70625Q435.76874 38.159374 435.8781 38.815624Q435.9875 39.45625 436.33124 40.05L434.4875 40.05Q434.22186 39.503124 434.14374 38.76875ZM433.9875 34.846874Q433.03436 35.2375 431.1125 35.503124Q430.03436 35.659374 429.58124 35.8625Q429.14374 36.05 428.89374 36.425Q428.64374 36.8 428.64374 37.26875Q428.64374 37.971874 429.175 38.440624Q429.70624 38.909374 430.7375 38.909374Q431.7531 38.909374 432.53436 38.471874Q433.33124 38.01875 433.70624 37.253124Q433.9875 36.64375 433.9875 35.4875L433.9875 34.846874ZM445.09686 40.05L445.09686 38.7375Q444.1125 40.284374 442.1906 40.284374Q440.95624 40.284374 439.90936 39.596874Q438.8781 38.909374 438.3 37.690624Q437.7375 36.471874 437.7375 34.878124Q437.7375 33.315624 438.2531 32.05Q438.76874 30.784374 439.8 30.1125Q440.84686 29.440624 442.1125 29.440624Q443.05 29.440624 443.78436 29.846874Q444.51874 30.2375 444.9875 30.8625L444.9875 25.7375L446.72186 25.7375L446.72186 40.05L445.09686 40.05ZM439.53436 34.878124Q439.53436 36.8625 440.3781 37.846874Q441.22186 38.83125 442.3625 38.83125Q443.51874 38.83125 444.3156 37.89375Q445.1281 36.95625 445.1281 35.01875Q445.1281 32.89375 444.3 31.89375Q443.4875 30.89375 442.28436 30.89375Q441.1125 30.89375 440.3156 31.8625Q439.53436 32.815624 439.53436 34.878124ZM448.72186 34.8625Q448.72186 31.9875 450.3156 30.596874Q451.65936 29.440624 453.58124 29.440624Q455.72186 29.440624 457.0656 30.846874Q458.425 32.253124 458.425 34.721874Q458.425 36.721874 457.83124 37.878124Q457.2375 39.01875 456.08124 39.659374Q454.9406 40.284374 453.58124 40.284374Q451.39374 40.284374 450.05 38.89375Q448.72186 37.4875 448.72186 34.8625ZM450.51874 34.8625Q450.51874 36.8625 451.3781 37.846874Q452.2531 38.83125 453.58124 38.83125Q454.89374 38.83125 455.7531 37.846874Q456.6281 36.846874 456.6281 34.8Q456.6281 32.878124 455.7531 31.89375Q454.8781 30.89375 453.58124 30.89375Q452.2531 30.89375 451.3781 31.89375Q450.51874 32.878124 450.51874 34.8625ZM459.65936 36.95625L461.40936 36.675Q461.55 37.721874 462.22186 38.284374Q462.89374 38.83125 464.09686 38.83125Q465.3 38.83125 465.8781 38.346874Q466.47186 37.846874 466.47186 37.190624Q466.47186 36.596874 465.95624 36.253124Q465.59686 36.01875 464.15936 35.659374Q462.22186 35.159374 461.47186 34.815624Q460.7375 34.45625 460.34686 33.83125Q459.95624 33.190624 459.95624 32.425Q459.95624 31.7375 460.26874 31.14375Q460.59686 30.55 461.14374 30.159374Q461.55 29.8625 462.2531 29.659374Q462.97186 29.440624 463.78436 29.440624Q465.0031 29.440624 465.925 29.8Q466.84686 30.14375 467.28436 30.753124Q467.72186 31.346874 467.89374 32.346874L466.175 32.58125Q466.05 31.784374 465.4875 31.346874Q464.925 30.89375 463.90936 30.89375Q462.6906 30.89375 462.175 31.3Q461.65936 31.690624 461.65936 32.221874Q461.65936 32.565624 461.8781 32.846874Q462.08124 33.128124 462.55 33.315624Q462.8156 33.409374 464.09686 33.753124Q465.97186 34.253124 466.70624 34.58125Q467.4406 34.89375 467.8625 35.503124Q468.28436 36.096874 468.28436 37.003124Q468.28436 37.878124 467.76874 38.659374Q467.2531 39.440624 466.28436 39.8625Q465.3156 40.284374 464.09686 40.284374Q462.08124 40.284374 461.01874 39.440624Q459.95624 38.596874 459.65936 36.95625ZM483.14374 38.76875Q482.15936 39.596874 481.2531 39.940624Q480.34686 40.284374 479.3156 40.284374Q477.6125 40.284374 476.6906 39.45625Q475.76874 38.6125 475.76874 37.315624Q475.76874 36.55 476.1125 35.925Q476.47186 35.3 477.03436 34.925Q477.59686 34.534374 478.3 34.33125Q478.8156 34.20625 479.8625 34.065624Q481.9875 33.815624 482.9875 33.471874Q483.0031 33.1125 483.0031 33.003124Q483.0031 31.940624 482.5031 31.4875Q481.83124 30.89375 480.5031 30.89375Q479.2531 30.89375 478.65936 31.33125Q478.08124 31.76875 477.8 32.878124L476.08124 32.64375Q476.3156 31.534374 476.84686 30.8625Q477.3781 30.175 478.39374 29.815624Q479.40936 29.440624 480.7531 29.440624Q482.08124 29.440624 482.90936 29.753124Q483.7375 30.065624 484.1281 30.55Q484.51874 31.01875 484.675 31.7375Q484.76874 32.190624 484.76874 33.3625L484.76874 35.70625Q484.76874 38.159374 484.8781 38.815624Q484.9875 39.45625 485.33124 40.05L483.4875 40.05Q483.22186 39.503124 483.14374 38.76875ZM482.9875 34.846874Q482.03436 35.2375 480.1125 35.503124Q479.03436 35.659374 478.58124 35.8625Q478.14374 36.05 477.89374 36.425Q477.64374 36.8 477.64374 37.26875Q477.64374 37.971874 478.175 38.440624Q478.70624 38.909374 479.7375 38.909374Q480.7531 38.909374 481.53436 38.471874Q482.33124 38.01875 482.70624 37.253124Q482.9875 36.64375 482.9875 35.4875L482.9875 34.846874ZM488.9875 40.05L487.3625 40.05L487.3625 25.7375L489.1125 25.7375L489.1125 30.846874Q490.2375 29.440624 491.95624 29.440624Q492.90936 29.440624 493.76874 29.83125Q494.6281 30.221874 495.175 30.925Q495.72186 31.6125 496.03436 32.596874Q496.34686 33.58125 496.34686 34.70625Q496.34686 37.378124 495.03436 38.83125Q493.72186 40.284374 491.8781 40.284374Q490.03436 40.284374 488.9875 38.753124L488.9875 40.05ZM488.97186 34.784374Q488.97186 36.64375 489.47186 37.4875Q490.3156 38.83125 491.72186 38.83125Q492.8781 38.83125 493.70624 37.83125Q494.55 36.83125 494.55 34.846874Q494.55 32.815624 493.7375 31.8625Q492.9406 30.89375 491.8 30.89375Q490.64374 30.89375 489.8 31.89375Q488.97186 32.89375 488.97186 34.784374ZM505.47186 36.70625L507.28436 36.940624Q506.8625 38.51875 505.6906 39.409374Q504.53436 40.284374 502.72186 40.284374Q500.45624 40.284374 499.1125 38.89375Q497.78436 37.4875 497.78436 34.95625Q497.78436 32.33125 499.1281 30.89375Q500.47186 29.440624 502.6281 29.440624Q504.70624 29.440624 506.01874 30.8625Q507.34686 32.26875 507.34686 34.846874Q507.34686 35.003124 507.33124 35.315624L499.59686 35.315624Q499.6906 37.01875 500.5656 37.925Q501.4406 38.83125 502.7375 38.83125Q503.70624 38.83125 504.3781 38.33125Q505.0656 37.815624 505.47186 36.70625ZM499.6906 33.8625L505.4875 33.8625Q505.3781 32.565624 504.83124 31.909374Q503.9875 30.89375 502.64374 30.89375Q501.4406 30.89375 500.6125 31.70625Q499.78436 32.503124 499.6906 33.8625ZM509.34686 40.05L509.34686 29.675L510.925 29.675L510.925 31.253124Q511.53436 30.14375 512.05 29.8Q512.5656 29.440624 513.175 29.440624Q514.0656 29.440624 514.9875 30.003124L514.3781 31.64375Q513.7375 31.253124 513.09686 31.253124Q512.51874 31.253124 512.05 31.6125Q511.59686 31.95625 511.39374 32.565624Q511.1125 33.503124 511.1125 34.6125L511.1125 40.05L509.34686 40.05ZM520.20624 38.471874L520.45624 40.034374Q519.72186 40.190624 519.1281 40.190624Q518.175 40.190624 517.64374 39.89375Q517.1281 39.58125 516.90936 39.096874Q516.6906 38.596874 516.6906 37.01875L516.6906 31.05L515.40936 31.05L515.40936 29.675L516.6906 29.675L516.6906 27.1125L518.4406 26.05L518.4406 29.675L520.20624 29.675L520.20624 31.05L518.4406 31.05L518.4406 37.1125Q518.4406 37.8625 518.53436 38.08125Q518.6281 38.284374 518.83124 38.425Q519.05 38.55 519.4406 38.55Q519.72186 38.55 520.20624 38.471874ZM521.72186 34.8625Q521.72186 31.9875 523.3156 30.596874Q524.65936 29.440624 526.58124 29.440624Q528.72186 29.440624 530.0656 30.846874Q531.425 32.253124 531.425 34.721874Q531.425 36.721874 530.83124 37.878124Q530.2375 39.01875 529.08124 39.659374Q527.9406 40.284374 526.58124 40.284374Q524.39374 40.284374 523.05 38.89375Q521.72186 37.4875 521.72186 34.8625ZM523.51874 34.8625Q523.51874 36.8625 524.3781 37.846874Q525.2531 38.83125 526.58124 38.83125Q527.89374 38.83125 528.7531 37.846874Q529.6281 36.846874 529.6281 34.8Q529.6281 32.878124 528.7531 31.89375Q527.8781 30.89375 526.58124 30.89375Q525.2531 30.89375 524.3781 31.89375Q523.51874 32.878124 523.51874 34.8625ZM532.65936 36.95625L534.40936 36.675Q534.55 37.721874 535.22186 38.284374Q535.89374 38.83125 537.09686 38.83125Q538.3 38.83125 538.8781 38.346874Q539.47186 37.846874 539.47186 37.190624Q539.47186 36.596874 538.95624 36.253124Q538.59686 36.01875 537.15936 35.659374Q535.22186 35.159374 534.47186 34.815624Q533.7375 34.45625 533.34686 33.83125Q532.95624 33.190624 532.95624 32.425Q532.95624 31.7375 533.26874 31.14375Q533.59686 30.55 534.14374 30.159374Q534.55 29.8625 535.2531 29.659374Q535.97186 29.440624 536.78436 29.440624Q538.0031 29.440624 538.925 29.8Q539.84686 30.14375 540.28436 30.753124Q540.72186 31.346874 540.89374 32.346874L539.175 32.58125Q539.05 31.784374 538.4875 31.346874Q537.925 30.89375 536.90936 30.89375Q535.6906 30.89375 535.175 31.3Q534.65936 31.690624 534.65936 32.221874Q534.65936 32.565624 534.8781 32.846874Q535.08124 33.128124 535.55 33.315624Q535.8156 33.409374 537.09686 33.753124Q538.97186 34.253124 539.70624 34.58125Q540.4406 34.89375 540.8625 35.503124Q541.28436 36.096874 541.28436 37.003124Q541.28436 37.878124 540.76874 38.659374Q540.2531 39.440624 539.28436 39.8625Q538.3156 40.284374 537.09686 40.284374Q535.08124 40.284374 534.01874 39.440624Q532.95624 38.596874 532.65936 36.95625Z" fill-rule="nonzero"/></svg>