<svg version="1.1" viewBox="0.0 0.0 600.0 371.0" fill="none" stroke="none" stroke-linecap="square" stroke-miterlimit="10" width="600" height="371" xmlns:xlink="http://www.w3.org/1999/xlink" xmlns="http://www.w3.org/2000/svg"><path fill="#ffffff" d="M0 0L600.0 0L600.0 371.0L0 371.0L0 0Z" fill-rule="nonzero"/><path stroke="#333333" stroke-width="1.0" stroke-linecap="butt" d="M45.5 274.5L581.5 274.5" fill-rule="nonzero"/><path stroke="#cccccc" stroke-width="1.0" stroke-linecap="butt" d="M45.5 221.5L581.5 221.5" fill-rule="nonzero"/><path stroke="#cccccc" stroke-width="1.0" stroke-linecap="butt" d="M45.5 168.5L581.5 168.5" fill-rule="nonzero"/><path stroke="#cccccc" stroke-width="1.0" stroke-linecap="butt" d="M45.5 114.5L581.5 114.5" fill-rule="nonzero"/><path stroke="#cccccc" stroke-width="1.0" stroke-linecap="butt" d="M45.5 61.5L581.5 61.5" fill-rule="nonzero"/><clipPath id="id_0"><path d="M45.55 61.916668L581.45 61.916668L581.45 274.08334L45.55 274.08334L45.55 61.916668Z" clip-rule="nonzero"/></clipPath><path stroke="#000000" stroke-width="2.0" stroke-linecap="butt" stroke-opacity="0.0" clip-path="url(#id_0)" d="M146.0 274.0L81.0 274.0L81.0 138.0C81.0 136.89543 81.89543 136.0 83.0 136.0L144.0 136.0C145.10457 136.0 146.0 136.89543 146.0 138.0Z" fill-rule="nonzero"/><path fill="#2e2e2e" clip-path="url(#id_0)" d="M146.0 274.0L81.0 274.0L81.0 138.0C81.0 136.89543 81.89543 136.0 83.0 136.0L144.0 136.0C145.10457 136.0 146.0 136.89543 146.0 138.0Z" fill-rule="nonzero"/><path stroke="#000000" stroke-width="2.0" stroke-linecap="butt" stroke-opacity="0.0" clip-path="url(#id_0)" d="M246.0 274.0L181.0 274.0L181.0 116.0C181.0 114.89543 181.89543 114.0 183.0 114.0L244.0 114.0C245.10457 114.0 246.0 114.89543 246.0 116.0Z" fill-rule="nonzero"/><path fill="#2e2e2e" clip-path="url(#id_0)" d="M246.0 274.0L181.0 274.0L181.0 116.0C181.0 114.89543 181.89543 114.0 183.0 114.0L244.0 114.0C245.10457 114.0 246.0 114.89543 246.0 116.0Z" fill-rule="nonzero"/><path stroke="#000000" stroke-width="2.0" stroke-linecap="butt" stroke-opacity="0.0" clip-path="url(#id_0)" d="M347.0 274.0L282.0 274.0L282.0 191.0C282.0 189.89543 282.89542 189.0 284.0 189.0L345.0 189.0C346.10458 189.0 347.0 189.89543 347.0 191.0Z" fill-rule="nonzero"/><path fill="#2e2e2e" clip-path="url(#id_0)" d="M347.0 274.0L282.0 274.0L282.0 191.0C282.0 189.89543 282.89542 189.0 284.0 189.0L345.0 189.0C346.10458 189.0 347.0 189.89543 347.0 191.0Z" fill-rule="nonzero"/><path stroke="#000000" stroke-width="2.0" stroke-linecap="butt" stroke-opacity="0.0" clip-path="url(#id_0)" d="M447.0 274.0L382.0 274.0L382.0 156.0C382.0 154.89543 382.89542 154.0 384.0 154.0L445.0 154.0C446.10458 154.0 447.0 154.89543 447.0 156.0Z" fill-rule="nonzero"/><path fill="#2e2e2e" clip-path="url(#id_0)" d="M447.0 274.0L382.0 274.0L382.0 156.0C382.0 154.89543 382.89542 154.0 384.0 154.0L445.0 154.0C446.10458 154.0 447.0 154.89543 447.0 156.0Z" fill-rule="nonzero"/><path stroke="#000000" stroke-width="2.0" stroke-linecap="butt" stroke-opacity="0.0" clip-path="url(#id_0)" d="M547.0 274.0L482.0 274.0L482.0 215.0C482.0 213.89543 482.89542 213.0 484.0 213.0L545.0 213.0C546.10455 213.0 547.0 213.89543 547.0 215.0Z" fill-rule="nonzero"/><path fill="#2e2e2e" clip-path="url(#id_0)" d="M547.0 274.0L482.0 274.0L482.0 215.0C482.0 213.89543 482.89542 213.0 484.0 213.0L545.0 213.0C546.10455 213.0 547.0 213.89543 547.0 215.0Z" fill-rule="nonzero"/><path fill="#2e2e2e" d="M294.4375 323.08334L294.4375 314.4896L298.25 314.4896Q299.40625 314.4896 300.0 314.72397Q300.59375 314.95834 300.95312 315.5521Q301.3125 316.13022 301.3125 316.83334Q301.3125 317.75522 300.71875 318.38022Q300.125 319.00522 298.89062 319.1771Q299.34375 319.39584 299.57812 319.59897Q300.07812 320.0521 300.51562 320.7396L302.01562 323.08334L300.57812 323.08334L299.45312 321.3021Q298.95312 320.52084 298.625 320.1146Q298.3125 319.70834 298.04688 319.5521Q297.79688 319.38022 297.53125 319.3021Q297.34375 319.27084 296.90625 319.27084L295.57812 319.27084L295.57812 323.08334L294.4375 323.08334ZM295.57812 318.28647L298.03125 318.28647Q298.79688 318.28647 299.23438 318.13022Q299.6875 317.95834 299.90625 317.6146Q300.14062 317.25522 300.14062 316.83334Q300.14062 316.22397 299.6875 315.83334Q299.25 315.44272 298.29688 315.44272L295.57812 315.44272L295.57812 318.28647ZM307.54688 321.08334L308.64062 321.20834Q308.39062 322.16147 307.6875 322.69272Q306.98438 323.22397 305.90625 323.22397Q304.54688 323.22397 303.73438 322.38022Q302.9375 321.53647 302.9375 320.02084Q302.9375 318.45834 303.75 317.59897Q304.5625 316.72397 305.84375 316.72397Q307.09375 316.72397 307.875 317.56772Q308.67188 318.41147 308.67188 319.95834Q308.67188 320.0521 308.67188 320.2396L304.03125 320.2396Q304.09375 321.27084 304.60938 321.81772Q305.125 322.34897 305.90625 322.34897Q306.48438 322.34897 306.89062 322.0521Q307.3125 321.7396 307.54688 321.08334ZM304.09375 319.38022L307.5625 319.38022Q307.5 318.58334 307.17188 318.19272Q306.65625 317.58334 305.85938 317.58334Q305.125 317.58334 304.625 318.06772Q304.14062 318.5521 304.09375 319.38022ZM310.09375 323.59897L311.125 323.75522Q311.1875 324.22397 311.48438 324.44272Q311.875 324.7396 312.54688 324.7396Q313.28125 324.7396 313.67188 324.44272Q314.07812 324.14584 314.21875 323.63022Q314.3125 323.3021 314.29688 322.27084Q313.60938 323.08334 312.57812 323.08334Q311.29688 323.08334 310.59375 322.16147Q309.89062 321.22397 309.89062 319.94272Q309.89062 319.0521 310.20312 318.3021Q310.53125 317.53647 311.14062 317.13022Q311.75 316.72397 312.57812 316.72397Q313.6875 316.72397 314.40625 317.6146L314.40625 316.8646L315.375 316.8646L315.375 322.2396Q315.375 323.69272 315.07812 324.3021Q314.78125 324.91147 314.14062 325.25522Q313.5 325.6146 312.5625 325.6146Q311.45312 325.6146 310.76562 325.1146Q310.07812 324.6146 310.09375 323.59897ZM310.96875 319.8646Q310.96875 321.08334 311.45312 321.64584Q311.9375 322.20834 312.67188 322.20834Q313.40625 322.20834 313.89062 321.64584Q314.39062 321.08334 314.39062 319.89584Q314.39062 318.75522 313.875 318.1771Q313.375 317.59897 312.65625 317.59897Q311.95312 317.59897 311.45312 318.1771Q310.96875 318.7396 310.96875 319.8646ZM317.29688 315.70834L317.29688 314.4896L318.35938 314.4896L318.35938 315.70834L317.29688 315.70834ZM317.29688 323.08334L317.29688 316.8646L318.35938 316.8646L318.35938 323.08334L317.29688 323.08334ZM324.35938 322.31772Q323.76562 322.81772 323.21875 323.02084Q322.6875 323.22397 322.0625 323.22397Q321.03125 323.22397 320.48438 322.72397Q319.9375 322.22397 319.9375 321.44272Q319.9375 320.9896 320.14062 320.6146Q320.34375 320.22397 320.6875 320.00522Q321.03125 319.77084 321.45312 319.66147Q321.75 319.56772 322.39062 319.4896Q323.65625 319.34897 324.26562 319.13022Q324.26562 318.91147 324.26562 318.8646Q324.26562 318.20834 323.96875 317.94272Q323.5625 317.59897 322.76562 317.59897Q322.03125 317.59897 321.67188 317.8646Q321.3125 318.1146 321.14062 318.77084L320.10938 318.63022Q320.25 317.97397 320.57812 317.56772Q320.90625 317.16147 321.51562 316.94272Q322.125 316.72397 322.92188 316.72397Q323.71875 316.72397 324.21875 316.91147Q324.71875 317.09897 324.95312 317.38022Q325.1875 317.66147 325.28125 318.09897Q325.32812 318.3646 325.32812 319.06772L325.32812 320.47397Q325.32812 321.94272 325.39062 322.33334Q325.46875 322.72397 325.67188 323.08334L324.5625 323.08334Q324.40625 322.75522 324.35938 322.31772ZM324.26562 319.95834Q323.6875 320.19272 322.54688 320.3646Q321.89062 320.45834 321.625 320.58334Q321.35938 320.69272 321.20312 320.91147Q321.0625 321.13022 321.0625 321.41147Q321.0625 321.83334 321.375 322.1146Q321.70312 322.39584 322.3125 322.39584Q322.92188 322.39584 323.39062 322.13022Q323.875 321.8646 324.09375 321.39584Q324.26562 321.03647 324.26562 320.34897L324.26562 319.95834ZM320.84375 315.94272Q320.82812 315.33334 321.17188 314.97397Q321.5 314.59897 322.03125 314.59897Q322.39062 314.59897 323.01562 314.9271Q323.35938 315.09897 323.5625 315.09897Q323.75 315.09897 323.84375 315.00522Q323.95312 314.89584 324.0 314.58334L324.76562 314.58334Q324.73438 315.25522 324.42188 315.59897Q324.10938 315.9271 323.60938 315.9271Q323.23438 315.9271 322.64062 315.59897Q322.25 315.38022 322.0625 315.38022Q321.85938 315.38022 321.73438 315.52084Q321.60938 315.66147 321.625 315.94272L320.84375 315.94272ZM326.90625 319.97397Q326.90625 318.2396 327.85938 317.41147Q328.65625 316.72397 329.8125 316.72397Q331.09375 316.72397 331.90625 317.56772Q332.73438 318.39584 332.73438 319.88022Q332.73438 321.08334 332.375 321.77084Q332.01562 322.45834 331.3125 322.84897Q330.625 323.22397 329.8125 323.22397Q328.51562 323.22397 327.70312 322.39584Q326.90625 321.5521 326.90625 319.97397ZM327.98438 319.97397Q327.98438 321.16147 328.5 321.75522Q329.03125 322.34897 329.8125 322.34897Q330.60938 322.34897 331.125 321.75522Q331.64062 321.16147 331.64062 319.94272Q331.64062 318.78647 331.10938 318.19272Q330.59375 317.59897 329.8125 317.59897Q329.03125 317.59897 328.5 318.19272Q327.98438 318.77084 327.98438 319.97397Z" fill-rule="nonzero"/><path fill="#2e2e2e" d="M33.05 273.84897Q33.05 272.31772 33.3625 271.39584Q33.675 270.45834 34.284374 269.95834Q34.909374 269.45834 35.846874 269.45834Q36.534374 269.45834 37.05 269.7396Q37.58125 270.02084 37.925 270.5521Q38.26875 271.06772 38.45625 271.81772Q38.64375 272.56772 38.64375 273.84897Q38.64375 275.3646 38.33125 276.28647Q38.034374 277.20834 37.409374 277.72397Q36.8 278.22397 35.846874 278.22397Q34.6125 278.22397 33.89375 277.33334Q33.05 276.27084 33.05 273.84897ZM34.128124 273.84897Q34.128124 275.95834 34.628124 276.66147Q35.128124 277.3646 35.846874 277.3646Q36.58125 277.3646 37.065624 276.66147Q37.565624 275.95834 37.565624 273.84897Q37.565624 271.72397 37.065624 271.03647Q36.58125 270.33334 35.83125 270.33334Q35.1125 270.33334 34.675 270.94272Q34.128124 271.72397 34.128124 273.84897Z" fill-rule="nonzero"/><path fill="#2e2e2e" d="M26.05 222.79167L27.159374 222.69792Q27.284374 223.51042 27.721874 223.91667Q28.175 224.32292 28.815624 224.32292Q29.565624 224.32292 30.096874 223.7448Q30.628124 223.16667 30.628124 222.22917Q30.628124 221.32292 30.1125 220.8073Q29.6125 220.27605 28.784374 220.27605Q28.284374 220.27605 27.8625 220.51042Q27.45625 220.7448 27.221874 221.10417L26.2375 220.97917L27.065624 216.57292L31.346874 216.57292L31.346874 217.57292L27.909374 217.57292L27.45625 219.88542Q28.221874 219.33855 29.065624 219.33855Q30.190624 219.33855 30.95625 220.1198Q31.7375 220.90105 31.7375 222.13542Q31.7375 223.29167 31.065624 224.15105Q30.2375 225.1823 28.815624 225.1823Q27.64375 225.1823 26.89375 224.52605Q26.159374 223.8698 26.05 222.79167ZM33.05 220.8073Q33.05 219.27605 33.3625 218.35417Q33.675 217.41667 34.284374 216.91667Q34.909374 216.41667 35.846874 216.41667Q36.534374 216.41667 37.05 216.69792Q37.58125 216.97917 37.925 217.51042Q38.26875 218.02605 38.45625 218.77605Q38.64375 219.52605 38.64375 220.8073Q38.64375 222.32292 38.33125 223.2448Q38.034374 224.16667 37.409374 224.6823Q36.8 225.1823 35.846874 225.1823Q34.6125 225.1823 33.89375 224.29167Q33.05 223.22917 33.05 220.8073ZM34.128124 220.8073Q34.128124 222.91667 34.628124 223.6198Q35.128124 224.32292 35.846874 224.32292Q36.58125 224.32292 37.065624 223.6198Q37.565624 222.91667 37.565624 220.8073Q37.565624 218.6823 37.065624 217.9948Q36.58125 217.29167 35.83125 217.29167Q35.1125 217.29167 34.675 217.90105Q34.128124 218.6823 34.128124 220.8073Z" fill-rule="nonzero"/><path fill="#2e2e2e" d="M23.01875 172.0L21.971874 172.0L21.971874 165.28125Q21.58125 165.64062 20.95625 166.01562Q20.346874 166.375 19.8625 166.54688L19.8625 165.53125Q20.7375 165.10938 21.39375 164.53125Q22.065624 163.9375 22.346874 163.375L23.01875 163.375L23.01875 172.0ZM26.05 167.76562Q26.05 166.23438 26.3625 165.3125Q26.675 164.375 27.284374 163.875Q27.909374 163.375 28.846874 163.375Q29.534374 163.375 30.05 163.65625Q30.58125 163.9375 30.925 164.46875Q31.26875 164.98438 31.45625 165.73438Q31.64375 166.48438 31.64375 167.76562Q31.64375 169.28125 31.33125 170.20312Q31.034374 171.125 30.409374 171.64062Q29.8 172.14062 28.846874 172.14062Q27.6125 172.14062 26.89375 171.25Q26.05 170.1875 26.05 167.76562ZM27.128124 167.76562Q27.128124 169.875 27.628124 170.57812Q28.128124 171.28125 28.846874 171.28125Q29.58125 171.28125 30.065624 170.57812Q30.565624 169.875 30.565624 167.76562Q30.565624 165.64062 30.065624 164.95312Q29.58125 164.25 28.83125 164.25Q28.1125 164.25 27.675 164.85938Q27.128124 165.64062 27.128124 167.76562ZM33.05 167.76562Q33.05 166.23438 33.3625 165.3125Q33.675 164.375 34.284374 163.875Q34.909374 163.375 35.846874 163.375Q36.534374 163.375 37.05 163.65625Q37.58125 163.9375 37.925 164.46875Q38.26875 164.98438 38.45625 165.73438Q38.64375 166.48438 38.64375 167.76562Q38.64375 169.28125 38.33125 170.20312Q38.034374 171.125 37.409374 171.64062Q36.8 172.14062 35.846874 172.14062Q34.6125 172.14062 33.89375 171.25Q33.05 170.1875 33.05 167.76562ZM34.128124 167.76562Q34.128124 169.875 34.628124 170.57812Q35.128124 171.28125 35.846874 171.28125Q36.58125 171.28125 37.065624 170.57812Q37.565624 169.875 37.565624 167.76562Q37.565624 165.64062 37.065624 164.95312Q36.58125 164.25 35.83125 164.25Q35.1125 164.25 34.675 164.85938Q34.128124 165.64062 34.128124 167.76562Z" fill-rule="nonzero"/><path fill="#2e2e2e" d="M23.01875 118.958336L21.971874 118.958336L21.971874 112.239586Q21.58125 112.59896 20.95625 112.97396Q20.346874 113.333336 19.8625 113.50521L19.8625 112.489586Q20.7375 112.06771 21.39375 111.489586Q22.065624 110.895836 22.346874 110.333336L23.01875 110.333336L23.01875 118.958336ZM26.05 116.708336L27.159374 116.614586Q27.284374 117.427086 27.721874 117.833336Q28.175 118.239586 28.815624 118.239586Q29.565624 118.239586 30.096874 117.66146Q30.628124 117.083336 30.628124 116.145836Q30.628124 115.239586 30.1125 114.72396Q29.6125 114.19271 28.784374 114.19271Q28.284374 114.19271 27.8625 114.427086Q27.45625 114.66146 27.221874 115.020836L26.2375 114.895836L27.065624 110.489586L31.346874 110.489586L31.346874 111.489586L27.909374 111.489586L27.45625 113.802086Q28.221874 113.25521 29.065624 113.25521Q30.190624 113.25521 30.95625 114.03646Q31.7375 114.81771 31.7375 116.052086Q31.7375 117.208336 31.065624 118.06771Q30.2375 119.09896 28.815624 119.09896Q27.64375 119.09896 26.89375 118.44271Q26.159374 117.78646 26.05 116.708336ZM33.05 114.72396Q33.05 113.19271 33.3625 112.270836Q33.675 111.333336 34.284374 110.833336Q34.909374 110.333336 35.846874 110.333336Q36.534374 110.333336 37.05 110.614586Q37.58125 110.895836 37.925 111.427086Q38.26875 111.94271 38.45625 112.69271Q38.64375 113.44271 38.64375 114.72396Q38.64375 116.239586 38.33125 117.16146Q38.034374 118.083336 37.409374 118.59896Q36.8 119.09896 35.846874 119.09896Q34.6125 119.09896 33.89375 118.208336Q33.05 117.145836 33.05 114.72396ZM34.128124 114.72396Q34.128124 116.833336 34.628124 117.53646Q35.128124 118.239586 35.846874 118.239586Q36.58125 118.239586 37.065624 117.53646Q37.565624 116.833336 37.565624 114.72396Q37.565624 112.59896 37.065624 111.91146Q36.58125 111.208336 35.83125 111.208336Q35.1125 111.208336 34.675 111.81771Q34.128124 112.59896 34.128124 114.72396Z" fill-rule="nonzero"/><path fill="#2e2e2e" d="M24.596874 64.90104L24.596874 65.916664L18.909374 65.916664Q18.909374 65.541664 19.034374 65.18229Q19.253124 64.604164 19.721874 64.041664Q20.20625 63.479164 21.1125 62.74479Q22.51875 61.58854 23.003124 60.916664Q23.503124 60.24479 23.503124 59.65104Q23.503124 59.02604 23.05 58.604164Q22.596874 58.166664 21.878124 58.166664Q21.1125 58.166664 20.659374 58.61979Q20.20625 59.072914 20.190624 59.885414L19.1125 59.77604Q19.221874 58.55729 19.940624 57.93229Q20.675 57.291664 21.909374 57.291664Q23.14375 57.291664 23.8625 57.979164Q24.58125 58.666664 24.58125 59.68229Q24.58125 60.197914 24.3625 60.697914Q24.159374 61.18229 23.659374 61.74479Q23.175 62.291664 22.05 63.24479Q21.096874 64.041664 20.815624 64.33854Q20.55 64.61979 20.378124 64.90104L24.596874 64.90104ZM26.05 61.68229Q26.05 60.15104 26.3625 59.229164Q26.675 58.291664 27.284374 57.791664Q27.909374 57.291664 28.846874 57.291664Q29.534374 57.291664 30.05 57.572914Q30.58125 57.854164 30.925 58.385414Q31.26875 58.90104 31.45625 59.65104Q31.64375 60.40104 31.64375 61.68229Q31.64375 63.197914 31.33125 64.11979Q31.034374 65.041664 30.409374 65.55729Q29.8 66.05729 28.846874 66.05729Q27.6125 66.05729 26.89375 65.166664Q26.05 64.104164 26.05 61.68229ZM27.128124 61.68229Q27.128124 63.791664 27.628124 64.49479Q28.128124 65.197914 28.846874 65.197914Q29.58125 65.197914 30.065624 64.49479Q30.565624 63.791664 30.565624 61.68229Q30.565624 59.55729 30.065624 58.86979Q29.58125 58.166664 28.83125 58.166664Q28.1125 58.166664 27.675 58.77604Q27.128124 59.55729 27.128124 61.68229ZM33.05 61.68229Q33.05 60.15104 33.3625 59.229164Q33.675 58.291664 34.284374 57.791664Q34.909374 57.291664 35.846874 57.291664Q36.534374 57.291664 37.05 57.572914Q37.58125 57.854164 37.925 58.385414Q38.26875 58.90104 38.45625 59.65104Q38.64375 60.40104 38.64375 61.68229Q38.64375 63.197914 38.33125 64.11979Q38.034374 65.041664 37.409374 65.55729Q36.8 66.05729 35.846874 66.05729Q34.6125 66.05729 33.89375 65.166664Q33.05 64.104164 33.05 61.68229ZM34.128124 61.68229Q34.128124 63.791664 34.628124 64.49479Q35.128124 65.197914 35.846874 65.197914Q36.58125 65.197914 37.065624 64.49479Q37.565624 63.791664 37.565624 61.68229Q37.565624 59.55729 37.065624 58.86979Q36.58125 58.166664 35.83125 58.166664Q35.1125 58.166664 34.675 58.77604Q34.128124 59.55729 34.128124 61.68229Z" fill-rule="nonzero"/><path fill="#2e2e2e" d="M99.08543 291.08334L99.08543 282.4896L100.24168 282.4896L104.7573 289.2396L104.7573 282.4896L105.85105 282.4896L105.85105 291.08334L104.67918 291.08334L100.16355 284.33334L100.16355 291.08334L99.08543 291.08334ZM107.5698 287.97397Q107.5698 286.2396 108.52293 285.41147Q109.3198 284.72397 110.47605 284.72397Q111.7573 284.72397 112.5698 285.56772Q113.39793 286.39584 113.39793 287.88022Q113.39793 289.08334 113.03855 289.77084Q112.67918 290.45834 111.97605 290.84897Q111.28855 291.22397 110.47605 291.22397Q109.17918 291.22397 108.36668 290.39584Q107.5698 289.5521 107.5698 287.97397ZM108.64793 287.97397Q108.64793 289.16147 109.16355 289.75522Q109.6948 290.34897 110.47605 290.34897Q111.27293 290.34897 111.78855 289.75522Q112.30418 289.16147 112.30418 287.94272Q112.30418 286.78647 111.77293 286.19272Q111.2573 285.59897 110.47605 285.59897Q109.6948 285.59897 109.16355 286.19272Q108.64793 286.77084 108.64793 287.97397ZM114.9448 291.08334L114.9448 284.8646L115.89793 284.8646L115.89793 285.8021Q116.2573 285.14584 116.55418 284.94272Q116.86668 284.72397 117.24168 284.72397Q117.77293 284.72397 118.3198 285.0521L117.96043 286.03647Q117.5698 285.8021 117.1948 285.8021Q116.83543 285.8021 116.55418 286.02084Q116.28855 286.22397 116.17918 286.59897Q115.99168 287.16147 115.99168 287.81772L115.99168 291.08334L114.9448 291.08334ZM121.2573 290.14584L121.41355 291.06772Q120.96043 291.16147 120.61668 291.16147Q120.03855 291.16147 119.72605 290.9896Q119.41355 290.8021 119.27293 290.50522Q119.14793 290.20834 119.14793 289.25522L119.14793 285.6771L118.3823 285.6771L118.3823 284.8646L119.14793 284.8646L119.14793 283.31772L120.1948 282.69272L120.1948 284.8646L121.2573 284.8646L121.2573 285.6771L120.1948 285.6771L120.1948 289.31772Q120.1948 289.77084 120.24168 289.89584Q120.30418 290.02084 120.42918 290.09897Q120.55418 290.1771 120.78855 290.1771Q120.97605 290.1771 121.2573 290.14584ZM126.21043 289.08334L127.30418 289.20834Q127.05418 290.16147 126.35105 290.69272Q125.64793 291.22397 124.5698 291.22397Q123.21043 291.22397 122.39793 290.38022Q121.60105 289.53647 121.60105 288.02084Q121.60105 286.45834 122.41355 285.59897Q123.22605 284.72397 124.5073 284.72397Q125.7573 284.72397 126.53855 285.56772Q127.33543 286.41147 127.33543 287.95834Q127.33543 288.0521 127.33543 288.2396L122.6948 288.2396Q122.7573 289.27084 123.27293 289.81772Q123.78855 290.34897 124.5698 290.34897Q125.14793 290.34897 125.55418 290.0521Q125.97605 289.7396 126.21043 289.08334ZM122.7573 287.38022L126.22605 287.38022Q126.16355 286.58334 125.83543 286.19272Q125.3198 285.58334 124.52293 285.58334Q123.78855 285.58334 123.28855 286.06772Q122.80418 286.5521 122.7573 287.38022Z" fill-rule="nonzero"/><path fill="#2e2e2e" d="M188.75365 291.08334L188.75365 282.4896L189.9099 282.4896L194.42552 289.2396L194.42552 282.4896L195.51927 282.4896L195.51927 291.08334L194.3474 291.08334L189.83177 284.33334L189.83177 291.08334L188.75365 291.08334ZM197.23802 287.97397Q197.23802 286.2396 198.19115 285.41147Q198.98802 284.72397 200.14427 284.72397Q201.42552 284.72397 202.23802 285.56772Q203.06615 286.39584 203.06615 287.88022Q203.06615 289.08334 202.70677 289.77084Q202.3474 290.45834 201.64427 290.84897Q200.95677 291.22397 200.14427 291.22397Q198.8474 291.22397 198.0349 290.39584Q197.23802 289.5521 197.23802 287.97397ZM198.31615 287.97397Q198.31615 289.16147 198.83177 289.75522Q199.36302 290.34897 200.14427 290.34897Q200.94115 290.34897 201.45677 289.75522Q201.9724 289.16147 201.9724 287.94272Q201.9724 286.78647 201.44115 286.19272Q200.92552 285.59897 200.14427 285.59897Q199.36302 285.59897 198.83177 286.19272Q198.31615 286.77084 198.31615 287.97397ZM204.61302 291.08334L204.61302 284.8646L205.56615 284.8646L205.56615 285.8021Q205.92552 285.14584 206.2224 284.94272Q206.5349 284.72397 206.9099 284.72397Q207.44115 284.72397 207.98802 285.0521L207.62865 286.03647Q207.23802 285.8021 206.86302 285.8021Q206.50365 285.8021 206.2224 286.02084Q205.95677 286.22397 205.8474 286.59897Q205.6599 287.16147 205.6599 287.81772L205.6599 291.08334L204.61302 291.08334ZM212.6599 291.08334L212.6599 290.3021Q212.06615 291.22397 210.92552 291.22397Q210.17552 291.22397 209.55052 290.81772Q208.92552 290.39584 208.58177 289.66147Q208.23802 288.9271 208.23802 287.97397Q208.23802 287.0521 208.55052 286.28647Q208.86302 285.52084 209.48802 285.13022Q210.11302 284.72397 210.87865 284.72397Q211.44115 284.72397 211.87865 284.95834Q212.31615 285.19272 212.5974 285.56772L212.5974 282.4896L213.64427 282.4896L213.64427 291.08334L212.6599 291.08334ZM209.33177 287.97397Q209.33177 289.1771 209.83177 289.77084Q210.33177 290.34897 211.01927 290.34897Q211.70677 290.34897 212.19115 289.78647Q212.67552 289.22397 212.67552 288.06772Q212.67552 286.78647 212.17552 286.19272Q211.69115 285.59897 210.9724 285.59897Q210.26927 285.59897 209.80052 286.1771Q209.33177 286.7396 209.33177 287.97397ZM219.87865 289.08334L220.9724 289.20834Q220.7224 290.16147 220.01927 290.69272Q219.31615 291.22397 218.23802 291.22397Q216.87865 291.22397 216.06615 290.38022Q215.26927 289.53647 215.26927 288.02084Q215.26927 286.45834 216.08177 285.59897Q216.89427 284.72397 218.17552 284.72397Q219.42552 284.72397 220.20677 285.56772Q221.00365 286.41147 221.00365 287.95834Q221.00365 288.0521 221.00365 288.2396L216.36302 288.2396Q216.42552 289.27084 216.94115 289.81772Q217.45677 290.34897 218.23802 290.34897Q218.81615 290.34897 219.2224 290.0521Q219.64427 289.7396 219.87865 289.08334ZM216.42552 287.38022L219.89427 287.38022Q219.83177 286.58334 219.50365 286.19272Q218.98802 285.58334 218.19115 285.58334Q217.45677 285.58334 216.95677 286.06772Q216.4724 286.5521 216.42552 287.38022ZM222.20677 289.22397L223.23802 289.06772Q223.33177 289.69272 223.7224 290.02084Q224.12865 290.34897 224.86302 290.34897Q225.58177 290.34897 225.92552 290.06772Q226.2849 289.77084 226.2849 289.3646Q226.2849 289.00522 225.9724 288.8021Q225.75365 288.66147 224.89427 288.44272Q223.73802 288.14584 223.2849 287.94272Q222.8474 287.72397 222.61302 287.34897Q222.37865 286.97397 222.37865 286.50522Q222.37865 286.09897 222.56615 285.7396Q222.75365 285.38022 223.08177 285.14584Q223.33177 284.97397 223.75365 284.84897Q224.17552 284.72397 224.67552 284.72397Q225.39427 284.72397 225.94115 284.94272Q226.50365 285.14584 226.76927 285.50522Q227.0349 285.8646 227.12865 286.45834L226.0974 286.59897Q226.0349 286.13022 225.69115 285.8646Q225.36302 285.58334 224.73802 285.58334Q224.01927 285.58334 223.70677 285.83334Q223.39427 286.06772 223.39427 286.39584Q223.39427 286.59897 223.51927 286.75522Q223.6599 286.9271 223.92552 287.03647Q224.08177 287.09897 224.86302 287.3021Q225.98802 287.6146 226.42552 287.8021Q226.86302 287.9896 227.11302 288.34897Q227.36302 288.70834 227.36302 289.25522Q227.36302 289.78647 227.05052 290.25522Q226.75365 290.70834 226.17552 290.97397Q225.5974 291.22397 224.86302 291.22397Q223.64427 291.22397 223.00365 290.72397Q222.37865 290.20834 222.20677 289.22397ZM231.92552 290.14584L232.08177 291.06772Q231.62865 291.16147 231.2849 291.16147Q230.70677 291.16147 230.39427 290.9896Q230.08177 290.8021 229.94115 290.50522Q229.81615 290.20834 229.81615 289.25522L229.81615 285.6771L229.05052 285.6771L229.05052 284.8646L229.81615 284.8646L229.81615 283.31772L230.86302 282.69272L230.86302 284.8646L231.92552 284.8646L231.92552 285.6771L230.86302 285.6771L230.86302 289.31772Q230.86302 289.77084 230.9099 289.89584Q230.9724 290.02084 231.0974 290.09897Q231.2224 290.1771 231.45677 290.1771Q231.64427 290.1771 231.92552 290.14584ZM236.87865 289.08334L237.9724 289.20834Q237.7224 290.16147 237.01927 290.69272Q236.31615 291.22397 235.23802 291.22397Q233.87865 291.22397 233.06615 290.38022Q232.26927 289.53647 232.26927 288.02084Q232.26927 286.45834 233.08177 285.59897Q233.89427 284.72397 235.17552 284.72397Q236.42552 284.72397 237.20677 285.56772Q238.00365 286.41147 238.00365 287.95834Q238.00365 288.0521 238.00365 288.2396L233.36302 288.2396Q233.42552 289.27084 233.94115 289.81772Q234.45677 290.34897 235.23802 290.34897Q235.81615 290.34897 236.2224 290.0521Q236.64427 289.7396 236.87865 289.08334ZM233.42552 287.38022L236.89427 287.38022Q236.83177 286.58334 236.50365 286.19272Q235.98802 285.58334 235.19115 285.58334Q234.45677 285.58334 233.95677 286.06772Q233.4724 286.5521 233.42552 287.38022Z" fill-rule="nonzero"/><path fill="#2e2e2e" d="M283.5625 288.06772L284.6875 288.3646Q284.32812 289.75522 283.40625 290.4896Q282.48438 291.22397 281.14062 291.22397Q279.75 291.22397 278.875 290.66147Q278.0 290.09897 277.54688 289.03647Q277.09375 287.95834 277.09375 286.72397Q277.09375 285.38022 277.60938 284.38022Q278.125 283.38022 279.0625 282.8646Q280.01562 282.34897 281.15625 282.34897Q282.4375 282.34897 283.3125 283.00522Q284.20312 283.66147 284.54688 284.84897L283.42188 285.1146Q283.125 284.1771 282.54688 283.75522Q281.98438 283.31772 281.125 283.31772Q280.14062 283.31772 279.46875 283.8021Q278.8125 284.27084 278.53125 285.06772Q278.26562 285.8646 278.26562 286.72397Q278.26562 287.81772 278.57812 288.63022Q278.90625 289.44272 279.57812 289.84897Q280.25 290.25522 281.04688 290.25522Q282.0 290.25522 282.65625 289.70834Q283.32812 289.16147 283.5625 288.06772ZM290.54688 289.08334L291.64062 289.20834Q291.39062 290.16147 290.6875 290.69272Q289.98438 291.22397 288.90625 291.22397Q287.54688 291.22397 286.73438 290.38022Q285.9375 289.53647 285.9375 288.02084Q285.9375 286.45834 286.75 285.59897Q287.5625 284.72397 288.84375 284.72397Q290.09375 284.72397 290.875 285.56772Q291.67188 286.41147 291.67188 287.95834Q291.67188 288.0521 291.67188 288.2396L287.03125 288.2396Q287.09375 289.27084 287.60938 289.81772Q288.125 290.34897 288.90625 290.34897Q289.48438 290.34897 289.89062 290.0521Q290.3125 289.7396 290.54688 289.08334ZM287.09375 287.38022L290.5625 287.38022Q290.5 286.58334 290.17188 286.19272Q289.65625 285.58334 288.85938 285.58334Q288.125 285.58334 287.625 286.06772Q287.14062 286.5521 287.09375 287.38022ZM293.29688 291.08334L293.29688 284.8646L294.23438 284.8646L294.23438 285.7396Q294.92188 284.72397 296.21875 284.72397Q296.78125 284.72397 297.25 284.9271Q297.73438 285.13022 297.96875 285.45834Q298.20312 285.78647 298.29688 286.22397Q298.34375 286.52084 298.34375 287.25522L298.34375 291.08334L297.29688 291.08334L297.29688 287.3021Q297.29688 286.64584 297.17188 286.33334Q297.04688 286.02084 296.73438 285.83334Q296.42188 285.63022 296.0 285.63022Q295.32812 285.63022 294.82812 286.06772Q294.34375 286.4896 294.34375 287.6771L294.34375 291.08334L293.29688 291.08334ZM302.59375 290.14584L302.75 291.06772Q302.29688 291.16147 301.95312 291.16147Q301.375 291.16147 301.0625 290.9896Q300.75 290.8021 300.60938 290.50522Q300.48438 290.20834 300.48438 289.25522L300.48438 285.6771L299.71875 285.6771L299.71875 284.8646L300.48438 284.8646L300.48438 283.31772L301.53125 282.69272L301.53125 284.8646L302.59375 284.8646L302.59375 285.6771L301.53125 285.6771L301.53125 289.31772Q301.53125 289.77084 301.57812 289.89584Q301.64062 290.02084 301.76562 290.09897Q301.89062 290.1771 302.125 290.1771Q302.3125 290.1771 302.59375 290.14584ZM303.28125 291.08334L303.28125 284.8646L304.23438 284.8646L304.23438 285.8021Q304.59375 285.14584 304.89062 284.94272Q305.20312 284.72397 305.57812 284.72397Q306.10938 284.72397 306.65625 285.0521L306.29688 286.03647Q305.90625 285.8021 305.53125 285.8021Q305.17188 285.8021 304.89062 286.02084Q304.625 286.22397 304.51562 286.59897Q304.32812 287.16147 304.32812 287.81772L304.32812 291.08334L303.28125 291.08334ZM306.90625 287.97397Q306.90625 286.2396 307.85938 285.41147Q308.65625 284.72397 309.8125 284.72397Q311.09375 284.72397 311.90625 285.56772Q312.73438 286.39584 312.73438 287.88022Q312.73438 289.08334 312.375 289.77084Q312.01562 290.45834 311.3125 290.84897Q310.625 291.22397 309.8125 291.22397Q308.51562 291.22397 307.70312 290.39584Q306.90625 289.5521 306.90625 287.97397ZM307.98438 287.97397Q307.98438 289.16147 308.5 289.75522Q309.03125 290.34897 309.8125 290.34897Q310.60938 290.34897 311.125 289.75522Q311.64062 289.16147 311.64062 287.94272Q311.64062 286.78647 311.10938 286.19272Q310.59375 285.59897 309.8125 285.59897Q309.03125 285.59897 308.5 286.19272Q307.98438 286.77084 307.98438 287.97397ZM313.875 288.50522L313.875 287.44272L317.125 287.44272L317.125 288.50522L313.875 288.50522ZM318.07812 286.89584Q318.07812 284.75522 319.21875 283.5521Q320.375 282.33334 322.1875 282.33334Q323.39062 282.33334 324.34375 282.91147Q325.29688 283.47397 325.79688 284.4896Q326.29688 285.50522 326.29688 286.8021Q326.29688 288.09897 325.76562 289.13022Q325.23438 290.16147 324.26562 290.69272Q323.3125 291.22397 322.1875 291.22397Q320.96875 291.22397 320.01562 290.64584Q319.0625 290.0521 318.5625 289.0521Q318.07812 288.03647 318.07812 286.89584ZM319.25 286.91147Q319.25 288.47397 320.07812 289.3646Q320.92188 290.25522 322.1875 290.25522Q323.46875 290.25522 324.29688 289.3646Q325.125 288.45834 325.125 286.78647Q325.125 285.7396 324.76562 284.95834Q324.42188 284.1771 323.73438 283.75522Q323.04688 283.31772 322.20312 283.31772Q321.0 283.31772 320.125 284.14584Q319.25 284.97397 319.25 286.91147ZM331.54688 289.08334L332.64062 289.20834Q332.39062 290.16147 331.6875 290.69272Q330.98438 291.22397 329.90625 291.22397Q328.54688 291.22397 327.73438 290.38022Q326.9375 289.53647 326.9375 288.02084Q326.9375 286.45834 327.75 285.59897Q328.5625 284.72397 329.84375 284.72397Q331.09375 284.72397 331.875 285.56772Q332.67188 286.41147 332.67188 287.95834Q332.67188 288.0521 332.67188 288.2396L328.03125 288.2396Q328.09375 289.27084 328.60938 289.81772Q329.125 290.34897 329.90625 290.34897Q330.48438 290.34897 330.89062 290.0521Q331.3125 289.7396 331.54688 289.08334ZM328.09375 287.38022L331.5625 287.38022Q331.5 286.58334 331.17188 286.19272Q330.65625 285.58334 329.85938 285.58334Q329.125 285.58334 328.625 286.06772Q328.14062 286.5521 328.09375 287.38022ZM333.875 289.22397L334.90625 289.06772Q335.0 289.69272 335.39062 290.02084Q335.79688 290.34897 336.53125 290.34897Q337.25 290.34897 337.59375 290.06772Q337.95312 289.77084 337.95312 289.3646Q337.95312 289.00522 337.64062 288.8021Q337.42188 288.66147 336.5625 288.44272Q335.40625 288.14584 334.95312 287.94272Q334.51562 287.72397 334.28125 287.34897Q334.04688 286.97397 334.04688 286.50522Q334.04688 286.09897 334.23438 285.7396Q334.42188 285.38022 334.75 285.14584Q335.0 284.97397 335.42188 284.84897Q335.84375 284.72397 336.34375 284.72397Q337.0625 284.72397 337.60938 284.94272Q338.17188 285.14584 338.4375 285.50522Q338.70312 285.8646 338.79688 286.45834L337.76562 286.59897Q337.70312 286.13022 337.35938 285.8646Q337.03125 285.58334 336.40625 285.58334Q335.6875 285.58334 335.375 285.83334Q335.0625 286.06772 335.0625 286.39584Q335.0625 286.59897 335.1875 286.75522Q335.32812 286.9271 335.59375 287.03647Q335.75 287.09897 336.53125 287.3021Q337.65625 287.6146 338.09375 287.8021Q338.53125 287.9896 338.78125 288.34897Q339.03125 288.70834 339.03125 289.25522Q339.03125 289.78647 338.71875 290.25522Q338.42188 290.70834 337.84375 290.97397Q337.26562 291.22397 336.53125 291.22397Q335.3125 291.22397 334.67188 290.72397Q334.04688 290.20834 333.875 289.22397ZM343.59375 290.14584L343.75 291.06772Q343.29688 291.16147 342.95312 291.16147Q342.375 291.16147 342.0625 290.9896Q341.75 290.8021 341.60938 290.50522Q341.48438 290.20834 341.48438 289.25522L341.48438 285.6771L340.71875 285.6771L340.71875 284.8646L341.48438 284.8646L341.48438 283.31772L342.53125 282.69272L342.53125 284.8646L343.59375 284.8646L343.59375 285.6771L342.53125 285.6771L342.53125 289.31772Q342.53125 289.77084 342.57812 289.89584Q342.64062 290.02084 342.76562 290.09897Q342.89062 290.1771 343.125 290.1771Q343.3125 290.1771 343.59375 290.14584ZM348.54688 289.08334L349.64062 289.20834Q349.39062 290.16147 348.6875 290.69272Q347.98438 291.22397 346.90625 291.22397Q345.54688 291.22397 344.73438 290.38022Q343.9375 289.53647 343.9375 288.02084Q343.9375 286.45834 344.75 285.59897Q345.5625 284.72397 346.84375 284.72397Q348.09375 284.72397 348.875 285.56772Q349.67188 286.41147 349.67188 287.95834Q349.67188 288.0521 349.67188 288.2396L345.03125 288.2396Q345.09375 289.27084 345.60938 289.81772Q346.125 290.34897 346.90625 290.34897Q347.48438 290.34897 347.89062 290.0521Q348.3125 289.7396 348.54688 289.08334ZM345.09375 287.38022L348.5625 287.38022Q348.5 286.58334 348.17188 286.19272Q347.65625 285.58334 346.85938 285.58334Q346.125 285.58334 345.625 286.06772Q345.14062 286.5521 345.09375 287.38022Z" fill-rule="nonzero"/><path fill="#2e2e2e" d="M391.2151 288.31772L392.2776 288.22397Q392.3557 288.88022 392.63696 289.28647Q392.9182 289.69272 393.49634 289.95834Q394.0901 290.20834 394.82446 290.20834Q395.4651 290.20834 395.9651 290.02084Q396.4651 289.81772 396.69946 289.4896Q396.94946 289.14584 396.94946 288.75522Q396.94946 288.34897 396.7151 288.0521Q396.4807 287.7396 395.94946 287.53647Q395.5901 287.39584 394.4026 287.1146Q393.2307 286.83334 392.76196 286.58334Q392.13696 286.25522 391.8401 285.78647Q391.5432 285.3021 391.5432 284.70834Q391.5432 284.06772 391.9026 283.50522Q392.2776 282.9271 392.9807 282.64584Q393.69946 282.34897 394.55884 282.34897Q395.51196 282.34897 396.24634 282.66147Q396.9807 282.95834 397.37134 283.56772Q397.76196 284.16147 397.7932 284.91147L396.69946 284.9896Q396.6057 284.1771 396.0901 283.77084Q395.5901 283.34897 394.6057 283.34897Q393.57446 283.34897 393.1057 283.72397Q392.63696 284.09897 392.63696 284.63022Q392.63696 285.09897 392.9651 285.39584Q393.2932 285.69272 394.6682 286.00522Q396.05884 286.31772 396.57446 286.5521Q397.32446 286.91147 397.68384 287.44272Q398.0432 287.95834 398.0432 288.66147Q398.0432 289.34897 397.6526 289.95834Q397.26196 290.5521 396.5276 290.89584Q395.7932 291.22397 394.87134 291.22397Q393.69946 291.22397 392.9026 290.89584Q392.12134 290.5521 391.6682 289.8646Q391.2307 289.1771 391.2151 288.31772ZM403.5432 291.08334L403.5432 290.16147Q402.80884 291.22397 401.55884 291.22397Q401.01196 291.22397 400.5276 291.02084Q400.05884 290.8021 399.82446 290.4896Q399.5901 290.16147 399.49634 289.69272Q399.43384 289.39584 399.43384 288.70834L399.43384 284.8646L400.49634 284.8646L400.49634 288.31772Q400.49634 289.13022 400.55884 289.4271Q400.6526 289.83334 400.9651 290.08334Q401.2932 290.31772 401.7776 290.31772Q402.24634 290.31772 402.6526 290.08334Q403.07446 289.83334 403.24634 289.41147Q403.43384 288.9896 403.43384 288.19272L403.43384 284.8646L404.4807 284.8646L404.4807 291.08334L403.5432 291.08334ZM410.49634 291.08334L410.49634 290.3021Q409.9026 291.22397 408.76196 291.22397Q408.01196 291.22397 407.38696 290.81772Q406.76196 290.39584 406.4182 289.66147Q406.07446 288.9271 406.07446 287.97397Q406.07446 287.0521 406.38696 286.28647Q406.69946 285.52084 407.32446 285.13022Q407.94946 284.72397 408.7151 284.72397Q409.2776 284.72397 409.7151 284.95834Q410.1526 285.19272 410.43384 285.56772L410.43384 282.4896L411.4807 282.4896L411.4807 291.08334L410.49634 291.08334ZM407.1682 287.97397Q407.1682 289.1771 407.6682 289.77084Q408.1682 290.34897 408.8557 290.34897Q409.5432 290.34897 410.0276 289.78647Q410.51196 289.22397 410.51196 288.06772Q410.51196 286.78647 410.01196 286.19272Q409.5276 285.59897 408.80884 285.59897Q408.1057 285.59897 407.63696 286.1771Q407.1682 286.7396 407.1682 287.97397ZM417.7151 289.08334L418.80884 289.20834Q418.55884 290.16147 417.8557 290.69272Q417.1526 291.22397 416.07446 291.22397Q414.7151 291.22397 413.9026 290.38022Q413.1057 289.53647 413.1057 288.02084Q413.1057 286.45834 413.9182 285.59897Q414.7307 284.72397 416.01196 284.72397Q417.26196 284.72397 418.0432 285.56772Q418.8401 286.41147 418.8401 287.95834Q418.8401 288.0521 418.8401 288.2396L414.19946 288.2396Q414.26196 289.27084 414.7776 289.81772Q415.2932 290.34897 416.07446 290.34897Q416.6526 290.34897 417.05884 290.0521Q417.4807 289.7396 417.7151 289.08334ZM414.26196 287.38022L417.7307 287.38022Q417.6682 286.58334 417.3401 286.19272Q416.82446 285.58334 416.0276 285.58334Q415.2932 285.58334 414.7932 286.06772Q414.30884 286.5521 414.26196 287.38022ZM420.0432 289.22397L421.07446 289.06772Q421.1682 289.69272 421.55884 290.02084Q421.9651 290.34897 422.69946 290.34897Q423.4182 290.34897 423.76196 290.06772Q424.12134 289.77084 424.12134 289.3646Q424.12134 289.00522 423.80884 288.8021Q423.5901 288.66147 422.7307 288.44272Q421.57446 288.14584 421.12134 287.94272Q420.68384 287.72397 420.44946 287.34897Q420.2151 286.97397 420.2151 286.50522Q420.2151 286.09897 420.4026 285.7396Q420.5901 285.38022 420.9182 285.14584Q421.1682 284.97397 421.5901 284.84897Q422.01196 284.72397 422.51196 284.72397Q423.2307 284.72397 423.7776 284.94272Q424.3401 285.14584 424.6057 285.50522Q424.87134 285.8646 424.9651 286.45834L423.93384 286.59897Q423.87134 286.13022 423.5276 285.8646Q423.19946 285.58334 422.57446 285.58334Q421.8557 285.58334 421.5432 285.83334Q421.2307 286.06772 421.2307 286.39584Q421.2307 286.59897 421.3557 286.75522Q421.49634 286.9271 421.76196 287.03647Q421.9182 287.09897 422.69946 287.3021Q423.82446 287.6146 424.26196 287.8021Q424.69946 287.9896 424.94946 288.34897Q425.19946 288.70834 425.19946 289.25522Q425.19946 289.78647 424.88696 290.25522Q424.5901 290.70834 424.01196 290.97397Q423.43384 291.22397 422.69946 291.22397Q421.4807 291.22397 420.8401 290.72397Q420.2151 290.20834 420.0432 289.22397ZM429.76196 290.14584L429.9182 291.06772Q429.4651 291.16147 429.12134 291.16147Q428.5432 291.16147 428.2307 290.9896Q427.9182 290.8021 427.7776 290.50522Q427.6526 290.20834 427.6526 289.25522L427.6526 285.6771L426.88696 285.6771L426.88696 284.8646L427.6526 284.8646L427.6526 283.31772L428.69946 282.69272L428.69946 284.8646L429.76196 284.8646L429.76196 285.6771L428.69946 285.6771L428.69946 289.31772Q428.69946 289.77084 428.74634 289.89584Q428.80884 290.02084 428.93384 290.09897Q429.05884 290.1771 429.2932 290.1771Q429.4807 290.1771 429.76196 290.14584ZM434.7151 289.08334L435.80884 289.20834Q435.55884 290.16147 434.8557 290.69272Q434.1526 291.22397 433.07446 291.22397Q431.7151 291.22397 430.9026 290.38022Q430.1057 289.53647 430.1057 288.02084Q430.1057 286.45834 430.9182 285.59897Q431.7307 284.72397 433.01196 284.72397Q434.26196 284.72397 435.0432 285.56772Q435.8401 286.41147 435.8401 287.95834Q435.8401 288.0521 435.8401 288.2396L431.19946 288.2396Q431.26196 289.27084 431.7776 289.81772Q432.2932 290.34897 433.07446 290.34897Q433.6526 290.34897 434.05884 290.0521Q434.4807 289.7396 434.7151 289.08334ZM431.26196 287.38022L434.7307 287.38022Q434.6682 286.58334 434.3401 286.19272Q433.82446 285.58334 433.0276 285.58334Q432.2932 285.58334 431.7932 286.06772Q431.30884 286.5521 431.26196 287.38022Z" fill-rule="nonzero"/><path fill="#2e2e2e" d="M505.38333 288.31772L506.44583 288.22397Q506.52396 288.88022 506.8052 289.28647Q507.08646 289.69272 507.66458 289.95834Q508.25833 290.20834 508.9927 290.20834Q509.63333 290.20834 510.13333 290.02084Q510.63333 289.81772 510.8677 289.4896Q511.1177 289.14584 511.1177 288.75522Q511.1177 288.34897 510.88333 288.0521Q510.64896 287.7396 510.1177 287.53647Q509.75833 287.39584 508.57083 287.1146Q507.39896 286.83334 506.9302 286.58334Q506.3052 286.25522 506.00833 285.78647Q505.71146 285.3021 505.71146 284.70834Q505.71146 284.06772 506.07083 283.50522Q506.44583 282.9271 507.14896 282.64584Q507.8677 282.34897 508.72708 282.34897Q509.6802 282.34897 510.41458 282.66147Q511.14896 282.95834 511.53958 283.56772Q511.9302 284.16147 511.96146 284.91147L510.8677 284.9896Q510.77396 284.1771 510.25833 283.77084Q509.75833 283.34897 508.77396 283.34897Q507.7427 283.34897 507.27396 283.72397Q506.8052 284.09897 506.8052 284.63022Q506.8052 285.09897 507.13333 285.39584Q507.46146 285.69272 508.83646 286.00522Q510.22708 286.31772 510.7427 286.5521Q511.4927 286.91147 511.85208 287.44272Q512.2114 287.95834 512.2114 288.66147Q512.2114 289.34897 511.82083 289.95834Q511.4302 290.5521 510.69583 290.89584Q509.96146 291.22397 509.03958 291.22397Q507.8677 291.22397 507.07083 290.89584Q506.28958 290.5521 505.83646 289.8646Q505.39896 289.1771 505.38333 288.31772ZM517.7114 291.08334L517.7114 290.16147Q516.97705 291.22397 515.72705 291.22397Q515.1802 291.22397 514.6958 291.02084Q514.22705 290.8021 513.9927 290.4896Q513.7583 290.16147 513.66455 289.69272Q513.60205 289.39584 513.60205 288.70834L513.60205 284.8646L514.66455 284.8646L514.66455 288.31772Q514.66455 289.13022 514.72705 289.4271Q514.8208 289.83334 515.1333 290.08334Q515.4614 290.31772 515.9458 290.31772Q516.41455 290.31772 516.8208 290.08334Q517.2427 289.83334 517.41455 289.41147Q517.60205 288.9896 517.60205 288.19272L517.60205 284.8646L518.6489 284.8646L518.6489 291.08334L517.7114 291.08334ZM520.60205 291.08334L520.60205 282.4896L521.66455 282.4896L521.66455 291.08334L520.60205 291.08334Z" fill-rule="nonzero"/><path fill="#2e2e2e" d="M240.5 340.45C240.5 339.8977 240.94771 339.45 241.5 339.45L251.5 339.45C252.05229 339.45 252.5 339.8977 252.5 340.45L252.5 350.45C252.5 351.0023 252.05229 351.45 251.5 351.45L241.5 351.45C240.94771 351.45 240.5 351.0023 240.5 350.45Z" fill-rule="nonzero"/><path fill="#434343" d="M261.625 349.45L261.625 340.85626L262.75 340.85626L262.75 349.45L261.625 349.45ZM266.59375 348.5125L266.75 349.4344Q266.29688 349.52814 265.95312 349.52814Q265.375 349.52814 265.0625 349.35626Q264.75 349.16876 264.60938 348.8719Q264.48438 348.575 264.48438 347.6219L264.48438 344.04376L263.71875 344.04376L263.71875 343.23126L264.48438 343.23126L264.48438 341.6844L265.53125 341.0594L265.53125 343.23126L266.59375 343.23126L266.59375 344.04376L265.53125 344.04376L265.53125 347.6844Q265.53125 348.1375 265.57812 348.2625Q265.64062 348.3875 265.76562 348.46564Q265.89062 348.54376 266.125 348.54376Q266.3125 348.54376 266.59375 348.5125ZM271.54688 347.45L272.64062 347.575Q272.39062 348.52814 271.6875 349.0594Q270.98438 349.59064 269.90625 349.59064Q268.54688 349.59064 267.73438 348.7469Q266.9375 347.90314 266.9375 346.3875Q266.9375 344.825 267.75 343.96564Q268.5625 343.09064 269.84375 343.09064Q271.09375 343.09064 271.875 343.9344Q272.67188 344.77814 272.67188 346.325Q272.67188 346.41876 272.67188 346.60626L268.03125 346.60626Q268.09375 347.6375 268.60938 348.1844Q269.125 348.71564 269.90625 348.71564Q270.48438 348.71564 270.89062 348.41876Q271.3125 348.10626 271.54688 347.45ZM268.09375 345.7469L271.5625 345.7469Q271.5 344.95 271.17188 344.5594Q270.65625 343.95 269.85938 343.95Q269.125 343.95 268.625 344.4344Q268.14062 344.91876 268.09375 345.7469ZM274.29688 349.45L274.29688 343.23126L275.23438 343.23126L275.23438 344.10626Q275.92188 343.09064 277.21875 343.09064Q277.78125 343.09064 278.25 343.29376Q278.73438 343.4969 278.96875 343.825Q279.20312 344.15314 279.29688 344.59064Q279.34375 344.8875 279.34375 345.6219L279.34375 349.45L278.29688 349.45L278.29688 345.66876Q278.29688 345.0125 278.17188 344.7Q278.04688 344.3875 277.73438 344.2Q277.42188 343.9969 277.0 343.9969Q276.32812 343.9969 275.82812 344.4344Q275.34375 344.85626 275.34375 346.04376L275.34375 349.45L274.29688 349.45ZM280.875 347.59064L281.90625 347.4344Q282.0 348.0594 282.39062 348.3875Q282.79688 348.71564 283.53125 348.71564Q284.25 348.71564 284.59375 348.4344Q284.95312 348.1375 284.95312 347.73126Q284.95312 347.3719 284.64062 347.16876Q284.42188 347.02814 283.5625 346.8094Q282.40625 346.5125 281.95312 346.3094Q281.51562 346.09064 281.28125 345.71564Q281.04688 345.34064 281.04688 344.8719Q281.04688 344.46564 281.23438 344.10626Q281.42188 343.7469 281.75 343.5125Q282.0 343.34064 282.42188 343.21564Q282.84375 343.09064 283.34375 343.09064Q284.0625 343.09064 284.60938 343.3094Q285.17188 343.5125 285.4375 343.8719Q285.70312 344.23126 285.79688 344.825L284.76562 344.96564Q284.70312 344.4969 284.35938 344.23126Q284.03125 343.95 283.40625 343.95Q282.6875 343.95 282.375 344.2Q282.0625 344.4344 282.0625 344.7625Q282.0625 344.96564 282.1875 345.1219Q282.32812 345.29376 282.59375 345.40314Q282.75 345.46564 283.53125 345.66876Q284.65625 345.98126 285.09375 346.16876Q285.53125 346.35626 285.78125 346.71564Q286.03125 347.075 286.03125 347.6219Q286.03125 348.15314 285.71875 348.6219Q285.42188 349.075 284.84375 349.34064Q284.26562 349.59064 283.53125 349.59064Q282.3125 349.59064 281.67188 349.09064Q281.04688 348.575 280.875 347.59064ZM290.48438 349.45L293.78125 340.85626L295.0 340.85626L298.51562 349.45L297.23438 349.45L296.21875 346.84064L292.64062 346.84064L291.6875 349.45L290.48438 349.45ZM292.96875 345.91876L295.875 345.91876L294.98438 343.54376Q294.5625 342.46564 294.375 341.7625Q294.20312 342.59064 293.90625 343.40314L292.96875 345.91876ZM297.875 347.59064L298.90625 347.4344Q299.0 348.0594 299.39062 348.3875Q299.79688 348.71564 300.53125 348.71564Q301.25 348.71564 301.59375 348.4344Q301.95312 348.1375 301.95312 347.73126Q301.95312 347.3719 301.64062 347.16876Q301.42188 347.02814 300.5625 346.8094Q299.40625 346.5125 298.95312 346.3094Q298.51562 346.09064 298.28125 345.71564Q298.04688 345.34064 298.04688 344.8719Q298.04688 344.46564 298.23438 344.10626Q298.42188 343.7469 298.75 343.5125Q299.0 343.34064 299.42188 343.21564Q299.84375 343.09064 300.34375 343.09064Q301.0625 343.09064 301.60938 343.3094Q302.17188 343.5125 302.4375 343.8719Q302.70312 344.23126 302.79688 344.825L301.76562 344.96564Q301.70312 344.4969 301.35938 344.23126Q301.03125 343.95 300.40625 343.95Q299.6875 343.95 299.375 344.2Q299.0625 344.4344 299.0625 344.7625Q299.0625 344.96564 299.1875 345.1219Q299.32812 345.29376 299.59375 345.40314Q299.75 345.46564 300.53125 345.66876Q301.65625 345.98126 302.09375 346.16876Q302.53125 346.35626 302.78125 346.71564Q303.03125 347.075 303.03125 347.6219Q303.03125 348.15314 302.71875 348.6219Q302.42188 349.075 301.84375 349.34064Q301.26562 349.59064 300.53125 349.59064Q299.3125 349.59064 298.67188 349.09064Q298.04688 348.575 297.875 347.59064ZM304.875 347.59064L305.90625 347.4344Q306.0 348.0594 306.39062 348.3875Q306.79688 348.71564 307.53125 348.71564Q308.25 348.71564 308.59375 348.4344Q308.95312 348.1375 308.95312 347.73126Q308.95312 347.3719 308.64062 347.16876Q308.42188 347.02814 307.5625 346.8094Q306.40625 346.5125 305.95312 346.3094Q305.51562 346.09064 305.28125 345.71564Q305.04688 345.34064 305.04688 344.8719Q305.04688 344.46564 305.23438 344.10626Q305.42188 343.7469 305.75 343.5125Q306.0 343.34064 306.42188 343.21564Q306.84375 343.09064 307.34375 343.09064Q308.0625 343.09064 308.60938 343.3094Q309.17188 343.5125 309.4375 343.8719Q309.70312 344.23126 309.79688 344.825L308.76562 344.96564Q308.70312 344.4969 308.35938 344.23126Q308.03125 343.95 307.40625 343.95Q306.6875 343.95 306.375 344.2Q306.0625 344.4344 306.0625 344.7625Q306.0625 344.96564 306.1875 345.1219Q306.32812 345.29376 306.59375 345.40314Q306.75 345.46564 307.53125 345.66876Q308.65625 345.98126 309.09375 346.16876Q309.53125 346.35626 309.78125 346.71564Q310.03125 347.075 310.03125 347.6219Q310.03125 348.15314 309.71875 348.6219Q309.42188 349.075 308.84375 349.34064Q308.26562 349.59064 307.53125 349.59064Q306.3125 349.59064 305.67188 349.09064Q305.04688 348.575 304.875 347.59064ZM312.29688 342.075L312.29688 340.85626L313.35938 340.85626L313.35938 342.075L312.29688 342.075ZM312.29688 349.45L312.29688 343.23126L313.35938 343.23126L313.35938 349.45L312.29688 349.45ZM315.29688 349.45L315.29688 343.23126L316.23438 343.23126L316.23438 344.10626Q316.92188 343.09064 318.21875 343.09064Q318.78125 343.09064 319.25 343.29376Q319.73438 343.4969 319.96875 343.825Q320.20312 344.15314 320.29688 344.59064Q320.34375 344.8875 320.34375 345.6219L320.34375 349.45L319.29688 349.45L319.29688 345.66876Q319.29688 345.0125 319.17188 344.7Q319.04688 344.3875 318.73438 344.2Q318.42188 343.9969 318.0 343.9969Q317.32812 343.9969 316.82812 344.4344Q316.34375 344.85626 316.34375 346.04376L316.34375 349.45L315.29688 349.45ZM326.35938 348.6844Q325.76562 349.1844 325.21875 349.3875Q324.6875 349.59064 324.0625 349.59064Q323.03125 349.59064 322.48438 349.09064Q321.9375 348.59064 321.9375 347.8094Q321.9375 347.35626 322.14062 346.98126Q322.34375 346.59064 322.6875 346.3719Q323.03125 346.1375 323.45312 346.02814Q323.75 345.9344 324.39062 345.85626Q325.65625 345.71564 326.26562 345.4969Q326.26562 345.27814 326.26562 345.23126Q326.26562 344.575 325.96875 344.3094Q325.5625 343.96564 324.76562 343.96564Q324.03125 343.96564 323.67188 344.23126Q323.3125 344.48126 323.14062 345.1375L322.10938 344.9969Q322.25 344.34064 322.57812 343.9344Q322.90625 343.52814 323.51562 343.3094Q324.125 343.09064 324.92188 343.09064Q325.71875 343.09064 326.21875 343.27814Q326.71875 343.46564 326.95312 343.7469Q327.1875 344.02814 327.28125 344.46564Q327.32812 344.73126 327.32812 345.4344L327.32812 346.84064Q327.32812 348.3094 327.39062 348.7Q327.46875 349.09064 327.67188 349.45L326.5625 349.45Q326.40625 349.1219 326.35938 348.6844ZM326.26562 346.325Q325.6875 346.5594 324.54688 346.73126Q323.89062 346.825 323.625 346.95Q323.35938 347.0594 323.20312 347.27814Q323.0625 347.4969 323.0625 347.77814Q323.0625 348.2 323.375 348.48126Q323.70312 348.7625 324.3125 348.7625Q324.92188 348.7625 325.39062 348.4969Q325.875 348.23126 326.09375 347.7625Q326.26562 347.40314 326.26562 346.71564L326.26562 346.325ZM329.26562 349.45L329.26562 340.85626L330.32812 340.85626L330.32812 349.45L329.26562 349.45ZM336.35938 348.6844Q335.76562 349.1844 335.21875 349.3875Q334.6875 349.59064 334.0625 349.59064Q333.03125 349.59064 332.48438 349.09064Q331.9375 348.59064 331.9375 347.8094Q331.9375 347.35626 332.14062 346.98126Q332.34375 346.59064 332.6875 346.3719Q333.03125 346.1375 333.45312 346.02814Q333.75 345.9344 334.39062 345.85626Q335.65625 345.71564 336.26562 345.4969Q336.26562 345.27814 336.26562 345.23126Q336.26562 344.575 335.96875 344.3094Q335.5625 343.96564 334.76562 343.96564Q334.03125 343.96564 333.67188 344.23126Q333.3125 344.48126 333.14062 345.1375L332.10938 344.9969Q332.25 344.34064 332.57812 343.9344Q332.90625 343.52814 333.51562 343.3094Q334.125 343.09064 334.92188 343.09064Q335.71875 343.09064 336.21875 343.27814Q336.71875 343.46564 336.95312 343.7469Q337.1875 344.02814 337.28125 344.46564Q337.32812 344.73126 337.32812 345.4344L337.32812 346.84064Q337.32812 348.3094 337.39062 348.7Q337.46875 349.09064 337.67188 349.45L336.5625 349.45Q336.40625 349.1219 336.35938 348.6844ZM336.26562 346.325Q335.6875 346.5594 334.54688 346.73126Q333.89062 346.825 333.625 346.95Q333.35938 347.0594 333.20312 347.27814Q333.0625 347.4969 333.0625 347.77814Q333.0625 348.2 333.375 348.48126Q333.70312 348.7625 334.3125 348.7625Q334.92188 348.7625 335.39062 348.4969Q335.875 348.23126 336.09375 347.7625Q336.26562 347.40314 336.26562 346.71564L336.26562 346.325ZM343.32812 349.45L343.32812 348.66876Q342.73438 349.59064 341.59375 349.59064Q340.84375 349.59064 340.21875 349.1844Q339.59375 348.7625 339.25 348.02814Q338.90625 347.29376 338.90625 346.34064Q338.90625 345.41876 339.21875 344.65314Q339.53125 343.8875 340.15625 343.4969Q340.78125 343.09064 341.54688 343.09064Q342.10938 343.09064 342.54688 343.325Q342.98438 343.5594 343.26562 343.9344L343.26562 340.85626L344.3125 340.85626L344.3125 349.45L343.32812 349.45ZM340.0 346.34064Q340.0 347.54376 340.5 348.1375Q341.0 348.71564 341.6875 348.71564Q342.375 348.71564 342.85938 348.15314Q343.34375 347.59064 343.34375 346.4344Q343.34375 345.15314 342.84375 344.5594Q342.35938 343.96564 341.64062 343.96564Q340.9375 343.96564 340.46875 344.54376Q340.0 345.10626 340.0 346.34064ZM345.90625 346.34064Q345.90625 344.60626 346.85938 343.77814Q347.65625 343.09064 348.8125 343.09064Q350.09375 343.09064 350.90625 343.9344Q351.73438 344.7625 351.73438 346.2469Q351.73438 347.45 351.375 348.1375Q351.01562 348.825 350.3125 349.21564Q349.625 349.59064 348.8125 349.59064Q347.51562 349.59064 346.70312 348.7625Q345.90625 347.91876 345.90625 346.34064ZM346.98438 346.34064Q346.98438 347.52814 347.5 348.1219Q348.03125 348.71564 348.8125 348.71564Q349.60938 348.71564 350.125 348.1219Q350.64062 347.52814 350.64062 346.3094Q350.64062 345.15314 350.10938 344.5594Q349.59375 343.96564 348.8125 343.96564Q348.03125 343.96564 347.5 344.5594Q346.98438 345.1375 346.98438 346.34064ZM352.875 347.59064L353.90625 347.4344Q354.0 348.0594 354.39062 348.3875Q354.79688 348.71564 355.53125 348.71564Q356.25 348.71564 356.59375 348.4344Q356.95312 348.1375 356.95312 347.73126Q356.95312 347.3719 356.64062 347.16876Q356.42188 347.02814 355.5625 346.8094Q354.40625 346.5125 353.95312 346.3094Q353.51562 346.09064 353.28125 345.71564Q353.04688 345.34064 353.04688 344.8719Q353.04688 344.46564 353.23438 344.10626Q353.42188 343.7469 353.75 343.5125Q354.0 343.34064 354.42188 343.21564Q354.84375 343.09064 355.34375 343.09064Q356.0625 343.09064 356.60938 343.3094Q357.17188 343.5125 357.4375 343.8719Q357.70312 344.23126 357.79688 344.825L356.76562 344.96564Q356.70312 344.4969 356.35938 344.23126Q356.03125 343.95 355.40625 343.95Q354.6875 343.95 354.375 344.2Q354.0625 344.4344 354.0625 344.7625Q354.0625 344.96564 354.1875 345.1219Q354.32812 345.29376 354.59375 345.40314Q354.75 345.46564 355.53125 345.66876Q356.65625 345.98126 357.09375 346.16876Q357.53125 346.35626 357.78125 346.71564Q358.03125 347.075 358.03125 347.6219Q358.03125 348.15314 357.71875 348.6219Q357.42188 349.075 356.84375 349.34064Q356.26562 349.59064 355.53125 349.59064Q354.3125 349.59064 353.67188 349.09064Q353.04688 348.575 352.875 347.59064Z" fill-rule="nonzero"/><path fill="#2e2e2e" d="M30.01875 24.878124L25.45625 24.878124L25.45625 37.55L23.596874 37.55L23.596874 24.878124L19.034374 24.878124L19.034374 23.33125L30.01875 23.33125L30.01875 24.878124ZM31.440624 32.175Q31.440624 30.6125 32.05 29.378124Q32.659374 28.128124 33.7375 27.45625Q34.83125 26.784374 36.2375 26.784374Q38.39375 26.784374 39.721874 28.284374Q41.065624 29.76875 41.065624 32.253124L41.065624 32.378124Q41.065624 33.925 40.471874 35.159374Q39.878124 36.378124 38.76875 37.065624Q37.675 37.753124 36.253124 37.753124Q34.1125 37.753124 32.76875 36.253124Q31.440624 34.753124 31.440624 32.3L31.440624 32.175ZM33.253124 32.378124Q33.253124 34.14375 34.065624 35.20625Q34.89375 36.26875 36.253124 36.26875Q37.628124 36.26875 38.440624 35.190624Q39.253124 34.1125 39.253124 32.175Q39.253124 30.425 38.425 29.346874Q37.596874 28.26875 36.2375 28.26875Q34.89375 28.26875 34.065624 29.33125Q33.253124 30.39375 33.253124 32.378124ZM45.3625 24.425L45.3625 26.9875L47.346874 26.9875L47.346874 28.378124L45.3625 28.378124L45.3625 34.925Q45.3625 35.565624 45.628124 35.89375Q45.89375 36.20625 46.534374 36.20625Q46.846874 36.20625 47.39375 36.08125L47.39375 37.55Q46.675 37.753124 46.003124 37.753124Q44.8 37.753124 44.175 37.01875Q43.565624 36.284374 43.565624 34.925L43.565624 28.378124L41.64375 28.378124L41.64375 26.9875L43.565624 26.9875L43.565624 24.425L45.3625 24.425ZM56.440624 37.55Q56.284374 37.2375 56.190624 36.440624Q54.925 37.753124 53.175 37.753124Q51.6125 37.753124 50.6125 36.8625Q49.6125 35.971874 49.6125 34.6125Q49.6125 32.971874 50.8625 32.065624Q52.128124 31.14375 54.39375 31.14375L56.159374 31.14375L56.159374 30.315624Q56.159374 29.3625 55.58125 28.8Q55.01875 28.2375 53.925 28.2375Q52.95625 28.2375 52.3 28.7375Q51.64375 29.221874 51.64375 29.909374L49.83125 29.909374Q49.83125 29.128124 50.39375 28.39375Q50.95625 27.64375 51.909374 27.221874Q52.878124 26.784374 54.034374 26.784374Q55.8625 26.784374 56.89375 27.70625Q57.925 28.6125 57.971874 30.221874L57.971874 35.08125Q57.971874 36.534374 58.33125 37.39375L58.33125 37.55L56.440624 37.55ZM53.440624 36.175Q54.3 36.175 55.05 35.7375Q55.815624 35.3 56.159374 34.596874L56.159374 32.425L54.7375 32.425Q51.425 32.425 51.425 34.3625Q51.425 35.221874 51.9875 35.70625Q52.55 36.175 53.440624 36.175ZM62.878124 37.55L61.08125 37.55L61.08125 22.55L62.878124 22.55L62.878124 37.55ZM70.47188 32.175Q70.47188 29.753124 71.62813 28.26875Q72.78438 26.784374 74.64375 26.784374Q76.50313 26.784374 77.58125 28.05L77.58125 22.55L79.39375 22.55L79.39375 37.55L77.7375 37.55L77.64375 36.409374Q76.56563 37.753124 74.62813 37.753124Q72.8 37.753124 71.62813 36.253124Q70.47188 34.7375 70.47188 32.315624L70.47188 32.175ZM72.28438 32.378124Q72.28438 34.175 73.01875 35.190624Q73.76875 36.20625 75.08125 36.20625Q76.8 36.20625 77.58125 34.675L77.58125 29.815624Q76.78438 28.315624 75.09688 28.315624Q73.76875 28.315624 73.01875 29.346874Q72.28438 30.378124 72.28438 32.378124ZM86.3 37.753124Q84.15938 37.753124 82.8 36.346874Q81.45625 34.925 81.45625 32.565624L81.45625 32.221874Q81.45625 30.659374 82.05 29.425Q82.65938 28.190624 83.7375 27.4875Q84.81563 26.784374 86.08125 26.784374Q88.14375 26.784374 89.28438 28.14375Q90.425 29.503124 90.425 32.034374L90.425 32.784374L83.26875 32.784374Q83.3 34.346874 84.175 35.315624Q85.05 36.26875 86.39375 36.26875Q87.3625 36.26875 88.01875 35.878124Q88.69063 35.4875 89.19063 34.846874L90.28438 35.70625Q88.95625 37.753124 86.3 37.753124ZM86.08125 28.26875Q84.9875 28.26875 84.2375 29.065624Q83.50313 29.8625 83.33125 31.3L88.6125 31.3L88.6125 31.159374Q88.53438 29.784374 87.8625 29.034374Q87.20625 28.26875 86.08125 28.26875ZM99.87813 37.55L98.08125 37.55L98.08125 26.9875L99.87813 26.9875L99.87813 37.55ZM97.925 24.175Q97.925 23.7375 98.19063 23.440624Q98.47188 23.128124 98.9875 23.128124Q99.51875 23.128124 99.78438 23.440624Q100.06563 23.7375 100.06563 24.175Q100.06563 24.6125 99.78438 24.909374Q99.51875 25.20625 98.9875 25.20625Q98.47188 25.20625 98.19063 24.909374Q97.925 24.6125 97.925 24.175ZM104.62813 26.9875L104.69063 28.315624Q105.89375 26.784374 107.84688 26.784374Q111.20625 26.784374 111.22188 30.565624L111.22188 37.55L109.425 37.55L109.425 30.55Q109.40938 29.409374 108.89375 28.8625Q108.39375 28.315624 107.3 28.315624Q106.425 28.315624 105.75313 28.784374Q105.09688 29.253124 104.72188 30.01875L104.72188 37.55L102.925 37.55L102.925 26.9875L104.62813 26.9875ZM113.47188 32.175Q113.47188 29.753124 114.62813 28.26875Q115.78438 26.784374 117.64375 26.784374Q119.50313 26.784374 120.58125 28.05L120.58125 22.55L122.39375 22.55L122.39375 37.55L120.7375 37.55L120.64375 36.409374Q119.56563 37.753124 117.62813 37.753124Q115.8 37.753124 114.62813 36.253124Q113.47188 34.7375 113.47188 32.315624L113.47188 32.175ZM115.28438 32.378124Q115.28438 34.175 116.01875 35.190624Q116.76875 36.20625 118.08125 36.20625Q119.8 36.20625 120.58125 34.675L120.58125 29.815624Q119.78438 28.315624 118.09688 28.315624Q116.76875 28.315624 116.01875 29.346874Q115.28438 30.378124 115.28438 32.378124ZM126.87813 37.55L125.08125 37.55L125.08125 26.9875L126.87813 26.9875L126.87813 37.55ZM124.925 24.175Q124.925 23.7375 125.19063 23.440624Q125.47188 23.128124 125.9875 23.128124Q126.51875 23.128124 126.78438 23.440624Q127.06563 23.7375 127.06563 24.175Q127.06563 24.6125 126.78438 24.909374Q126.51875 25.20625 125.9875 25.20625Q125.47188 25.20625 125.19063 24.909374Q124.925 24.6125 124.925 24.175ZM134.15938 36.26875Q135.12813 36.26875 135.84688 35.690624Q136.56563 35.096874 136.64375 34.221874L138.3625 34.221874Q138.3 35.128124 137.72188 35.95625Q137.15938 36.76875 136.19063 37.26875Q135.2375 37.753124 134.15938 37.753124Q132.00313 37.753124 130.72188 36.315624Q129.45625 34.8625 129.45625 32.3625L129.45625 32.065624Q129.45625 30.51875 130.01875 29.315624Q130.58125 28.1125 131.64375 27.45625Q132.70625 26.784374 134.14375 26.784374Q135.925 26.784374 137.09688 27.846874Q138.28438 28.909374 138.3625 30.6125L136.64375 30.6125Q136.56563 29.596874 135.8625 28.940624Q135.175 28.26875 134.14375 28.26875Q132.76875 28.26875 132.00313 29.26875Q131.25313 30.253124 131.25313 32.128124L131.25313 32.471874Q131.25313 34.3 132.00313 35.284374Q132.75313 36.26875 134.15938 36.26875ZM146.44063 37.55Q146.28438 37.2375 146.19063 36.440624Q144.925 37.753124 143.175 37.753124Q141.6125 37.753124 140.6125 36.8625Q139.6125 35.971874 139.6125 34.6125Q139.6125 32.971874 140.8625 32.065624Q142.12813 31.14375 144.39375 31.14375L146.15938 31.14375L146.15938 30.315624Q146.15938 29.3625 145.58125 28.8Q145.01875 28.2375 143.925 28.2375Q142.95625 28.2375 142.3 28.7375Q141.64375 29.221874 141.64375 29.909374L139.83125 29.909374Q139.83125 29.128124 140.39375 28.39375Q140.95625 27.64375 141.90938 27.221874Q142.87813 26.784374 144.03438 26.784374Q145.8625 26.784374 146.89375 27.70625Q147.925 28.6125 147.97188 30.221874L147.97188 35.08125Q147.97188 36.534374 148.33125 37.39375L148.33125 37.55L146.44063 37.55ZM143.44063 36.175Q144.3 36.175 145.05 35.7375Q145.81563 35.3 146.15938 34.596874L146.15938 32.425L144.7375 32.425Q141.425 32.425 141.425 34.3625Q141.425 35.221874 141.9875 35.70625Q142.55 36.175 143.44063 36.175ZM150.47188 32.175Q150.47188 29.753124 151.62813 28.26875Q152.78438 26.784374 154.64375 26.784374Q156.50313 26.784374 157.58125 28.05L157.58125 22.55L159.39375 22.55L159.39375 37.55L157.7375 37.55L157.64375 36.409374Q156.56563 37.753124 154.62813 37.753124Q152.8 37.753124 151.62813 36.253124Q150.47188 34.7375 150.47188 32.315624L150.47188 32.175ZM152.28438 32.378124Q152.28438 34.175 153.01875 35.190624Q153.76875 36.20625 155.08125 36.20625Q156.8 36.20625 157.58125 34.675L157.58125 29.815624Q156.78438 28.315624 155.09688 28.315624Q153.76875 28.315624 153.01875 29.346874Q152.28438 30.378124 152.28438 32.378124ZM161.44063 32.175Q161.44063 30.6125 162.05 29.378124Q162.65938 28.128124 163.7375 27.45625Q164.83125 26.784374 166.2375 26.784374Q168.39375 26.784374 169.72188 28.284374Q171.06563 29.76875 171.06563 32.253124L171.06563 32.378124Q171.06563 33.925 170.47188 35.159374Q169.87813 36.378124 168.76875 37.065624Q167.675 37.753124 166.25313 37.753124Q164.1125 37.753124 162.76875 36.253124Q161.44063 34.753124 161.44063 32.3L161.44063 32.175ZM163.25313 32.378124Q163.25313 34.14375 164.06563 35.20625Q164.89375 36.26875 166.25313 36.26875Q167.62813 36.26875 168.44063 35.190624Q169.25313 34.1125 169.25313 32.175Q169.25313 30.425 168.425 29.346874Q167.59688 28.26875 166.2375 28.26875Q164.89375 28.26875 164.06563 29.33125Q163.25313 30.39375 163.25313 32.378124ZM178.01875 28.596874Q177.6125 28.534374 177.14375 28.534374Q175.3625 28.534374 174.72188 30.05L174.72188 37.55L172.925 37.55L172.925 26.9875L174.675 26.9875L174.70625 28.20625Q175.59688 26.784374 177.22188 26.784374Q177.75313 26.784374 178.01875 26.925L178.01875 28.596874ZM184.3 37.753124Q182.15938 37.753124 180.8 36.346874Q179.45625 34.925 179.45625 32.565624L179.45625 32.221874Q179.45625 30.659374 180.05 29.425Q180.65938 28.190624 181.7375 27.4875Q182.81563 26.784374 184.08125 26.784374Q186.14375 26.784374 187.28438 28.14375Q188.425 29.503124 188.425 32.034374L188.425 32.784374L181.26875 32.784374Q181.3 34.346874 182.175 35.315624Q183.05 36.26875 184.39375 36.26875Q185.3625 36.26875 186.01875 35.878124Q186.69063 35.4875 187.19063 34.846874L188.28438 35.70625Q186.95625 37.753124 184.3 37.753124ZM184.08125 28.26875Q182.9875 28.26875 182.2375 29.065624Q181.50313 29.8625 181.33125 31.3L186.6125 31.3L186.6125 31.159374Q186.53438 29.784374 185.8625 29.034374Q185.20625 28.26875 184.08125 28.26875ZM197.06563 34.753124Q197.06563 34.01875 196.51875 33.6125Q195.97188 33.20625 194.59688 32.909374Q193.22188 32.6125 192.40938 32.20625Q191.6125 31.8 191.22188 31.2375Q190.84688 30.659374 190.84688 29.878124Q190.84688 28.58125 191.94063 27.690624Q193.03438 26.784374 194.75313 26.784374Q196.55 26.784374 197.65938 27.721874Q198.78438 28.64375 198.78438 30.08125L196.95625 30.08125Q196.95625 29.346874 196.33125 28.815624Q195.70625 28.26875 194.75313 28.26875Q193.75313 28.26875 193.19063 28.70625Q192.64375 29.128124 192.64375 29.83125Q192.64375 30.471874 193.15938 30.815624Q193.675 31.14375 195.03438 31.45625Q196.39375 31.753124 197.22188 32.175Q198.06563 32.58125 198.47188 33.175Q198.87813 33.76875 198.87813 34.6125Q198.87813 36.034374 197.7375 36.89375Q196.6125 37.753124 194.8 37.753124Q193.53438 37.753124 192.55 37.3Q191.58125 36.846874 191.01875 36.05Q190.47188 35.2375 190.47188 34.3L192.28438 34.3Q192.33125 35.20625 193.00313 35.7375Q193.69063 36.26875 194.8 36.26875Q195.83125 36.26875 196.44063 35.8625Q197.06563 35.440624 197.06563 34.753124ZM214.84688 32.378124Q214.84688 34.8 213.7375 36.284374Q212.64375 37.753124 210.75313 37.753124Q208.83125 37.753124 207.72188 36.51875L207.72188 41.6125L205.925 41.6125L205.925 26.9875L207.56563 26.9875L207.65938 28.159374Q208.75313 26.784374 210.72188 26.784374Q212.62813 26.784374 213.7375 28.221874Q214.84688 29.659374 214.84688 32.221874L214.84688 32.378124ZM213.03438 32.175Q213.03438 30.39375 212.26875 29.3625Q211.51875 28.315624 210.19063 28.315624Q208.55 28.315624 207.72188 29.76875L207.72188 34.83125Q208.53438 36.26875 210.20625 36.26875Q211.50313 36.26875 212.26875 35.2375Q213.03438 34.20625 213.03438 32.175ZM216.44063 32.175Q216.44063 30.6125 217.05 29.378124Q217.65938 28.128124 218.7375 27.45625Q219.83125 26.784374 221.2375 26.784374Q223.39375 26.784374 224.72188 28.284374Q226.06563 29.76875 226.06563 32.253124L226.06563 32.378124Q226.06563 33.925 225.47188 35.159374Q224.87813 36.378124 223.76875 37.065624Q222.675 37.753124 221.25313 37.753124Q219.1125 37.753124 217.76875 36.253124Q216.44063 34.753124 216.44063 32.3L216.44063 32.175ZM218.25313 32.378124Q218.25313 34.14375 219.06563 35.20625Q219.89375 36.26875 221.25313 36.26875Q222.62813 36.26875 223.44063 35.190624Q224.25313 34.1125 224.25313 32.175Q224.25313 30.425 223.425 29.346874Q222.59688 28.26875 221.2375 28.26875Q219.89375 28.26875 219.06563 29.33125Q218.25313 30.39375 218.25313 32.378124ZM233.01875 28.596874Q232.6125 28.534374 232.14375 28.534374Q230.3625 28.534374 229.72188 30.05L229.72188 37.55L227.925 37.55L227.925 26.9875L229.675 26.9875L229.70625 28.20625Q230.59688 26.784374 232.22188 26.784374Q232.75313 26.784374 233.01875 26.925L233.01875 28.596874ZM245.01875 28.596874Q244.6125 28.534374 244.14375 28.534374Q242.3625 28.534374 241.72188 30.05L241.72188 37.55L239.925 37.55L239.925 26.9875L241.675 26.9875L241.70625 28.20625Q242.59688 26.784374 244.22188 26.784374Q244.75313 26.784374 245.01875 26.925L245.01875 28.596874ZM251.3 37.753124Q249.15938 37.753124 247.8 36.346874Q246.45625 34.925 246.45625 32.565624L246.45625 32.221874Q246.45625 30.659374 247.05 29.425Q247.65938 28.190624 248.7375 27.4875Q249.81563 26.784374 251.08125 26.784374Q253.14375 26.784374 254.28438 28.14375Q255.425 29.503124 255.425 32.034374L255.425 32.784374L248.26875 32.784374Q248.3 34.346874 249.175 35.315624Q250.05 36.26875 251.39375 36.26875Q252.3625 36.26875 253.01875 35.878124Q253.69063 35.4875 254.19063 34.846874L255.28438 35.70625Q253.95625 37.753124 251.3 37.753124ZM251.08125 28.26875Q249.9875 28.26875 249.2375 29.065624Q248.50313 29.8625 248.33125 31.3L253.6125 31.3L253.6125 31.159374Q253.53438 29.784374 252.8625 29.034374Q252.20625 28.26875 251.08125 28.26875ZM257.4875 32.175Q257.4875 29.70625 258.6281 28.253124Q259.76874 26.784374 261.65936 26.784374Q263.59686 26.784374 264.675 28.159374L264.76874 26.9875L266.40936 26.9875L266.40936 37.3Q266.40936 39.346874 265.1906 40.51875Q263.9875 41.70625 261.925 41.70625Q260.78436 41.70625 259.6906 41.221874Q258.59686 40.7375 258.01874 39.878124L258.95624 38.8Q260.1281 40.2375 261.8 40.2375Q263.1281 40.2375 263.8625 39.4875Q264.59686 38.753124 264.59686 37.409374L264.59686 36.4875Q263.51874 37.753124 261.64374 37.753124Q259.78436 37.753124 258.6281 36.253124Q257.4875 34.753124 257.4875 32.175ZM259.3 32.378124Q259.3 34.175 260.03436 35.190624Q260.76874 36.20625 262.08124 36.20625Q263.8 36.20625 264.59686 34.659374L264.59686 29.83125Q263.76874 28.315624 262.1125 28.315624Q260.78436 28.315624 260.03436 29.346874Q259.3 30.378124 259.3 32.378124ZM270.8781 37.55L269.08124 37.55L269.08124 26.9875L270.8781 26.9875L270.8781 37.55ZM268.925 24.175Q268.925 23.7375 269.1906 23.440624Q269.47186 23.128124 269.9875 23.128124Q270.51874 23.128124 270.78436 23.440624Q271.0656 23.7375 271.0656 24.175Q271.0656 24.6125 270.78436 24.909374Q270.51874 25.20625 269.9875 25.20625Q269.47186 25.20625 269.1906 24.909374Q268.925 24.6125 268.925 24.175ZM280.4406 37.55Q280.28436 37.2375 280.1906 36.440624Q278.925 37.753124 277.175 37.753124Q275.6125 37.753124 274.6125 36.8625Q273.6125 35.971874 273.6125 34.6125Q273.6125 32.971874 274.8625 32.065624Q276.1281 31.14375 278.39374 31.14375L280.15936 31.14375L280.15936 30.315624Q280.15936 29.3625 279.58124 28.8Q279.01874 28.2375 277.925 28.2375Q276.95624 28.2375 276.3 28.7375Q275.64374 29.221874 275.64374 29.909374L273.83124 29.909374Q273.83124 29.128124 274.39374 28.39375Q274.95624 27.64375 275.90936 27.221874Q276.8781 26.784374 278.03436 26.784374Q279.8625 26.784374 280.89374 27.70625Q281.925 28.6125 281.97186 30.221874L281.97186 35.08125Q281.97186 36.534374 282.33124 37.39375L282.33124 37.55L280.4406 37.55ZM277.4406 36.175Q278.3 36.175 279.05 35.7375Q279.8156 35.3 280.15936 34.596874L280.15936 32.425L278.7375 32.425Q275.425 32.425 275.425 34.3625Q275.425 35.221874 275.9875 35.70625Q276.55 36.175 277.4406 36.175ZM281.6906 22.846874Q281.6906 23.909374 281.08124 24.565624Q280.4875 25.221874 279.58124 25.221874Q279.1906 25.221874 278.89374 25.128124Q278.59686 25.01875 278.1281 24.721874Q277.65936 24.409374 277.4406 24.346874Q277.2375 24.284374 276.95624 24.284374Q276.5656 24.284374 276.26874 24.596874Q275.9875 24.909374 275.9875 25.378124L274.78436 25.315624Q274.78436 24.26875 275.3781 23.596874Q275.97186 22.909374 276.8781 22.909374Q277.22186 22.909374 277.4875 23.003124Q277.76874 23.096874 278.2375 23.378124Q278.70624 23.659374 278.9406 23.753124Q279.1906 23.846874 279.5031 23.846874Q279.925 23.846874 280.1906 23.51875Q280.47186 23.175 280.47186 22.7375L281.6906 22.846874ZM284.4406 32.175Q284.4406 30.6125 285.05 29.378124Q285.65936 28.128124 286.7375 27.45625Q287.83124 26.784374 289.2375 26.784374Q291.39374 26.784374 292.72186 28.284374Q294.0656 29.76875 294.0656 32.253124L294.0656 32.378124Q294.0656 33.925 293.47186 35.159374Q292.8781 36.378124 291.76874 37.065624Q290.675 37.753124 289.2531 37.753124Q287.1125 37.753124 285.76874 36.253124Q284.4406 34.753124 284.4406 32.3L284.4406 32.175ZM286.2531 32.378124Q286.2531 34.14375 287.0656 35.20625Q287.89374 36.26875 289.2531 36.26875Q290.6281 36.26875 291.4406 35.190624Q292.2531 34.1125 292.2531 32.175Q292.2531 30.425 291.425 29.346874Q290.59686 28.26875 289.2375 28.26875Q287.89374 28.26875 287.0656 29.33125Q286.2531 30.39375 286.2531 32.378124Z" fill-rule="nonzero"/></svg>